G04 #@! TF.GenerationSoftware,KiCad,Pcbnew,(5.1.6)-1*
G04 #@! TF.CreationDate,2024-01-17T07:30:29-05:00*
G04 #@! TF.ProjectId,amiga-2000-usb-kb-stamp,616d6967-612d-4323-9030-302d7573622d,rev?*
G04 #@! TF.SameCoordinates,Original*
G04 #@! TF.FileFunction,Soldermask,Bot*
G04 #@! TF.FilePolarity,Negative*
%FSLAX46Y46*%
G04 Gerber Fmt 4.6, Leading zero omitted, Abs format (unit mm)*
G04 Created by KiCad (PCBNEW (5.1.6)-1) date 2024-01-17 07:30:29*
%MOMM*%
%LPD*%
G01*
G04 APERTURE LIST*
%ADD10C,1.950000*%
%ADD11R,1.900000X1.900000*%
%ADD12C,1.900000*%
%ADD13R,1.800000X1.800000*%
%ADD14C,3.670000*%
%ADD15O,1.800000X1.800000*%
%ADD16O,1.450000X1.450000*%
%ADD17C,1.450000*%
G04 APERTURE END LIST*
G36*
G01*
X160282000Y-76356738D02*
X160282000Y-77313262D01*
G75*
G02*
X160010262Y-77585000I-271738J0D01*
G01*
X159303738Y-77585000D01*
G75*
G02*
X159032000Y-77313262I0J271738D01*
G01*
X159032000Y-76356738D01*
G75*
G02*
X159303738Y-76085000I271738J0D01*
G01*
X160010262Y-76085000D01*
G75*
G02*
X160282000Y-76356738I0J-271738D01*
G01*
G37*
G36*
G01*
X158232000Y-76356738D02*
X158232000Y-77313262D01*
G75*
G02*
X157960262Y-77585000I-271738J0D01*
G01*
X157253738Y-77585000D01*
G75*
G02*
X156982000Y-77313262I0J271738D01*
G01*
X156982000Y-76356738D01*
G75*
G02*
X157253738Y-76085000I271738J0D01*
G01*
X157960262Y-76085000D01*
G75*
G02*
X158232000Y-76356738I0J-271738D01*
G01*
G37*
G36*
G01*
X154404000Y-76356738D02*
X154404000Y-77313262D01*
G75*
G02*
X154132262Y-77585000I-271738J0D01*
G01*
X153425738Y-77585000D01*
G75*
G02*
X153154000Y-77313262I0J271738D01*
G01*
X153154000Y-76356738D01*
G75*
G02*
X153425738Y-76085000I271738J0D01*
G01*
X154132262Y-76085000D01*
G75*
G02*
X154404000Y-76356738I0J-271738D01*
G01*
G37*
G36*
G01*
X156454000Y-76356738D02*
X156454000Y-77313262D01*
G75*
G02*
X156182262Y-77585000I-271738J0D01*
G01*
X155475738Y-77585000D01*
G75*
G02*
X155204000Y-77313262I0J271738D01*
G01*
X155204000Y-76356738D01*
G75*
G02*
X155475738Y-76085000I271738J0D01*
G01*
X156182262Y-76085000D01*
G75*
G02*
X156454000Y-76356738I0J-271738D01*
G01*
G37*
D10*
X176676000Y-68453000D03*
X169526000Y-68453000D03*
D11*
X130810000Y-68072000D03*
D12*
X130810000Y-70612000D03*
X130810000Y-73152000D03*
X130810000Y-75692000D03*
X130810000Y-78232000D03*
X130810000Y-80772000D03*
X130810000Y-83312000D03*
X130810000Y-85852000D03*
X130810000Y-88392000D03*
X130810000Y-90932000D03*
X130810000Y-93472000D03*
X130810000Y-96012000D03*
X130810000Y-98552000D03*
X130810000Y-101092000D03*
X130810000Y-103632000D03*
X130810000Y-106172000D03*
X130810000Y-108712000D03*
X130810000Y-111252000D03*
X130810000Y-113792000D03*
X130810000Y-116332000D03*
X146250000Y-116332000D03*
X146250000Y-113792000D03*
X146250000Y-111252000D03*
X146250000Y-108712000D03*
X146250000Y-106172000D03*
X146250000Y-103632000D03*
X146250000Y-101092000D03*
X146250000Y-98552000D03*
X146250000Y-96012000D03*
X146250000Y-93472000D03*
X146250000Y-90932000D03*
X146250000Y-88392000D03*
X146250000Y-85852000D03*
X146250000Y-83312000D03*
X146250000Y-80772000D03*
X146250000Y-78232000D03*
X146250000Y-75692000D03*
X146250000Y-73152000D03*
X146250000Y-70612000D03*
X146250000Y-68072000D03*
X149171000Y-68072000D03*
X149171000Y-70612000D03*
X149171000Y-73152000D03*
X149171000Y-75692000D03*
X149171000Y-78232000D03*
X149171000Y-80772000D03*
X149171000Y-83312000D03*
X149171000Y-85852000D03*
X149171000Y-88392000D03*
X149171000Y-90932000D03*
X149171000Y-93472000D03*
X149171000Y-96012000D03*
X149171000Y-98552000D03*
X149171000Y-101092000D03*
X149171000Y-103632000D03*
X149171000Y-106172000D03*
X149171000Y-108712000D03*
X149171000Y-111252000D03*
X149171000Y-113792000D03*
X149171000Y-116332000D03*
X133731000Y-116332000D03*
X133731000Y-113792000D03*
X133731000Y-111252000D03*
X133731000Y-108712000D03*
X133731000Y-106172000D03*
X133731000Y-103632000D03*
X133731000Y-101092000D03*
X133731000Y-98552000D03*
X133731000Y-96012000D03*
X133731000Y-93472000D03*
X133731000Y-90932000D03*
X133731000Y-88392000D03*
X133731000Y-85852000D03*
X133731000Y-83312000D03*
X133731000Y-80772000D03*
X133731000Y-78232000D03*
X133731000Y-75692000D03*
X133731000Y-73152000D03*
X133731000Y-70612000D03*
D11*
X133731000Y-68072000D03*
D13*
X163830000Y-68072000D03*
D14*
X167844000Y-115419000D03*
X180644000Y-115419000D03*
D13*
X174117000Y-76454000D03*
D15*
X171577000Y-76454000D03*
G36*
G01*
X158495000Y-67085738D02*
X158495000Y-68042262D01*
G75*
G02*
X158223262Y-68314000I-271738J0D01*
G01*
X157516738Y-68314000D01*
G75*
G02*
X157245000Y-68042262I0J271738D01*
G01*
X157245000Y-67085738D01*
G75*
G02*
X157516738Y-66814000I271738J0D01*
G01*
X158223262Y-66814000D01*
G75*
G02*
X158495000Y-67085738I0J-271738D01*
G01*
G37*
G36*
G01*
X156445000Y-67085738D02*
X156445000Y-68042262D01*
G75*
G02*
X156173262Y-68314000I-271738J0D01*
G01*
X155466738Y-68314000D01*
G75*
G02*
X155195000Y-68042262I0J271738D01*
G01*
X155195000Y-67085738D01*
G75*
G02*
X155466738Y-66814000I271738J0D01*
G01*
X156173262Y-66814000D01*
G75*
G02*
X156445000Y-67085738I0J-271738D01*
G01*
G37*
G36*
G01*
X173638738Y-91595000D02*
X174595262Y-91595000D01*
G75*
G02*
X174867000Y-91866738I0J-271738D01*
G01*
X174867000Y-92573262D01*
G75*
G02*
X174595262Y-92845000I-271738J0D01*
G01*
X173638738Y-92845000D01*
G75*
G02*
X173367000Y-92573262I0J271738D01*
G01*
X173367000Y-91866738D01*
G75*
G02*
X173638738Y-91595000I271738J0D01*
G01*
G37*
G36*
G01*
X173638738Y-89545000D02*
X174595262Y-89545000D01*
G75*
G02*
X174867000Y-89816738I0J-271738D01*
G01*
X174867000Y-90523262D01*
G75*
G02*
X174595262Y-90795000I-271738J0D01*
G01*
X173638738Y-90795000D01*
G75*
G02*
X173367000Y-90523262I0J271738D01*
G01*
X173367000Y-89816738D01*
G75*
G02*
X173638738Y-89545000I271738J0D01*
G01*
G37*
D16*
X176735000Y-84218000D03*
X176735000Y-86218000D03*
X176735000Y-88218000D03*
X176735000Y-90218000D03*
X176735000Y-92218000D03*
X176735000Y-94218000D03*
X176735000Y-96218000D03*
X176735000Y-98218000D03*
X176735000Y-100218000D03*
X176735000Y-102218000D03*
X174735000Y-104218000D03*
X172735000Y-104218000D03*
X170735000Y-104218000D03*
X168735000Y-104218000D03*
X166735000Y-104218000D03*
X164735000Y-104218000D03*
X162735000Y-104218000D03*
X160735000Y-104218000D03*
X158735000Y-104218000D03*
X156735000Y-104218000D03*
X154735000Y-102218000D03*
X154735000Y-100218000D03*
X154735000Y-98218000D03*
X154735000Y-96218000D03*
X154735000Y-94218000D03*
X154735000Y-92218000D03*
X154735000Y-90218000D03*
X154735000Y-88218000D03*
X154735000Y-86218000D03*
X154735000Y-84218000D03*
X156735000Y-82218000D03*
X158735000Y-82218000D03*
X160735000Y-82218000D03*
X162735000Y-82218000D03*
X164735000Y-82218000D03*
X166735000Y-82218000D03*
X168735000Y-82218000D03*
X170735000Y-82218000D03*
X172735000Y-82218000D03*
D17*
X174735000Y-82218000D03*
D13*
X162179000Y-110998000D03*
D15*
X159639000Y-110998000D03*
X157099000Y-110998000D03*
X154559000Y-110998000D03*
M02*
