G04 #@! TF.GenerationSoftware,KiCad,Pcbnew,(5.1.6)-1*
G04 #@! TF.CreationDate,2022-08-20T08:16:05-04:00*
G04 #@! TF.ProjectId,amiga-2000-usb-kb-stamp,616d6967-612d-4323-9030-302d7573622d,rev?*
G04 #@! TF.SameCoordinates,Original*
G04 #@! TF.FileFunction,Legend,Top*
G04 #@! TF.FilePolarity,Positive*
%FSLAX46Y46*%
G04 Gerber Fmt 4.6, Leading zero omitted, Abs format (unit mm)*
G04 Created by KiCad (PCBNEW (5.1.6)-1) date 2022-08-20 08:16:05*
%MOMM*%
%LPD*%
G01*
G04 APERTURE LIST*
%ADD10C,0.150000*%
%ADD11C,0.250000*%
%ADD12C,0.010000*%
%ADD13C,0.200000*%
%ADD14C,0.100000*%
%ADD15C,0.120000*%
%ADD16C,0.254000*%
%ADD17R,1.625000X0.750000*%
%ADD18R,0.500000X1.500000*%
%ADD19C,1.950000*%
%ADD20R,1.850000X2.000000*%
%ADD21R,1.250000X1.550000*%
%ADD22R,1.900000X1.900000*%
%ADD23C,1.900000*%
%ADD24R,1.800000X1.800000*%
%ADD25R,1.400000X3.100000*%
%ADD26C,3.670000*%
%ADD27O,1.800000X1.800000*%
%ADD28O,1.450000X1.450000*%
%ADD29R,2.900000X1.600000*%
%ADD30R,1.600000X2.900000*%
%ADD31C,1.450000*%
G04 APERTURE END LIST*
D10*
X170775761Y-108783380D02*
X170775761Y-107783380D01*
X171347190Y-108783380D02*
X170918619Y-108211952D01*
X171347190Y-107783380D02*
X170775761Y-108354809D01*
X171775761Y-108259571D02*
X172109095Y-108259571D01*
X172251952Y-108783380D02*
X171775761Y-108783380D01*
X171775761Y-107783380D01*
X172251952Y-107783380D01*
X172871000Y-108307190D02*
X172871000Y-108783380D01*
X172537666Y-107783380D02*
X172871000Y-108307190D01*
X173204333Y-107783380D01*
X173871000Y-108259571D02*
X174013857Y-108307190D01*
X174061476Y-108354809D01*
X174109095Y-108450047D01*
X174109095Y-108592904D01*
X174061476Y-108688142D01*
X174013857Y-108735761D01*
X173918619Y-108783380D01*
X173537666Y-108783380D01*
X173537666Y-107783380D01*
X173871000Y-107783380D01*
X173966238Y-107831000D01*
X174013857Y-107878619D01*
X174061476Y-107973857D01*
X174061476Y-108069095D01*
X174013857Y-108164333D01*
X173966238Y-108211952D01*
X173871000Y-108259571D01*
X173537666Y-108259571D01*
X174728142Y-107783380D02*
X174918619Y-107783380D01*
X175013857Y-107831000D01*
X175109095Y-107926238D01*
X175156714Y-108116714D01*
X175156714Y-108450047D01*
X175109095Y-108640523D01*
X175013857Y-108735761D01*
X174918619Y-108783380D01*
X174728142Y-108783380D01*
X174632904Y-108735761D01*
X174537666Y-108640523D01*
X174490047Y-108450047D01*
X174490047Y-108116714D01*
X174537666Y-107926238D01*
X174632904Y-107831000D01*
X174728142Y-107783380D01*
X175537666Y-108497666D02*
X176013857Y-108497666D01*
X175442428Y-108783380D02*
X175775761Y-107783380D01*
X176109095Y-108783380D01*
X177013857Y-108783380D02*
X176680523Y-108307190D01*
X176442428Y-108783380D02*
X176442428Y-107783380D01*
X176823380Y-107783380D01*
X176918619Y-107831000D01*
X176966238Y-107878619D01*
X177013857Y-107973857D01*
X177013857Y-108116714D01*
X176966238Y-108211952D01*
X176918619Y-108259571D01*
X176823380Y-108307190D01*
X176442428Y-108307190D01*
X177442428Y-108783380D02*
X177442428Y-107783380D01*
X177680523Y-107783380D01*
X177823380Y-107831000D01*
X177918619Y-107926238D01*
X177966238Y-108021476D01*
X178013857Y-108211952D01*
X178013857Y-108354809D01*
X177966238Y-108545285D01*
X177918619Y-108640523D01*
X177823380Y-108735761D01*
X177680523Y-108783380D01*
X177442428Y-108783380D01*
X177093619Y-74207904D02*
X177760285Y-74207904D01*
X177569809Y-74207904D02*
X177665047Y-74255523D01*
X177712666Y-74303142D01*
X177760285Y-74398380D01*
X177760285Y-74493619D01*
X177141238Y-75207904D02*
X177093619Y-75112666D01*
X177093619Y-74922190D01*
X177141238Y-74826952D01*
X177236476Y-74779333D01*
X177617428Y-74779333D01*
X177712666Y-74826952D01*
X177760285Y-74922190D01*
X177760285Y-75112666D01*
X177712666Y-75207904D01*
X177617428Y-75255523D01*
X177522190Y-75255523D01*
X177426952Y-74779333D01*
X177760285Y-75588857D02*
X177093619Y-75826952D01*
X177760285Y-76065047D01*
X178093619Y-77398380D02*
X178093619Y-77493619D01*
X178046000Y-77588857D01*
X177998380Y-77636476D01*
X177903142Y-77684095D01*
X177712666Y-77731714D01*
X177474571Y-77731714D01*
X177284095Y-77684095D01*
X177188857Y-77636476D01*
X177141238Y-77588857D01*
X177093619Y-77493619D01*
X177093619Y-77398380D01*
X177141238Y-77303142D01*
X177188857Y-77255523D01*
X177284095Y-77207904D01*
X177474571Y-77160285D01*
X177712666Y-77160285D01*
X177903142Y-77207904D01*
X177998380Y-77255523D01*
X178046000Y-77303142D01*
X178093619Y-77398380D01*
X154932000Y-107442095D02*
X154979619Y-107346857D01*
X154979619Y-107204000D01*
X154932000Y-107061142D01*
X154836761Y-106965904D01*
X154741523Y-106918285D01*
X154551047Y-106870666D01*
X154408190Y-106870666D01*
X154217714Y-106918285D01*
X154122476Y-106965904D01*
X154027238Y-107061142D01*
X153979619Y-107204000D01*
X153979619Y-107299238D01*
X154027238Y-107442095D01*
X154074857Y-107489714D01*
X154408190Y-107489714D01*
X154408190Y-107299238D01*
X153979619Y-107918285D02*
X154979619Y-107918285D01*
X153979619Y-108489714D01*
X154979619Y-108489714D01*
X153979619Y-108965904D02*
X154979619Y-108965904D01*
X154979619Y-109204000D01*
X154932000Y-109346857D01*
X154836761Y-109442095D01*
X154741523Y-109489714D01*
X154551047Y-109537333D01*
X154408190Y-109537333D01*
X154217714Y-109489714D01*
X154122476Y-109442095D01*
X154027238Y-109346857D01*
X153979619Y-109204000D01*
X153979619Y-108965904D01*
X156646619Y-107450047D02*
X157646619Y-107450047D01*
X157646619Y-107688142D01*
X157599000Y-107831000D01*
X157503761Y-107926238D01*
X157408523Y-107973857D01*
X157218047Y-108021476D01*
X157075190Y-108021476D01*
X156884714Y-107973857D01*
X156789476Y-107926238D01*
X156694238Y-107831000D01*
X156646619Y-107688142D01*
X156646619Y-107450047D01*
X157027571Y-108450047D02*
X157027571Y-109211952D01*
X156646619Y-108831000D02*
X157408523Y-108831000D01*
X159059619Y-107450047D02*
X160059619Y-107450047D01*
X160059619Y-107688142D01*
X160012000Y-107831000D01*
X159916761Y-107926238D01*
X159821523Y-107973857D01*
X159631047Y-108021476D01*
X159488190Y-108021476D01*
X159297714Y-107973857D01*
X159202476Y-107926238D01*
X159107238Y-107831000D01*
X159059619Y-107688142D01*
X159059619Y-107450047D01*
X159440571Y-108450047D02*
X159440571Y-109211952D01*
X162726619Y-108013523D02*
X162726619Y-107537333D01*
X162250428Y-107489714D01*
X162298047Y-107537333D01*
X162345666Y-107632571D01*
X162345666Y-107870666D01*
X162298047Y-107965904D01*
X162250428Y-108013523D01*
X162155190Y-108061142D01*
X161917095Y-108061142D01*
X161821857Y-108013523D01*
X161774238Y-107965904D01*
X161726619Y-107870666D01*
X161726619Y-107632571D01*
X161774238Y-107537333D01*
X161821857Y-107489714D01*
X162726619Y-108346857D02*
X161726619Y-108680190D01*
X162726619Y-109013523D01*
D11*
X181594000Y-66787142D02*
X181594000Y-67501428D01*
X181165428Y-66644285D02*
X182665428Y-67144285D01*
X181165428Y-67644285D01*
X182522571Y-68072857D02*
X182594000Y-68144285D01*
X182665428Y-68287142D01*
X182665428Y-68644285D01*
X182594000Y-68787142D01*
X182522571Y-68858571D01*
X182379714Y-68930000D01*
X182236857Y-68930000D01*
X182022571Y-68858571D01*
X181165428Y-68001428D01*
X181165428Y-68930000D01*
X182665428Y-69858571D02*
X182665428Y-70001428D01*
X182594000Y-70144285D01*
X182522571Y-70215714D01*
X182379714Y-70287142D01*
X182094000Y-70358571D01*
X181736857Y-70358571D01*
X181451142Y-70287142D01*
X181308285Y-70215714D01*
X181236857Y-70144285D01*
X181165428Y-70001428D01*
X181165428Y-69858571D01*
X181236857Y-69715714D01*
X181308285Y-69644285D01*
X181451142Y-69572857D01*
X181736857Y-69501428D01*
X182094000Y-69501428D01*
X182379714Y-69572857D01*
X182522571Y-69644285D01*
X182594000Y-69715714D01*
X182665428Y-69858571D01*
X182665428Y-71287142D02*
X182665428Y-71430000D01*
X182594000Y-71572857D01*
X182522571Y-71644285D01*
X182379714Y-71715714D01*
X182094000Y-71787142D01*
X181736857Y-71787142D01*
X181451142Y-71715714D01*
X181308285Y-71644285D01*
X181236857Y-71572857D01*
X181165428Y-71430000D01*
X181165428Y-71287142D01*
X181236857Y-71144285D01*
X181308285Y-71072857D01*
X181451142Y-71001428D01*
X181736857Y-70930000D01*
X182094000Y-70930000D01*
X182379714Y-71001428D01*
X182522571Y-71072857D01*
X182594000Y-71144285D01*
X182665428Y-71287142D01*
X182665428Y-72715714D02*
X182665428Y-72858571D01*
X182594000Y-73001428D01*
X182522571Y-73072857D01*
X182379714Y-73144285D01*
X182094000Y-73215714D01*
X181736857Y-73215714D01*
X181451142Y-73144285D01*
X181308285Y-73072857D01*
X181236857Y-73001428D01*
X181165428Y-72858571D01*
X181165428Y-72715714D01*
X181236857Y-72572857D01*
X181308285Y-72501428D01*
X181451142Y-72430000D01*
X181736857Y-72358571D01*
X182094000Y-72358571D01*
X182379714Y-72430000D01*
X182522571Y-72501428D01*
X182594000Y-72572857D01*
X182665428Y-72715714D01*
X181165428Y-75858571D02*
X181879714Y-75358571D01*
X181165428Y-75001428D02*
X182665428Y-75001428D01*
X182665428Y-75572857D01*
X182594000Y-75715714D01*
X182522571Y-75787142D01*
X182379714Y-75858571D01*
X182165428Y-75858571D01*
X182022571Y-75787142D01*
X181951142Y-75715714D01*
X181879714Y-75572857D01*
X181879714Y-75001428D01*
X181165428Y-76501428D02*
X182665428Y-76501428D01*
X182665428Y-77072857D01*
X182594000Y-77215714D01*
X182522571Y-77287142D01*
X182379714Y-77358571D01*
X182165428Y-77358571D01*
X182022571Y-77287142D01*
X181951142Y-77215714D01*
X181879714Y-77072857D01*
X181879714Y-76501428D01*
X182522571Y-77930000D02*
X182594000Y-78001428D01*
X182665428Y-78144285D01*
X182665428Y-78501428D01*
X182594000Y-78644285D01*
X182522571Y-78715714D01*
X182379714Y-78787142D01*
X182236857Y-78787142D01*
X182022571Y-78715714D01*
X181165428Y-77858571D01*
X181165428Y-78787142D01*
X182665428Y-79715714D02*
X182665428Y-79858571D01*
X182594000Y-80001428D01*
X182522571Y-80072857D01*
X182379714Y-80144285D01*
X182094000Y-80215714D01*
X181736857Y-80215714D01*
X181451142Y-80144285D01*
X181308285Y-80072857D01*
X181236857Y-80001428D01*
X181165428Y-79858571D01*
X181165428Y-79715714D01*
X181236857Y-79572857D01*
X181308285Y-79501428D01*
X181451142Y-79430000D01*
X181736857Y-79358571D01*
X182094000Y-79358571D01*
X182379714Y-79430000D01*
X182522571Y-79501428D01*
X182594000Y-79572857D01*
X182665428Y-79715714D01*
X182165428Y-81501428D02*
X181165428Y-81501428D01*
X182736857Y-81144285D02*
X181665428Y-80787142D01*
X181665428Y-81715714D01*
X182665428Y-82572857D02*
X182665428Y-82715714D01*
X182594000Y-82858571D01*
X182522571Y-82930000D01*
X182379714Y-83001428D01*
X182094000Y-83072857D01*
X181736857Y-83072857D01*
X181451142Y-83001428D01*
X181308285Y-82930000D01*
X181236857Y-82858571D01*
X181165428Y-82715714D01*
X181165428Y-82572857D01*
X181236857Y-82430000D01*
X181308285Y-82358571D01*
X181451142Y-82287142D01*
X181736857Y-82215714D01*
X182094000Y-82215714D01*
X182379714Y-82287142D01*
X182522571Y-82358571D01*
X182594000Y-82430000D01*
X182665428Y-82572857D01*
X180165428Y-66715714D02*
X178951142Y-66715714D01*
X178808285Y-66787142D01*
X178736857Y-66858571D01*
X178665428Y-67001428D01*
X178665428Y-67287142D01*
X178736857Y-67430000D01*
X178808285Y-67501428D01*
X178951142Y-67572857D01*
X180165428Y-67572857D01*
X178736857Y-68215714D02*
X178665428Y-68430000D01*
X178665428Y-68787142D01*
X178736857Y-68930000D01*
X178808285Y-69001428D01*
X178951142Y-69072857D01*
X179094000Y-69072857D01*
X179236857Y-69001428D01*
X179308285Y-68930000D01*
X179379714Y-68787142D01*
X179451142Y-68501428D01*
X179522571Y-68358571D01*
X179594000Y-68287142D01*
X179736857Y-68215714D01*
X179879714Y-68215714D01*
X180022571Y-68287142D01*
X180094000Y-68358571D01*
X180165428Y-68501428D01*
X180165428Y-68858571D01*
X180094000Y-69072857D01*
X179451142Y-70215714D02*
X179379714Y-70430000D01*
X179308285Y-70501428D01*
X179165428Y-70572857D01*
X178951142Y-70572857D01*
X178808285Y-70501428D01*
X178736857Y-70430000D01*
X178665428Y-70287142D01*
X178665428Y-69715714D01*
X180165428Y-69715714D01*
X180165428Y-70215714D01*
X180094000Y-70358571D01*
X180022571Y-70430000D01*
X179879714Y-70501428D01*
X179736857Y-70501428D01*
X179594000Y-70430000D01*
X179522571Y-70358571D01*
X179451142Y-70215714D01*
X179451142Y-69715714D01*
X178665428Y-72358571D02*
X180165428Y-72358571D01*
X178665428Y-73215714D02*
X179522571Y-72572857D01*
X180165428Y-73215714D02*
X179308285Y-72358571D01*
X179451142Y-73858571D02*
X179451142Y-74358571D01*
X178665428Y-74572857D02*
X178665428Y-73858571D01*
X180165428Y-73858571D01*
X180165428Y-74572857D01*
X179379714Y-75501428D02*
X178665428Y-75501428D01*
X180165428Y-75001428D02*
X179379714Y-75501428D01*
X180165428Y-76001428D01*
X179451142Y-77001428D02*
X179379714Y-77215714D01*
X179308285Y-77287142D01*
X179165428Y-77358571D01*
X178951142Y-77358571D01*
X178808285Y-77287142D01*
X178736857Y-77215714D01*
X178665428Y-77072857D01*
X178665428Y-76501428D01*
X180165428Y-76501428D01*
X180165428Y-77001428D01*
X180094000Y-77144285D01*
X180022571Y-77215714D01*
X179879714Y-77287142D01*
X179736857Y-77287142D01*
X179594000Y-77215714D01*
X179522571Y-77144285D01*
X179451142Y-77001428D01*
X179451142Y-76501428D01*
X180165428Y-78287142D02*
X180165428Y-78572857D01*
X180094000Y-78715714D01*
X179951142Y-78858571D01*
X179665428Y-78930000D01*
X179165428Y-78930000D01*
X178879714Y-78858571D01*
X178736857Y-78715714D01*
X178665428Y-78572857D01*
X178665428Y-78287142D01*
X178736857Y-78144285D01*
X178879714Y-78001428D01*
X179165428Y-77930000D01*
X179665428Y-77930000D01*
X179951142Y-78001428D01*
X180094000Y-78144285D01*
X180165428Y-78287142D01*
X179094000Y-79501428D02*
X179094000Y-80215714D01*
X178665428Y-79358571D02*
X180165428Y-79858571D01*
X178665428Y-80358571D01*
X178665428Y-81715714D02*
X179379714Y-81215714D01*
X178665428Y-80858571D02*
X180165428Y-80858571D01*
X180165428Y-81430000D01*
X180094000Y-81572857D01*
X180022571Y-81644285D01*
X179879714Y-81715714D01*
X179665428Y-81715714D01*
X179522571Y-81644285D01*
X179451142Y-81572857D01*
X179379714Y-81430000D01*
X179379714Y-80858571D01*
X178665428Y-82358571D02*
X180165428Y-82358571D01*
X180165428Y-82715714D01*
X180094000Y-82930000D01*
X179951142Y-83072857D01*
X179808285Y-83144285D01*
X179522571Y-83215714D01*
X179308285Y-83215714D01*
X179022571Y-83144285D01*
X178879714Y-83072857D01*
X178736857Y-82930000D01*
X178665428Y-82715714D01*
X178665428Y-82358571D01*
D10*
X161115952Y-101687380D02*
X161115952Y-102401666D01*
X161068333Y-102544523D01*
X160973095Y-102639761D01*
X160830238Y-102687380D01*
X160735000Y-102687380D01*
X162068333Y-102687380D02*
X161592142Y-102687380D01*
X161592142Y-101687380D01*
X162973095Y-102592142D02*
X162925476Y-102639761D01*
X162782619Y-102687380D01*
X162687380Y-102687380D01*
X162544523Y-102639761D01*
X162449285Y-102544523D01*
X162401666Y-102449285D01*
X162354047Y-102258809D01*
X162354047Y-102115952D01*
X162401666Y-101925476D01*
X162449285Y-101830238D01*
X162544523Y-101735000D01*
X162687380Y-101687380D01*
X162782619Y-101687380D01*
X162925476Y-101735000D01*
X162973095Y-101782619D01*
X163687380Y-101687380D02*
X163687380Y-102401666D01*
X163639761Y-102544523D01*
X163544523Y-102639761D01*
X163401666Y-102687380D01*
X163306428Y-102687380D01*
X164639761Y-102687380D02*
X164163571Y-102687380D01*
X164163571Y-101687380D01*
X165544523Y-102592142D02*
X165496904Y-102639761D01*
X165354047Y-102687380D01*
X165258809Y-102687380D01*
X165115952Y-102639761D01*
X165020714Y-102544523D01*
X164973095Y-102449285D01*
X164925476Y-102258809D01*
X164925476Y-102115952D01*
X164973095Y-101925476D01*
X165020714Y-101830238D01*
X165115952Y-101735000D01*
X165258809Y-101687380D01*
X165354047Y-101687380D01*
X165496904Y-101735000D01*
X165544523Y-101782619D01*
X166258809Y-101687380D02*
X166258809Y-102401666D01*
X166211190Y-102544523D01*
X166115952Y-102639761D01*
X165973095Y-102687380D01*
X165877857Y-102687380D01*
X167211190Y-102687380D02*
X166735000Y-102687380D01*
X166735000Y-101687380D01*
X168115952Y-102592142D02*
X168068333Y-102639761D01*
X167925476Y-102687380D01*
X167830238Y-102687380D01*
X167687380Y-102639761D01*
X167592142Y-102544523D01*
X167544523Y-102449285D01*
X167496904Y-102258809D01*
X167496904Y-102115952D01*
X167544523Y-101925476D01*
X167592142Y-101830238D01*
X167687380Y-101735000D01*
X167830238Y-101687380D01*
X167925476Y-101687380D01*
X168068333Y-101735000D01*
X168115952Y-101782619D01*
X168830238Y-101687380D02*
X168830238Y-102401666D01*
X168782619Y-102544523D01*
X168687380Y-102639761D01*
X168544523Y-102687380D01*
X168449285Y-102687380D01*
X169782619Y-102687380D02*
X169306428Y-102687380D01*
X169306428Y-101687380D01*
X170687380Y-102592142D02*
X170639761Y-102639761D01*
X170496904Y-102687380D01*
X170401666Y-102687380D01*
X170258809Y-102639761D01*
X170163571Y-102544523D01*
X170115952Y-102449285D01*
X170068333Y-102258809D01*
X170068333Y-102115952D01*
X170115952Y-101925476D01*
X170163571Y-101830238D01*
X170258809Y-101735000D01*
X170401666Y-101687380D01*
X170496904Y-101687380D01*
X170639761Y-101735000D01*
X170687380Y-101782619D01*
X162877904Y-92972380D02*
X162877904Y-91972380D01*
X163258857Y-91972380D01*
X163354095Y-92020000D01*
X163401714Y-92067619D01*
X163449333Y-92162857D01*
X163449333Y-92305714D01*
X163401714Y-92400952D01*
X163354095Y-92448571D01*
X163258857Y-92496190D01*
X162877904Y-92496190D01*
X163877904Y-92972380D02*
X163877904Y-91972380D01*
X165068380Y-92924761D02*
X165211238Y-92972380D01*
X165449333Y-92972380D01*
X165544571Y-92924761D01*
X165592190Y-92877142D01*
X165639809Y-92781904D01*
X165639809Y-92686666D01*
X165592190Y-92591428D01*
X165544571Y-92543809D01*
X165449333Y-92496190D01*
X165258857Y-92448571D01*
X165163619Y-92400952D01*
X165116000Y-92353333D01*
X165068380Y-92258095D01*
X165068380Y-92162857D01*
X165116000Y-92067619D01*
X165163619Y-92020000D01*
X165258857Y-91972380D01*
X165496952Y-91972380D01*
X165639809Y-92020000D01*
X165925523Y-91972380D02*
X166496952Y-91972380D01*
X166211238Y-92972380D02*
X166211238Y-91972380D01*
X166782666Y-92686666D02*
X167258857Y-92686666D01*
X166687428Y-92972380D02*
X167020761Y-91972380D01*
X167354095Y-92972380D01*
X167687428Y-92972380D02*
X167687428Y-91972380D01*
X168020761Y-92686666D01*
X168354095Y-91972380D01*
X168354095Y-92972380D01*
X168830285Y-92972380D02*
X168830285Y-91972380D01*
X169211238Y-91972380D01*
X169306476Y-92020000D01*
X169354095Y-92067619D01*
X169401714Y-92162857D01*
X169401714Y-92305714D01*
X169354095Y-92400952D01*
X169306476Y-92448571D01*
X169211238Y-92496190D01*
X168830285Y-92496190D01*
X164020761Y-94622380D02*
X163687428Y-94146190D01*
X163449333Y-94622380D02*
X163449333Y-93622380D01*
X163830285Y-93622380D01*
X163925523Y-93670000D01*
X163973142Y-93717619D01*
X164020761Y-93812857D01*
X164020761Y-93955714D01*
X163973142Y-94050952D01*
X163925523Y-94098571D01*
X163830285Y-94146190D01*
X163449333Y-94146190D01*
X164449333Y-94622380D02*
X164449333Y-93622380D01*
X164830285Y-93622380D01*
X164925523Y-93670000D01*
X164973142Y-93717619D01*
X165020761Y-93812857D01*
X165020761Y-93955714D01*
X164973142Y-94050952D01*
X164925523Y-94098571D01*
X164830285Y-94146190D01*
X164449333Y-94146190D01*
X165401714Y-93717619D02*
X165449333Y-93670000D01*
X165544571Y-93622380D01*
X165782666Y-93622380D01*
X165877904Y-93670000D01*
X165925523Y-93717619D01*
X165973142Y-93812857D01*
X165973142Y-93908095D01*
X165925523Y-94050952D01*
X165354095Y-94622380D01*
X165973142Y-94622380D01*
X166592190Y-93622380D02*
X166687428Y-93622380D01*
X166782666Y-93670000D01*
X166830285Y-93717619D01*
X166877904Y-93812857D01*
X166925523Y-94003333D01*
X166925523Y-94241428D01*
X166877904Y-94431904D01*
X166830285Y-94527142D01*
X166782666Y-94574761D01*
X166687428Y-94622380D01*
X166592190Y-94622380D01*
X166496952Y-94574761D01*
X166449333Y-94527142D01*
X166401714Y-94431904D01*
X166354095Y-94241428D01*
X166354095Y-94003333D01*
X166401714Y-93812857D01*
X166449333Y-93717619D01*
X166496952Y-93670000D01*
X166592190Y-93622380D01*
X167782666Y-93955714D02*
X167782666Y-94622380D01*
X167544571Y-93574761D02*
X167306476Y-94289047D01*
X167925523Y-94289047D01*
X168496952Y-93622380D02*
X168592190Y-93622380D01*
X168687428Y-93670000D01*
X168735047Y-93717619D01*
X168782666Y-93812857D01*
X168830285Y-94003333D01*
X168830285Y-94241428D01*
X168782666Y-94431904D01*
X168735047Y-94527142D01*
X168687428Y-94574761D01*
X168592190Y-94622380D01*
X168496952Y-94622380D01*
X168401714Y-94574761D01*
X168354095Y-94527142D01*
X168306476Y-94431904D01*
X168258857Y-94241428D01*
X168258857Y-94003333D01*
X168306476Y-93812857D01*
X168354095Y-93717619D01*
X168401714Y-93670000D01*
X168496952Y-93622380D01*
X169148571Y-73493380D02*
X169148571Y-74302904D01*
X169196190Y-74398142D01*
X169243809Y-74445761D01*
X169339047Y-74493380D01*
X169529523Y-74493380D01*
X169624761Y-74445761D01*
X169672380Y-74398142D01*
X169720000Y-74302904D01*
X169720000Y-73493380D01*
X170148571Y-74445761D02*
X170291428Y-74493380D01*
X170529523Y-74493380D01*
X170624761Y-74445761D01*
X170672380Y-74398142D01*
X170720000Y-74302904D01*
X170720000Y-74207666D01*
X170672380Y-74112428D01*
X170624761Y-74064809D01*
X170529523Y-74017190D01*
X170339047Y-73969571D01*
X170243809Y-73921952D01*
X170196190Y-73874333D01*
X170148571Y-73779095D01*
X170148571Y-73683857D01*
X170196190Y-73588619D01*
X170243809Y-73541000D01*
X170339047Y-73493380D01*
X170577142Y-73493380D01*
X170720000Y-73541000D01*
X171481904Y-73969571D02*
X171624761Y-74017190D01*
X171672380Y-74064809D01*
X171720000Y-74160047D01*
X171720000Y-74302904D01*
X171672380Y-74398142D01*
X171624761Y-74445761D01*
X171529523Y-74493380D01*
X171148571Y-74493380D01*
X171148571Y-73493380D01*
X171481904Y-73493380D01*
X171577142Y-73541000D01*
X171624761Y-73588619D01*
X171672380Y-73683857D01*
X171672380Y-73779095D01*
X171624761Y-73874333D01*
X171577142Y-73921952D01*
X171481904Y-73969571D01*
X171148571Y-73969571D01*
X173243809Y-73969571D02*
X173386666Y-74017190D01*
X173434285Y-74064809D01*
X173481904Y-74160047D01*
X173481904Y-74302904D01*
X173434285Y-74398142D01*
X173386666Y-74445761D01*
X173291428Y-74493380D01*
X172910476Y-74493380D01*
X172910476Y-73493380D01*
X173243809Y-73493380D01*
X173339047Y-73541000D01*
X173386666Y-73588619D01*
X173434285Y-73683857D01*
X173434285Y-73779095D01*
X173386666Y-73874333D01*
X173339047Y-73921952D01*
X173243809Y-73969571D01*
X172910476Y-73969571D01*
X174100952Y-73493380D02*
X174291428Y-73493380D01*
X174386666Y-73541000D01*
X174481904Y-73636238D01*
X174529523Y-73826714D01*
X174529523Y-74160047D01*
X174481904Y-74350523D01*
X174386666Y-74445761D01*
X174291428Y-74493380D01*
X174100952Y-74493380D01*
X174005714Y-74445761D01*
X173910476Y-74350523D01*
X173862857Y-74160047D01*
X173862857Y-73826714D01*
X173910476Y-73636238D01*
X174005714Y-73541000D01*
X174100952Y-73493380D01*
X175148571Y-73493380D02*
X175339047Y-73493380D01*
X175434285Y-73541000D01*
X175529523Y-73636238D01*
X175577142Y-73826714D01*
X175577142Y-74160047D01*
X175529523Y-74350523D01*
X175434285Y-74445761D01*
X175339047Y-74493380D01*
X175148571Y-74493380D01*
X175053333Y-74445761D01*
X174958095Y-74350523D01*
X174910476Y-74160047D01*
X174910476Y-73826714D01*
X174958095Y-73636238D01*
X175053333Y-73541000D01*
X175148571Y-73493380D01*
X175862857Y-73493380D02*
X176434285Y-73493380D01*
X176148571Y-74493380D02*
X176148571Y-73493380D01*
X129190714Y-68651380D02*
X128619285Y-68651380D01*
X128905000Y-68651380D02*
X128905000Y-67651380D01*
X128809761Y-67794238D01*
X128714523Y-67889476D01*
X128619285Y-67937095D01*
X162377619Y-71191380D02*
X162044285Y-70715190D01*
X161806190Y-71191380D02*
X161806190Y-70191380D01*
X162187142Y-70191380D01*
X162282380Y-70239000D01*
X162330000Y-70286619D01*
X162377619Y-70381857D01*
X162377619Y-70524714D01*
X162330000Y-70619952D01*
X162282380Y-70667571D01*
X162187142Y-70715190D01*
X161806190Y-70715190D01*
X162806190Y-70667571D02*
X163139523Y-70667571D01*
X163282380Y-71191380D02*
X162806190Y-71191380D01*
X162806190Y-70191380D01*
X163282380Y-70191380D01*
X163663333Y-71143761D02*
X163806190Y-71191380D01*
X164044285Y-71191380D01*
X164139523Y-71143761D01*
X164187142Y-71096142D01*
X164234761Y-71000904D01*
X164234761Y-70905666D01*
X164187142Y-70810428D01*
X164139523Y-70762809D01*
X164044285Y-70715190D01*
X163853809Y-70667571D01*
X163758571Y-70619952D01*
X163710952Y-70572333D01*
X163663333Y-70477095D01*
X163663333Y-70381857D01*
X163710952Y-70286619D01*
X163758571Y-70239000D01*
X163853809Y-70191380D01*
X164091904Y-70191380D01*
X164234761Y-70239000D01*
X164663333Y-70667571D02*
X164996666Y-70667571D01*
X165139523Y-71191380D02*
X164663333Y-71191380D01*
X164663333Y-70191380D01*
X165139523Y-70191380D01*
X165425238Y-70191380D02*
X165996666Y-70191380D01*
X165710952Y-71191380D02*
X165710952Y-70191380D01*
D12*
G36*
X162572744Y-77484918D02*
G01*
X162628201Y-77512568D01*
X162677148Y-77563480D01*
X162690629Y-77582338D01*
X162705314Y-77607015D01*
X162714842Y-77633816D01*
X162720293Y-77669587D01*
X162722747Y-77721169D01*
X162723286Y-77789267D01*
X162720852Y-77882588D01*
X162712394Y-77952657D01*
X162696174Y-78004931D01*
X162670454Y-78044869D01*
X162633497Y-78077929D01*
X162630782Y-78079886D01*
X162594360Y-78099908D01*
X162550502Y-78109815D01*
X162494724Y-78112257D01*
X162404048Y-78112257D01*
X162404010Y-78200283D01*
X162403166Y-78249308D01*
X162398024Y-78278065D01*
X162384587Y-78295311D01*
X162358858Y-78309808D01*
X162352679Y-78312769D01*
X162323764Y-78326648D01*
X162301376Y-78335414D01*
X162284729Y-78336171D01*
X162273036Y-78326023D01*
X162265510Y-78302073D01*
X162261366Y-78261426D01*
X162259815Y-78201186D01*
X162260071Y-78118455D01*
X162261349Y-78010339D01*
X162261748Y-77978000D01*
X162263185Y-77866524D01*
X162264472Y-77793603D01*
X162403971Y-77793603D01*
X162404755Y-77855499D01*
X162408240Y-77895997D01*
X162416124Y-77922708D01*
X162430105Y-77943244D01*
X162439597Y-77953260D01*
X162478404Y-77982567D01*
X162512763Y-77984952D01*
X162548216Y-77960750D01*
X162549114Y-77959857D01*
X162563539Y-77941153D01*
X162572313Y-77915732D01*
X162576739Y-77876584D01*
X162578118Y-77816697D01*
X162578143Y-77803430D01*
X162574812Y-77720901D01*
X162563969Y-77663691D01*
X162544340Y-77628766D01*
X162514650Y-77613094D01*
X162497491Y-77611514D01*
X162456766Y-77618926D01*
X162428832Y-77643330D01*
X162412017Y-77687980D01*
X162404650Y-77756130D01*
X162403971Y-77793603D01*
X162264472Y-77793603D01*
X162264708Y-77780245D01*
X162266677Y-77715333D01*
X162269450Y-77667958D01*
X162273388Y-77634290D01*
X162278849Y-77610498D01*
X162286192Y-77592753D01*
X162295777Y-77577224D01*
X162299887Y-77571381D01*
X162354405Y-77516185D01*
X162423336Y-77484890D01*
X162503072Y-77476165D01*
X162572744Y-77484918D01*
G37*
X162572744Y-77484918D02*
X162628201Y-77512568D01*
X162677148Y-77563480D01*
X162690629Y-77582338D01*
X162705314Y-77607015D01*
X162714842Y-77633816D01*
X162720293Y-77669587D01*
X162722747Y-77721169D01*
X162723286Y-77789267D01*
X162720852Y-77882588D01*
X162712394Y-77952657D01*
X162696174Y-78004931D01*
X162670454Y-78044869D01*
X162633497Y-78077929D01*
X162630782Y-78079886D01*
X162594360Y-78099908D01*
X162550502Y-78109815D01*
X162494724Y-78112257D01*
X162404048Y-78112257D01*
X162404010Y-78200283D01*
X162403166Y-78249308D01*
X162398024Y-78278065D01*
X162384587Y-78295311D01*
X162358858Y-78309808D01*
X162352679Y-78312769D01*
X162323764Y-78326648D01*
X162301376Y-78335414D01*
X162284729Y-78336171D01*
X162273036Y-78326023D01*
X162265510Y-78302073D01*
X162261366Y-78261426D01*
X162259815Y-78201186D01*
X162260071Y-78118455D01*
X162261349Y-78010339D01*
X162261748Y-77978000D01*
X162263185Y-77866524D01*
X162264472Y-77793603D01*
X162403971Y-77793603D01*
X162404755Y-77855499D01*
X162408240Y-77895997D01*
X162416124Y-77922708D01*
X162430105Y-77943244D01*
X162439597Y-77953260D01*
X162478404Y-77982567D01*
X162512763Y-77984952D01*
X162548216Y-77960750D01*
X162549114Y-77959857D01*
X162563539Y-77941153D01*
X162572313Y-77915732D01*
X162576739Y-77876584D01*
X162578118Y-77816697D01*
X162578143Y-77803430D01*
X162574812Y-77720901D01*
X162563969Y-77663691D01*
X162544340Y-77628766D01*
X162514650Y-77613094D01*
X162497491Y-77611514D01*
X162456766Y-77618926D01*
X162428832Y-77643330D01*
X162412017Y-77687980D01*
X162404650Y-77756130D01*
X162403971Y-77793603D01*
X162264472Y-77793603D01*
X162264708Y-77780245D01*
X162266677Y-77715333D01*
X162269450Y-77667958D01*
X162273388Y-77634290D01*
X162278849Y-77610498D01*
X162286192Y-77592753D01*
X162295777Y-77577224D01*
X162299887Y-77571381D01*
X162354405Y-77516185D01*
X162423336Y-77484890D01*
X162503072Y-77476165D01*
X162572744Y-77484918D01*
G36*
X163689093Y-77492780D02*
G01*
X163735672Y-77519723D01*
X163768057Y-77546466D01*
X163791742Y-77574484D01*
X163808059Y-77608748D01*
X163818339Y-77654227D01*
X163823914Y-77715892D01*
X163826116Y-77798711D01*
X163826371Y-77858246D01*
X163826371Y-78077391D01*
X163764686Y-78105044D01*
X163703000Y-78132697D01*
X163695743Y-77892670D01*
X163692744Y-77803028D01*
X163689598Y-77737962D01*
X163685701Y-77693026D01*
X163680447Y-77663770D01*
X163673231Y-77645748D01*
X163663450Y-77634511D01*
X163660312Y-77632079D01*
X163612761Y-77613083D01*
X163564697Y-77620600D01*
X163536086Y-77640543D01*
X163524447Y-77654675D01*
X163516391Y-77673220D01*
X163511271Y-77701334D01*
X163508441Y-77744173D01*
X163507256Y-77806895D01*
X163507057Y-77872261D01*
X163507018Y-77954268D01*
X163505614Y-78012316D01*
X163500914Y-78051465D01*
X163490987Y-78076780D01*
X163473903Y-78093323D01*
X163447732Y-78106156D01*
X163412775Y-78119491D01*
X163374596Y-78134007D01*
X163379141Y-77876389D01*
X163380971Y-77783519D01*
X163383112Y-77714889D01*
X163386181Y-77665711D01*
X163390794Y-77631198D01*
X163397568Y-77606562D01*
X163407119Y-77587016D01*
X163418634Y-77569770D01*
X163474190Y-77514680D01*
X163541980Y-77482822D01*
X163615713Y-77475191D01*
X163689093Y-77492780D01*
G37*
X163689093Y-77492780D02*
X163735672Y-77519723D01*
X163768057Y-77546466D01*
X163791742Y-77574484D01*
X163808059Y-77608748D01*
X163818339Y-77654227D01*
X163823914Y-77715892D01*
X163826116Y-77798711D01*
X163826371Y-77858246D01*
X163826371Y-78077391D01*
X163764686Y-78105044D01*
X163703000Y-78132697D01*
X163695743Y-77892670D01*
X163692744Y-77803028D01*
X163689598Y-77737962D01*
X163685701Y-77693026D01*
X163680447Y-77663770D01*
X163673231Y-77645748D01*
X163663450Y-77634511D01*
X163660312Y-77632079D01*
X163612761Y-77613083D01*
X163564697Y-77620600D01*
X163536086Y-77640543D01*
X163524447Y-77654675D01*
X163516391Y-77673220D01*
X163511271Y-77701334D01*
X163508441Y-77744173D01*
X163507256Y-77806895D01*
X163507057Y-77872261D01*
X163507018Y-77954268D01*
X163505614Y-78012316D01*
X163500914Y-78051465D01*
X163490987Y-78076780D01*
X163473903Y-78093323D01*
X163447732Y-78106156D01*
X163412775Y-78119491D01*
X163374596Y-78134007D01*
X163379141Y-77876389D01*
X163380971Y-77783519D01*
X163383112Y-77714889D01*
X163386181Y-77665711D01*
X163390794Y-77631198D01*
X163397568Y-77606562D01*
X163407119Y-77587016D01*
X163418634Y-77569770D01*
X163474190Y-77514680D01*
X163541980Y-77482822D01*
X163615713Y-77475191D01*
X163689093Y-77492780D01*
G36*
X162014115Y-77486962D02*
G01*
X162082145Y-77522733D01*
X162132351Y-77580301D01*
X162150185Y-77617312D01*
X162164063Y-77672882D01*
X162171167Y-77743096D01*
X162171840Y-77819727D01*
X162166427Y-77894552D01*
X162155270Y-77959342D01*
X162138714Y-78005873D01*
X162133626Y-78013887D01*
X162073355Y-78073707D01*
X162001769Y-78109535D01*
X161924092Y-78120020D01*
X161845548Y-78103810D01*
X161823689Y-78094092D01*
X161781122Y-78064143D01*
X161743763Y-78024433D01*
X161740232Y-78019397D01*
X161725881Y-77995124D01*
X161716394Y-77969178D01*
X161710790Y-77935022D01*
X161708086Y-77886119D01*
X161707299Y-77815935D01*
X161707286Y-77800200D01*
X161707322Y-77795192D01*
X161852429Y-77795192D01*
X161853273Y-77861430D01*
X161856596Y-77905386D01*
X161863583Y-77933779D01*
X161875416Y-77953325D01*
X161881457Y-77959857D01*
X161916186Y-77984680D01*
X161949903Y-77983548D01*
X161983995Y-77962016D01*
X162004329Y-77939029D01*
X162016371Y-77905478D01*
X162023134Y-77852569D01*
X162023598Y-77846399D01*
X162024752Y-77750513D01*
X162012688Y-77679299D01*
X161987570Y-77633194D01*
X161949560Y-77612635D01*
X161935992Y-77611514D01*
X161900364Y-77617152D01*
X161875994Y-77636686D01*
X161861093Y-77674042D01*
X161853875Y-77733150D01*
X161852429Y-77795192D01*
X161707322Y-77795192D01*
X161707826Y-77725413D01*
X161710096Y-77673159D01*
X161715068Y-77636949D01*
X161723713Y-77610299D01*
X161737005Y-77586722D01*
X161739943Y-77582338D01*
X161789313Y-77523249D01*
X161843109Y-77488947D01*
X161908602Y-77475331D01*
X161930842Y-77474665D01*
X162014115Y-77486962D01*
G37*
X162014115Y-77486962D02*
X162082145Y-77522733D01*
X162132351Y-77580301D01*
X162150185Y-77617312D01*
X162164063Y-77672882D01*
X162171167Y-77743096D01*
X162171840Y-77819727D01*
X162166427Y-77894552D01*
X162155270Y-77959342D01*
X162138714Y-78005873D01*
X162133626Y-78013887D01*
X162073355Y-78073707D01*
X162001769Y-78109535D01*
X161924092Y-78120020D01*
X161845548Y-78103810D01*
X161823689Y-78094092D01*
X161781122Y-78064143D01*
X161743763Y-78024433D01*
X161740232Y-78019397D01*
X161725881Y-77995124D01*
X161716394Y-77969178D01*
X161710790Y-77935022D01*
X161708086Y-77886119D01*
X161707299Y-77815935D01*
X161707286Y-77800200D01*
X161707322Y-77795192D01*
X161852429Y-77795192D01*
X161853273Y-77861430D01*
X161856596Y-77905386D01*
X161863583Y-77933779D01*
X161875416Y-77953325D01*
X161881457Y-77959857D01*
X161916186Y-77984680D01*
X161949903Y-77983548D01*
X161983995Y-77962016D01*
X162004329Y-77939029D01*
X162016371Y-77905478D01*
X162023134Y-77852569D01*
X162023598Y-77846399D01*
X162024752Y-77750513D01*
X162012688Y-77679299D01*
X161987570Y-77633194D01*
X161949560Y-77612635D01*
X161935992Y-77611514D01*
X161900364Y-77617152D01*
X161875994Y-77636686D01*
X161861093Y-77674042D01*
X161853875Y-77733150D01*
X161852429Y-77795192D01*
X161707322Y-77795192D01*
X161707826Y-77725413D01*
X161710096Y-77673159D01*
X161715068Y-77636949D01*
X161723713Y-77610299D01*
X161737005Y-77586722D01*
X161739943Y-77582338D01*
X161789313Y-77523249D01*
X161843109Y-77488947D01*
X161908602Y-77475331D01*
X161930842Y-77474665D01*
X162014115Y-77486962D01*
G36*
X163141303Y-77496239D02*
G01*
X163198527Y-77534735D01*
X163242749Y-77590335D01*
X163269167Y-77661086D01*
X163274510Y-77713162D01*
X163273903Y-77734893D01*
X163268822Y-77751531D01*
X163254855Y-77766437D01*
X163227589Y-77782973D01*
X163182612Y-77804498D01*
X163115511Y-77834374D01*
X163115171Y-77834524D01*
X163053407Y-77862813D01*
X163002759Y-77887933D01*
X162968404Y-77907179D01*
X162955518Y-77917848D01*
X162955514Y-77917934D01*
X162966872Y-77941166D01*
X162993431Y-77966774D01*
X163023923Y-77985221D01*
X163039370Y-77988886D01*
X163081515Y-77976212D01*
X163117808Y-77944471D01*
X163135517Y-77909572D01*
X163152552Y-77883845D01*
X163185922Y-77854546D01*
X163225149Y-77829235D01*
X163259756Y-77815471D01*
X163266993Y-77814714D01*
X163275139Y-77827160D01*
X163275630Y-77858972D01*
X163269643Y-77901866D01*
X163258357Y-77947558D01*
X163242950Y-77987761D01*
X163242171Y-77989322D01*
X163195804Y-78054062D01*
X163135711Y-78098097D01*
X163067465Y-78119711D01*
X162996638Y-78117185D01*
X162928804Y-78088804D01*
X162925788Y-78086808D01*
X162872427Y-78038448D01*
X162837340Y-77975352D01*
X162817922Y-77892387D01*
X162815316Y-77869078D01*
X162810701Y-77759055D01*
X162816233Y-77707748D01*
X162955514Y-77707748D01*
X162957324Y-77739753D01*
X162967222Y-77749093D01*
X162991898Y-77742105D01*
X163030795Y-77725587D01*
X163074275Y-77704881D01*
X163075356Y-77704333D01*
X163112209Y-77684949D01*
X163127000Y-77672013D01*
X163123353Y-77658451D01*
X163107995Y-77640632D01*
X163068923Y-77614845D01*
X163026846Y-77612950D01*
X162989103Y-77631717D01*
X162963034Y-77667915D01*
X162955514Y-77707748D01*
X162816233Y-77707748D01*
X162820194Y-77671027D01*
X162844550Y-77601212D01*
X162878456Y-77552302D01*
X162939653Y-77502878D01*
X163007063Y-77478359D01*
X163075880Y-77476797D01*
X163141303Y-77496239D01*
G37*
X163141303Y-77496239D02*
X163198527Y-77534735D01*
X163242749Y-77590335D01*
X163269167Y-77661086D01*
X163274510Y-77713162D01*
X163273903Y-77734893D01*
X163268822Y-77751531D01*
X163254855Y-77766437D01*
X163227589Y-77782973D01*
X163182612Y-77804498D01*
X163115511Y-77834374D01*
X163115171Y-77834524D01*
X163053407Y-77862813D01*
X163002759Y-77887933D01*
X162968404Y-77907179D01*
X162955518Y-77917848D01*
X162955514Y-77917934D01*
X162966872Y-77941166D01*
X162993431Y-77966774D01*
X163023923Y-77985221D01*
X163039370Y-77988886D01*
X163081515Y-77976212D01*
X163117808Y-77944471D01*
X163135517Y-77909572D01*
X163152552Y-77883845D01*
X163185922Y-77854546D01*
X163225149Y-77829235D01*
X163259756Y-77815471D01*
X163266993Y-77814714D01*
X163275139Y-77827160D01*
X163275630Y-77858972D01*
X163269643Y-77901866D01*
X163258357Y-77947558D01*
X163242950Y-77987761D01*
X163242171Y-77989322D01*
X163195804Y-78054062D01*
X163135711Y-78098097D01*
X163067465Y-78119711D01*
X162996638Y-78117185D01*
X162928804Y-78088804D01*
X162925788Y-78086808D01*
X162872427Y-78038448D01*
X162837340Y-77975352D01*
X162817922Y-77892387D01*
X162815316Y-77869078D01*
X162810701Y-77759055D01*
X162816233Y-77707748D01*
X162955514Y-77707748D01*
X162957324Y-77739753D01*
X162967222Y-77749093D01*
X162991898Y-77742105D01*
X163030795Y-77725587D01*
X163074275Y-77704881D01*
X163075356Y-77704333D01*
X163112209Y-77684949D01*
X163127000Y-77672013D01*
X163123353Y-77658451D01*
X163107995Y-77640632D01*
X163068923Y-77614845D01*
X163026846Y-77612950D01*
X162989103Y-77631717D01*
X162963034Y-77667915D01*
X162955514Y-77707748D01*
X162816233Y-77707748D01*
X162820194Y-77671027D01*
X162844550Y-77601212D01*
X162878456Y-77552302D01*
X162939653Y-77502878D01*
X163007063Y-77478359D01*
X163075880Y-77476797D01*
X163141303Y-77496239D01*
G36*
X164348886Y-77416289D02*
G01*
X164353139Y-77475613D01*
X164358025Y-77510572D01*
X164364795Y-77525820D01*
X164374702Y-77526015D01*
X164377914Y-77524195D01*
X164420644Y-77511015D01*
X164476227Y-77511785D01*
X164532737Y-77525333D01*
X164568082Y-77542861D01*
X164604321Y-77570861D01*
X164630813Y-77602549D01*
X164648999Y-77642813D01*
X164660322Y-77696543D01*
X164666222Y-77768626D01*
X164668143Y-77863951D01*
X164668177Y-77882237D01*
X164668200Y-78087646D01*
X164622491Y-78103580D01*
X164590027Y-78114420D01*
X164572215Y-78119468D01*
X164571691Y-78119514D01*
X164569937Y-78105828D01*
X164568444Y-78068076D01*
X164567326Y-78011224D01*
X164566697Y-77940234D01*
X164566600Y-77897073D01*
X164566398Y-77811973D01*
X164565358Y-77750981D01*
X164562831Y-77709177D01*
X164558164Y-77681642D01*
X164550707Y-77663456D01*
X164539811Y-77649698D01*
X164533007Y-77643073D01*
X164486272Y-77616375D01*
X164435272Y-77614375D01*
X164389001Y-77636955D01*
X164380444Y-77645107D01*
X164367893Y-77660436D01*
X164359188Y-77678618D01*
X164353631Y-77704909D01*
X164350526Y-77744562D01*
X164349176Y-77802832D01*
X164348886Y-77883173D01*
X164348886Y-78087646D01*
X164303177Y-78103580D01*
X164270713Y-78114420D01*
X164252901Y-78119468D01*
X164252377Y-78119514D01*
X164251037Y-78105623D01*
X164249828Y-78066439D01*
X164248801Y-78005700D01*
X164248002Y-77927141D01*
X164247481Y-77834498D01*
X164247286Y-77731509D01*
X164247286Y-77334342D01*
X164294457Y-77314444D01*
X164341629Y-77294547D01*
X164348886Y-77416289D01*
G37*
X164348886Y-77416289D02*
X164353139Y-77475613D01*
X164358025Y-77510572D01*
X164364795Y-77525820D01*
X164374702Y-77526015D01*
X164377914Y-77524195D01*
X164420644Y-77511015D01*
X164476227Y-77511785D01*
X164532737Y-77525333D01*
X164568082Y-77542861D01*
X164604321Y-77570861D01*
X164630813Y-77602549D01*
X164648999Y-77642813D01*
X164660322Y-77696543D01*
X164666222Y-77768626D01*
X164668143Y-77863951D01*
X164668177Y-77882237D01*
X164668200Y-78087646D01*
X164622491Y-78103580D01*
X164590027Y-78114420D01*
X164572215Y-78119468D01*
X164571691Y-78119514D01*
X164569937Y-78105828D01*
X164568444Y-78068076D01*
X164567326Y-78011224D01*
X164566697Y-77940234D01*
X164566600Y-77897073D01*
X164566398Y-77811973D01*
X164565358Y-77750981D01*
X164562831Y-77709177D01*
X164558164Y-77681642D01*
X164550707Y-77663456D01*
X164539811Y-77649698D01*
X164533007Y-77643073D01*
X164486272Y-77616375D01*
X164435272Y-77614375D01*
X164389001Y-77636955D01*
X164380444Y-77645107D01*
X164367893Y-77660436D01*
X164359188Y-77678618D01*
X164353631Y-77704909D01*
X164350526Y-77744562D01*
X164349176Y-77802832D01*
X164348886Y-77883173D01*
X164348886Y-78087646D01*
X164303177Y-78103580D01*
X164270713Y-78114420D01*
X164252901Y-78119468D01*
X164252377Y-78119514D01*
X164251037Y-78105623D01*
X164249828Y-78066439D01*
X164248801Y-78005700D01*
X164248002Y-77927141D01*
X164247481Y-77834498D01*
X164247286Y-77731509D01*
X164247286Y-77334342D01*
X164294457Y-77314444D01*
X164341629Y-77294547D01*
X164348886Y-77416289D01*
G36*
X165012744Y-77515968D02*
G01*
X165069616Y-77537087D01*
X165070267Y-77537493D01*
X165105440Y-77563380D01*
X165131407Y-77593633D01*
X165149670Y-77633058D01*
X165161732Y-77686462D01*
X165169096Y-77758651D01*
X165173264Y-77854432D01*
X165173629Y-77868078D01*
X165178876Y-78073842D01*
X165134716Y-78096678D01*
X165102763Y-78112110D01*
X165083470Y-78119423D01*
X165082578Y-78119514D01*
X165079239Y-78106022D01*
X165076587Y-78069626D01*
X165074956Y-78016452D01*
X165074600Y-77973393D01*
X165074592Y-77903641D01*
X165071403Y-77859837D01*
X165060288Y-77838944D01*
X165036501Y-77837925D01*
X164995296Y-77853741D01*
X164933086Y-77882815D01*
X164887341Y-77906963D01*
X164863813Y-77927913D01*
X164856896Y-77950747D01*
X164856886Y-77951877D01*
X164868299Y-77991212D01*
X164902092Y-78012462D01*
X164953809Y-78015539D01*
X164991061Y-78015006D01*
X165010703Y-78025735D01*
X165022952Y-78051505D01*
X165030002Y-78084337D01*
X165019842Y-78102966D01*
X165016017Y-78105632D01*
X164980001Y-78116340D01*
X164929566Y-78117856D01*
X164877626Y-78110759D01*
X164840822Y-78097788D01*
X164789938Y-78054585D01*
X164761014Y-77994446D01*
X164755286Y-77947462D01*
X164759657Y-77905082D01*
X164775475Y-77870488D01*
X164806797Y-77839763D01*
X164857678Y-77808990D01*
X164932176Y-77774252D01*
X164936714Y-77772288D01*
X165003821Y-77741287D01*
X165045232Y-77715862D01*
X165062981Y-77693014D01*
X165059107Y-77669745D01*
X165035643Y-77643056D01*
X165028627Y-77636914D01*
X164981630Y-77613100D01*
X164932933Y-77614103D01*
X164890522Y-77637451D01*
X164862384Y-77680675D01*
X164859769Y-77689160D01*
X164834308Y-77730308D01*
X164802001Y-77750128D01*
X164755286Y-77769770D01*
X164755286Y-77718950D01*
X164769496Y-77645082D01*
X164811675Y-77577327D01*
X164833624Y-77554661D01*
X164883517Y-77525569D01*
X164946967Y-77512400D01*
X165012744Y-77515968D01*
G37*
X165012744Y-77515968D02*
X165069616Y-77537087D01*
X165070267Y-77537493D01*
X165105440Y-77563380D01*
X165131407Y-77593633D01*
X165149670Y-77633058D01*
X165161732Y-77686462D01*
X165169096Y-77758651D01*
X165173264Y-77854432D01*
X165173629Y-77868078D01*
X165178876Y-78073842D01*
X165134716Y-78096678D01*
X165102763Y-78112110D01*
X165083470Y-78119423D01*
X165082578Y-78119514D01*
X165079239Y-78106022D01*
X165076587Y-78069626D01*
X165074956Y-78016452D01*
X165074600Y-77973393D01*
X165074592Y-77903641D01*
X165071403Y-77859837D01*
X165060288Y-77838944D01*
X165036501Y-77837925D01*
X164995296Y-77853741D01*
X164933086Y-77882815D01*
X164887341Y-77906963D01*
X164863813Y-77927913D01*
X164856896Y-77950747D01*
X164856886Y-77951877D01*
X164868299Y-77991212D01*
X164902092Y-78012462D01*
X164953809Y-78015539D01*
X164991061Y-78015006D01*
X165010703Y-78025735D01*
X165022952Y-78051505D01*
X165030002Y-78084337D01*
X165019842Y-78102966D01*
X165016017Y-78105632D01*
X164980001Y-78116340D01*
X164929566Y-78117856D01*
X164877626Y-78110759D01*
X164840822Y-78097788D01*
X164789938Y-78054585D01*
X164761014Y-77994446D01*
X164755286Y-77947462D01*
X164759657Y-77905082D01*
X164775475Y-77870488D01*
X164806797Y-77839763D01*
X164857678Y-77808990D01*
X164932176Y-77774252D01*
X164936714Y-77772288D01*
X165003821Y-77741287D01*
X165045232Y-77715862D01*
X165062981Y-77693014D01*
X165059107Y-77669745D01*
X165035643Y-77643056D01*
X165028627Y-77636914D01*
X164981630Y-77613100D01*
X164932933Y-77614103D01*
X164890522Y-77637451D01*
X164862384Y-77680675D01*
X164859769Y-77689160D01*
X164834308Y-77730308D01*
X164802001Y-77750128D01*
X164755286Y-77769770D01*
X164755286Y-77718950D01*
X164769496Y-77645082D01*
X164811675Y-77577327D01*
X164833624Y-77554661D01*
X164883517Y-77525569D01*
X164946967Y-77512400D01*
X165012744Y-77515968D01*
G36*
X165502926Y-77514755D02*
G01*
X165568858Y-77539084D01*
X165622273Y-77582117D01*
X165643164Y-77612409D01*
X165665939Y-77667994D01*
X165665466Y-77708186D01*
X165641562Y-77735217D01*
X165632717Y-77739813D01*
X165594530Y-77754144D01*
X165575028Y-77750472D01*
X165568422Y-77726407D01*
X165568086Y-77713114D01*
X165555992Y-77664210D01*
X165524471Y-77629999D01*
X165480659Y-77613476D01*
X165431695Y-77617634D01*
X165391894Y-77639227D01*
X165378450Y-77651544D01*
X165368921Y-77666487D01*
X165362485Y-77689075D01*
X165358317Y-77724328D01*
X165355597Y-77777266D01*
X165353502Y-77852907D01*
X165352960Y-77876857D01*
X165350981Y-77958790D01*
X165348731Y-78016455D01*
X165345357Y-78054608D01*
X165340006Y-78078004D01*
X165331824Y-78091398D01*
X165319959Y-78099545D01*
X165312362Y-78103144D01*
X165280102Y-78115452D01*
X165261111Y-78119514D01*
X165254836Y-78105948D01*
X165251006Y-78064934D01*
X165249600Y-77995999D01*
X165250598Y-77898669D01*
X165250908Y-77883657D01*
X165253101Y-77794859D01*
X165255693Y-77730019D01*
X165259382Y-77684067D01*
X165264864Y-77651935D01*
X165272835Y-77628553D01*
X165283993Y-77608852D01*
X165289830Y-77600410D01*
X165323296Y-77563057D01*
X165360727Y-77534003D01*
X165365309Y-77531467D01*
X165432426Y-77511443D01*
X165502926Y-77514755D01*
G37*
X165502926Y-77514755D02*
X165568858Y-77539084D01*
X165622273Y-77582117D01*
X165643164Y-77612409D01*
X165665939Y-77667994D01*
X165665466Y-77708186D01*
X165641562Y-77735217D01*
X165632717Y-77739813D01*
X165594530Y-77754144D01*
X165575028Y-77750472D01*
X165568422Y-77726407D01*
X165568086Y-77713114D01*
X165555992Y-77664210D01*
X165524471Y-77629999D01*
X165480659Y-77613476D01*
X165431695Y-77617634D01*
X165391894Y-77639227D01*
X165378450Y-77651544D01*
X165368921Y-77666487D01*
X165362485Y-77689075D01*
X165358317Y-77724328D01*
X165355597Y-77777266D01*
X165353502Y-77852907D01*
X165352960Y-77876857D01*
X165350981Y-77958790D01*
X165348731Y-78016455D01*
X165345357Y-78054608D01*
X165340006Y-78078004D01*
X165331824Y-78091398D01*
X165319959Y-78099545D01*
X165312362Y-78103144D01*
X165280102Y-78115452D01*
X165261111Y-78119514D01*
X165254836Y-78105948D01*
X165251006Y-78064934D01*
X165249600Y-77995999D01*
X165250598Y-77898669D01*
X165250908Y-77883657D01*
X165253101Y-77794859D01*
X165255693Y-77730019D01*
X165259382Y-77684067D01*
X165264864Y-77651935D01*
X165272835Y-77628553D01*
X165283993Y-77608852D01*
X165289830Y-77600410D01*
X165323296Y-77563057D01*
X165360727Y-77534003D01*
X165365309Y-77531467D01*
X165432426Y-77511443D01*
X165502926Y-77514755D01*
G36*
X166163117Y-77630358D02*
G01*
X166162933Y-77738837D01*
X166162219Y-77822287D01*
X166160675Y-77884704D01*
X166158001Y-77930085D01*
X166153894Y-77962429D01*
X166148055Y-77985733D01*
X166140182Y-78003995D01*
X166134221Y-78014418D01*
X166084855Y-78070945D01*
X166022264Y-78106377D01*
X165953013Y-78119090D01*
X165883668Y-78107463D01*
X165842375Y-78086568D01*
X165799025Y-78050422D01*
X165769481Y-78006276D01*
X165751655Y-77948462D01*
X165743463Y-77871313D01*
X165742302Y-77814714D01*
X165742458Y-77810647D01*
X165843857Y-77810647D01*
X165844476Y-77875550D01*
X165847314Y-77918514D01*
X165853840Y-77946622D01*
X165865523Y-77966953D01*
X165879483Y-77982288D01*
X165926365Y-78011890D01*
X165976701Y-78014419D01*
X166024276Y-77989705D01*
X166027979Y-77986356D01*
X166043783Y-77968935D01*
X166053693Y-77948209D01*
X166059058Y-77917362D01*
X166061228Y-77869577D01*
X166061571Y-77816748D01*
X166060827Y-77750381D01*
X166057748Y-77706106D01*
X166051061Y-77677009D01*
X166039496Y-77656173D01*
X166030013Y-77645107D01*
X165985960Y-77617198D01*
X165935224Y-77613843D01*
X165886796Y-77635159D01*
X165877450Y-77643073D01*
X165861540Y-77660647D01*
X165851610Y-77681587D01*
X165846278Y-77712782D01*
X165844163Y-77761122D01*
X165843857Y-77810647D01*
X165742458Y-77810647D01*
X165745810Y-77723568D01*
X165757726Y-77655086D01*
X165780135Y-77603600D01*
X165815124Y-77563443D01*
X165842375Y-77542861D01*
X165891907Y-77520625D01*
X165949316Y-77510304D01*
X166002682Y-77513067D01*
X166032543Y-77524212D01*
X166044261Y-77527383D01*
X166052037Y-77515557D01*
X166057465Y-77483866D01*
X166061571Y-77435593D01*
X166066067Y-77381829D01*
X166072313Y-77349482D01*
X166083676Y-77330985D01*
X166103528Y-77318770D01*
X166116000Y-77313362D01*
X166163171Y-77293601D01*
X166163117Y-77630358D01*
G37*
X166163117Y-77630358D02*
X166162933Y-77738837D01*
X166162219Y-77822287D01*
X166160675Y-77884704D01*
X166158001Y-77930085D01*
X166153894Y-77962429D01*
X166148055Y-77985733D01*
X166140182Y-78003995D01*
X166134221Y-78014418D01*
X166084855Y-78070945D01*
X166022264Y-78106377D01*
X165953013Y-78119090D01*
X165883668Y-78107463D01*
X165842375Y-78086568D01*
X165799025Y-78050422D01*
X165769481Y-78006276D01*
X165751655Y-77948462D01*
X165743463Y-77871313D01*
X165742302Y-77814714D01*
X165742458Y-77810647D01*
X165843857Y-77810647D01*
X165844476Y-77875550D01*
X165847314Y-77918514D01*
X165853840Y-77946622D01*
X165865523Y-77966953D01*
X165879483Y-77982288D01*
X165926365Y-78011890D01*
X165976701Y-78014419D01*
X166024276Y-77989705D01*
X166027979Y-77986356D01*
X166043783Y-77968935D01*
X166053693Y-77948209D01*
X166059058Y-77917362D01*
X166061228Y-77869577D01*
X166061571Y-77816748D01*
X166060827Y-77750381D01*
X166057748Y-77706106D01*
X166051061Y-77677009D01*
X166039496Y-77656173D01*
X166030013Y-77645107D01*
X165985960Y-77617198D01*
X165935224Y-77613843D01*
X165886796Y-77635159D01*
X165877450Y-77643073D01*
X165861540Y-77660647D01*
X165851610Y-77681587D01*
X165846278Y-77712782D01*
X165844163Y-77761122D01*
X165843857Y-77810647D01*
X165742458Y-77810647D01*
X165745810Y-77723568D01*
X165757726Y-77655086D01*
X165780135Y-77603600D01*
X165815124Y-77563443D01*
X165842375Y-77542861D01*
X165891907Y-77520625D01*
X165949316Y-77510304D01*
X166002682Y-77513067D01*
X166032543Y-77524212D01*
X166044261Y-77527383D01*
X166052037Y-77515557D01*
X166057465Y-77483866D01*
X166061571Y-77435593D01*
X166066067Y-77381829D01*
X166072313Y-77349482D01*
X166083676Y-77330985D01*
X166103528Y-77318770D01*
X166116000Y-77313362D01*
X166163171Y-77293601D01*
X166163117Y-77630358D01*
G36*
X166752833Y-77523663D02*
G01*
X166755048Y-77561850D01*
X166756784Y-77619886D01*
X166757899Y-77693180D01*
X166758257Y-77770055D01*
X166758257Y-78030196D01*
X166712326Y-78076127D01*
X166680675Y-78104429D01*
X166652890Y-78115893D01*
X166614915Y-78115168D01*
X166599840Y-78113321D01*
X166552726Y-78107948D01*
X166513756Y-78104869D01*
X166504257Y-78104585D01*
X166472233Y-78106445D01*
X166426432Y-78111114D01*
X166408674Y-78113321D01*
X166365057Y-78116735D01*
X166335745Y-78109320D01*
X166306680Y-78086427D01*
X166296188Y-78076127D01*
X166250257Y-78030196D01*
X166250257Y-77543602D01*
X166287226Y-77526758D01*
X166319059Y-77514282D01*
X166337683Y-77509914D01*
X166342458Y-77523718D01*
X166346921Y-77562286D01*
X166350775Y-77621356D01*
X166353722Y-77696663D01*
X166355143Y-77760286D01*
X166359114Y-78010657D01*
X166393759Y-78015556D01*
X166425268Y-78012131D01*
X166440708Y-78001041D01*
X166445023Y-77980308D01*
X166448708Y-77936145D01*
X166451469Y-77874146D01*
X166453012Y-77799909D01*
X166453235Y-77761706D01*
X166453457Y-77541783D01*
X166499166Y-77525849D01*
X166531518Y-77515015D01*
X166549115Y-77509962D01*
X166549623Y-77509914D01*
X166551388Y-77523648D01*
X166553329Y-77561730D01*
X166555282Y-77619482D01*
X166557084Y-77692227D01*
X166558343Y-77760286D01*
X166562314Y-78010657D01*
X166649400Y-78010657D01*
X166653396Y-77782240D01*
X166657392Y-77553822D01*
X166699847Y-77531868D01*
X166731192Y-77516793D01*
X166749744Y-77509951D01*
X166750279Y-77509914D01*
X166752833Y-77523663D01*
G37*
X166752833Y-77523663D02*
X166755048Y-77561850D01*
X166756784Y-77619886D01*
X166757899Y-77693180D01*
X166758257Y-77770055D01*
X166758257Y-78030196D01*
X166712326Y-78076127D01*
X166680675Y-78104429D01*
X166652890Y-78115893D01*
X166614915Y-78115168D01*
X166599840Y-78113321D01*
X166552726Y-78107948D01*
X166513756Y-78104869D01*
X166504257Y-78104585D01*
X166472233Y-78106445D01*
X166426432Y-78111114D01*
X166408674Y-78113321D01*
X166365057Y-78116735D01*
X166335745Y-78109320D01*
X166306680Y-78086427D01*
X166296188Y-78076127D01*
X166250257Y-78030196D01*
X166250257Y-77543602D01*
X166287226Y-77526758D01*
X166319059Y-77514282D01*
X166337683Y-77509914D01*
X166342458Y-77523718D01*
X166346921Y-77562286D01*
X166350775Y-77621356D01*
X166353722Y-77696663D01*
X166355143Y-77760286D01*
X166359114Y-78010657D01*
X166393759Y-78015556D01*
X166425268Y-78012131D01*
X166440708Y-78001041D01*
X166445023Y-77980308D01*
X166448708Y-77936145D01*
X166451469Y-77874146D01*
X166453012Y-77799909D01*
X166453235Y-77761706D01*
X166453457Y-77541783D01*
X166499166Y-77525849D01*
X166531518Y-77515015D01*
X166549115Y-77509962D01*
X166549623Y-77509914D01*
X166551388Y-77523648D01*
X166553329Y-77561730D01*
X166555282Y-77619482D01*
X166557084Y-77692227D01*
X166558343Y-77760286D01*
X166562314Y-78010657D01*
X166649400Y-78010657D01*
X166653396Y-77782240D01*
X166657392Y-77553822D01*
X166699847Y-77531868D01*
X166731192Y-77516793D01*
X166749744Y-77509951D01*
X166750279Y-77509914D01*
X166752833Y-77523663D01*
G36*
X167117876Y-77521335D02*
G01*
X167159667Y-77540344D01*
X167192469Y-77563378D01*
X167216503Y-77589133D01*
X167233097Y-77622358D01*
X167243577Y-77667800D01*
X167249271Y-77730207D01*
X167251507Y-77814327D01*
X167251743Y-77869721D01*
X167251743Y-78085826D01*
X167214774Y-78102670D01*
X167185656Y-78114981D01*
X167171231Y-78119514D01*
X167168472Y-78106025D01*
X167166282Y-78069653D01*
X167164942Y-78016542D01*
X167164657Y-77974372D01*
X167163434Y-77913447D01*
X167160136Y-77865115D01*
X167155321Y-77835518D01*
X167151496Y-77829229D01*
X167125783Y-77835652D01*
X167085418Y-77852125D01*
X167038679Y-77874458D01*
X166993845Y-77898457D01*
X166959193Y-77919930D01*
X166943002Y-77934685D01*
X166942938Y-77934845D01*
X166944330Y-77962152D01*
X166956818Y-77988219D01*
X166978743Y-78009392D01*
X167010743Y-78016474D01*
X167038092Y-78015649D01*
X167076826Y-78015042D01*
X167097158Y-78024116D01*
X167109369Y-78048092D01*
X167110909Y-78052613D01*
X167116203Y-78086806D01*
X167102047Y-78107568D01*
X167065148Y-78117462D01*
X167025289Y-78119292D01*
X166953562Y-78105727D01*
X166916432Y-78086355D01*
X166870576Y-78040845D01*
X166846256Y-77984983D01*
X166844073Y-77925957D01*
X166864629Y-77870953D01*
X166895549Y-77836486D01*
X166926420Y-77817189D01*
X166974942Y-77792759D01*
X167031485Y-77767985D01*
X167040910Y-77764199D01*
X167103019Y-77736791D01*
X167138822Y-77712634D01*
X167150337Y-77688619D01*
X167139580Y-77661635D01*
X167121114Y-77640543D01*
X167077469Y-77614572D01*
X167029446Y-77612624D01*
X166985406Y-77632637D01*
X166953709Y-77672551D01*
X166949549Y-77682848D01*
X166925327Y-77720724D01*
X166889965Y-77748842D01*
X166845343Y-77771917D01*
X166845343Y-77706485D01*
X166847969Y-77666506D01*
X166859230Y-77634997D01*
X166884199Y-77601378D01*
X166908169Y-77575484D01*
X166945441Y-77538817D01*
X166974401Y-77519121D01*
X167005505Y-77511220D01*
X167040713Y-77509914D01*
X167117876Y-77521335D01*
G37*
X167117876Y-77521335D02*
X167159667Y-77540344D01*
X167192469Y-77563378D01*
X167216503Y-77589133D01*
X167233097Y-77622358D01*
X167243577Y-77667800D01*
X167249271Y-77730207D01*
X167251507Y-77814327D01*
X167251743Y-77869721D01*
X167251743Y-78085826D01*
X167214774Y-78102670D01*
X167185656Y-78114981D01*
X167171231Y-78119514D01*
X167168472Y-78106025D01*
X167166282Y-78069653D01*
X167164942Y-78016542D01*
X167164657Y-77974372D01*
X167163434Y-77913447D01*
X167160136Y-77865115D01*
X167155321Y-77835518D01*
X167151496Y-77829229D01*
X167125783Y-77835652D01*
X167085418Y-77852125D01*
X167038679Y-77874458D01*
X166993845Y-77898457D01*
X166959193Y-77919930D01*
X166943002Y-77934685D01*
X166942938Y-77934845D01*
X166944330Y-77962152D01*
X166956818Y-77988219D01*
X166978743Y-78009392D01*
X167010743Y-78016474D01*
X167038092Y-78015649D01*
X167076826Y-78015042D01*
X167097158Y-78024116D01*
X167109369Y-78048092D01*
X167110909Y-78052613D01*
X167116203Y-78086806D01*
X167102047Y-78107568D01*
X167065148Y-78117462D01*
X167025289Y-78119292D01*
X166953562Y-78105727D01*
X166916432Y-78086355D01*
X166870576Y-78040845D01*
X166846256Y-77984983D01*
X166844073Y-77925957D01*
X166864629Y-77870953D01*
X166895549Y-77836486D01*
X166926420Y-77817189D01*
X166974942Y-77792759D01*
X167031485Y-77767985D01*
X167040910Y-77764199D01*
X167103019Y-77736791D01*
X167138822Y-77712634D01*
X167150337Y-77688619D01*
X167139580Y-77661635D01*
X167121114Y-77640543D01*
X167077469Y-77614572D01*
X167029446Y-77612624D01*
X166985406Y-77632637D01*
X166953709Y-77672551D01*
X166949549Y-77682848D01*
X166925327Y-77720724D01*
X166889965Y-77748842D01*
X166845343Y-77771917D01*
X166845343Y-77706485D01*
X166847969Y-77666506D01*
X166859230Y-77634997D01*
X166884199Y-77601378D01*
X166908169Y-77575484D01*
X166945441Y-77538817D01*
X166974401Y-77519121D01*
X167005505Y-77511220D01*
X167040713Y-77509914D01*
X167117876Y-77521335D01*
G36*
X167625600Y-77523752D02*
G01*
X167642948Y-77531334D01*
X167684356Y-77564128D01*
X167719765Y-77611547D01*
X167741664Y-77662151D01*
X167745229Y-77687098D01*
X167733279Y-77721927D01*
X167707067Y-77740357D01*
X167678964Y-77751516D01*
X167666095Y-77753572D01*
X167659829Y-77738649D01*
X167647456Y-77706175D01*
X167642028Y-77691502D01*
X167611590Y-77640744D01*
X167567520Y-77615427D01*
X167511010Y-77616206D01*
X167506825Y-77617203D01*
X167476655Y-77631507D01*
X167454476Y-77659393D01*
X167439327Y-77704287D01*
X167430250Y-77769615D01*
X167426286Y-77858804D01*
X167425914Y-77906261D01*
X167425730Y-77981071D01*
X167424522Y-78032069D01*
X167421309Y-78064471D01*
X167415109Y-78083495D01*
X167404940Y-78094356D01*
X167389819Y-78102272D01*
X167388946Y-78102670D01*
X167359828Y-78114981D01*
X167345403Y-78119514D01*
X167343186Y-78105809D01*
X167341289Y-78067925D01*
X167339847Y-78010715D01*
X167338998Y-77939027D01*
X167338829Y-77886565D01*
X167339692Y-77785047D01*
X167343070Y-77708032D01*
X167350142Y-77651023D01*
X167362088Y-77609526D01*
X167380090Y-77579043D01*
X167405327Y-77555080D01*
X167430247Y-77538355D01*
X167490171Y-77516097D01*
X167559911Y-77511076D01*
X167625600Y-77523752D01*
G37*
X167625600Y-77523752D02*
X167642948Y-77531334D01*
X167684356Y-77564128D01*
X167719765Y-77611547D01*
X167741664Y-77662151D01*
X167745229Y-77687098D01*
X167733279Y-77721927D01*
X167707067Y-77740357D01*
X167678964Y-77751516D01*
X167666095Y-77753572D01*
X167659829Y-77738649D01*
X167647456Y-77706175D01*
X167642028Y-77691502D01*
X167611590Y-77640744D01*
X167567520Y-77615427D01*
X167511010Y-77616206D01*
X167506825Y-77617203D01*
X167476655Y-77631507D01*
X167454476Y-77659393D01*
X167439327Y-77704287D01*
X167430250Y-77769615D01*
X167426286Y-77858804D01*
X167425914Y-77906261D01*
X167425730Y-77981071D01*
X167424522Y-78032069D01*
X167421309Y-78064471D01*
X167415109Y-78083495D01*
X167404940Y-78094356D01*
X167389819Y-78102272D01*
X167388946Y-78102670D01*
X167359828Y-78114981D01*
X167345403Y-78119514D01*
X167343186Y-78105809D01*
X167341289Y-78067925D01*
X167339847Y-78010715D01*
X167338998Y-77939027D01*
X167338829Y-77886565D01*
X167339692Y-77785047D01*
X167343070Y-77708032D01*
X167350142Y-77651023D01*
X167362088Y-77609526D01*
X167380090Y-77579043D01*
X167405327Y-77555080D01*
X167430247Y-77538355D01*
X167490171Y-77516097D01*
X167559911Y-77511076D01*
X167625600Y-77523752D01*
G36*
X168126595Y-77531966D02*
G01*
X168184021Y-77569497D01*
X168211719Y-77603096D01*
X168233662Y-77664064D01*
X168235405Y-77712308D01*
X168231457Y-77776816D01*
X168082686Y-77841934D01*
X168010349Y-77875202D01*
X167963084Y-77901964D01*
X167938507Y-77925144D01*
X167934237Y-77947667D01*
X167947889Y-77972455D01*
X167962943Y-77988886D01*
X168006746Y-78015235D01*
X168054389Y-78017081D01*
X168098145Y-77996546D01*
X168130289Y-77955752D01*
X168136038Y-77941347D01*
X168163576Y-77896356D01*
X168195258Y-77877182D01*
X168238714Y-77860779D01*
X168238714Y-77922966D01*
X168234872Y-77965283D01*
X168219823Y-78000969D01*
X168188280Y-78041943D01*
X168183592Y-78047267D01*
X168148506Y-78083720D01*
X168118347Y-78103283D01*
X168080615Y-78112283D01*
X168049335Y-78115230D01*
X167993385Y-78115965D01*
X167953555Y-78106660D01*
X167928708Y-78092846D01*
X167889656Y-78062467D01*
X167862625Y-78029613D01*
X167845517Y-77988294D01*
X167836238Y-77932521D01*
X167832693Y-77856305D01*
X167832410Y-77817622D01*
X167833372Y-77771247D01*
X167921007Y-77771247D01*
X167922023Y-77796126D01*
X167924556Y-77800200D01*
X167941274Y-77794665D01*
X167977249Y-77780017D01*
X168025331Y-77759190D01*
X168035386Y-77754714D01*
X168096152Y-77723814D01*
X168129632Y-77696657D01*
X168136990Y-77671220D01*
X168119391Y-77645481D01*
X168104856Y-77634109D01*
X168052410Y-77611364D01*
X168003322Y-77615122D01*
X167962227Y-77642884D01*
X167933758Y-77692152D01*
X167924631Y-77731257D01*
X167921007Y-77771247D01*
X167833372Y-77771247D01*
X167834285Y-77727249D01*
X167841196Y-77660384D01*
X167854884Y-77611695D01*
X167877096Y-77575849D01*
X167909574Y-77547513D01*
X167923733Y-77538355D01*
X167988053Y-77514507D01*
X168058473Y-77513006D01*
X168126595Y-77531966D01*
G37*
X168126595Y-77531966D02*
X168184021Y-77569497D01*
X168211719Y-77603096D01*
X168233662Y-77664064D01*
X168235405Y-77712308D01*
X168231457Y-77776816D01*
X168082686Y-77841934D01*
X168010349Y-77875202D01*
X167963084Y-77901964D01*
X167938507Y-77925144D01*
X167934237Y-77947667D01*
X167947889Y-77972455D01*
X167962943Y-77988886D01*
X168006746Y-78015235D01*
X168054389Y-78017081D01*
X168098145Y-77996546D01*
X168130289Y-77955752D01*
X168136038Y-77941347D01*
X168163576Y-77896356D01*
X168195258Y-77877182D01*
X168238714Y-77860779D01*
X168238714Y-77922966D01*
X168234872Y-77965283D01*
X168219823Y-78000969D01*
X168188280Y-78041943D01*
X168183592Y-78047267D01*
X168148506Y-78083720D01*
X168118347Y-78103283D01*
X168080615Y-78112283D01*
X168049335Y-78115230D01*
X167993385Y-78115965D01*
X167953555Y-78106660D01*
X167928708Y-78092846D01*
X167889656Y-78062467D01*
X167862625Y-78029613D01*
X167845517Y-77988294D01*
X167836238Y-77932521D01*
X167832693Y-77856305D01*
X167832410Y-77817622D01*
X167833372Y-77771247D01*
X167921007Y-77771247D01*
X167922023Y-77796126D01*
X167924556Y-77800200D01*
X167941274Y-77794665D01*
X167977249Y-77780017D01*
X168025331Y-77759190D01*
X168035386Y-77754714D01*
X168096152Y-77723814D01*
X168129632Y-77696657D01*
X168136990Y-77671220D01*
X168119391Y-77645481D01*
X168104856Y-77634109D01*
X168052410Y-77611364D01*
X168003322Y-77615122D01*
X167962227Y-77642884D01*
X167933758Y-77692152D01*
X167924631Y-77731257D01*
X167921007Y-77771247D01*
X167833372Y-77771247D01*
X167834285Y-77727249D01*
X167841196Y-77660384D01*
X167854884Y-77611695D01*
X167877096Y-77575849D01*
X167909574Y-77547513D01*
X167923733Y-77538355D01*
X167988053Y-77514507D01*
X168058473Y-77513006D01*
X168126595Y-77531966D01*
G36*
X165076910Y-72807348D02*
G01*
X165155454Y-72807778D01*
X165212298Y-72808942D01*
X165251105Y-72811207D01*
X165275538Y-72814940D01*
X165289262Y-72820506D01*
X165295940Y-72828273D01*
X165299236Y-72838605D01*
X165299556Y-72839943D01*
X165304562Y-72864079D01*
X165313829Y-72911701D01*
X165326392Y-72977741D01*
X165341287Y-73057128D01*
X165357551Y-73144796D01*
X165358119Y-73147875D01*
X165374410Y-73233789D01*
X165389652Y-73309696D01*
X165402861Y-73371045D01*
X165413054Y-73413282D01*
X165419248Y-73431855D01*
X165419543Y-73432184D01*
X165437788Y-73441253D01*
X165475405Y-73456367D01*
X165524271Y-73474262D01*
X165524543Y-73474358D01*
X165586093Y-73497493D01*
X165658657Y-73526965D01*
X165727057Y-73556597D01*
X165730294Y-73558062D01*
X165841702Y-73608626D01*
X166088399Y-73440160D01*
X166164077Y-73388803D01*
X166232631Y-73342889D01*
X166290088Y-73305030D01*
X166332476Y-73277837D01*
X166355825Y-73263921D01*
X166358042Y-73262889D01*
X166375010Y-73267484D01*
X166406701Y-73289655D01*
X166454352Y-73330447D01*
X166519198Y-73390905D01*
X166585397Y-73455227D01*
X166649214Y-73518612D01*
X166706329Y-73576451D01*
X166753305Y-73625175D01*
X166786703Y-73661210D01*
X166803085Y-73680984D01*
X166803694Y-73682002D01*
X166805505Y-73695572D01*
X166798683Y-73717733D01*
X166781540Y-73751478D01*
X166752393Y-73799800D01*
X166709555Y-73865692D01*
X166652448Y-73950517D01*
X166601766Y-74025177D01*
X166556461Y-74092140D01*
X166519150Y-74147516D01*
X166492452Y-74187420D01*
X166478985Y-74207962D01*
X166478137Y-74209356D01*
X166479781Y-74229038D01*
X166492245Y-74267293D01*
X166513048Y-74316889D01*
X166520462Y-74332728D01*
X166552814Y-74403290D01*
X166587328Y-74483353D01*
X166615365Y-74552629D01*
X166635568Y-74604045D01*
X166651615Y-74643119D01*
X166660888Y-74663541D01*
X166662041Y-74665114D01*
X166679096Y-74667721D01*
X166719298Y-74674863D01*
X166777302Y-74685523D01*
X166847763Y-74698685D01*
X166925335Y-74713333D01*
X167004672Y-74728449D01*
X167080431Y-74743018D01*
X167147264Y-74756022D01*
X167199828Y-74766445D01*
X167232776Y-74773270D01*
X167240857Y-74775199D01*
X167249205Y-74779962D01*
X167255506Y-74790718D01*
X167260045Y-74811098D01*
X167263104Y-74844734D01*
X167264967Y-74895255D01*
X167265918Y-74966292D01*
X167266240Y-75061476D01*
X167266257Y-75100492D01*
X167266257Y-75417799D01*
X167190057Y-75432839D01*
X167147663Y-75440995D01*
X167084400Y-75452899D01*
X167007962Y-75467116D01*
X166926043Y-75482210D01*
X166903400Y-75486355D01*
X166827806Y-75501053D01*
X166761953Y-75515505D01*
X166711366Y-75528375D01*
X166681574Y-75538322D01*
X166676612Y-75541287D01*
X166664426Y-75562283D01*
X166646953Y-75602967D01*
X166627577Y-75655322D01*
X166623734Y-75666600D01*
X166598339Y-75736523D01*
X166566817Y-75815418D01*
X166535969Y-75886266D01*
X166535817Y-75886595D01*
X166484447Y-75997733D01*
X166653399Y-76246253D01*
X166822352Y-76494772D01*
X166605429Y-76712058D01*
X166539819Y-76776726D01*
X166479979Y-76833733D01*
X166429267Y-76880033D01*
X166391046Y-76912584D01*
X166368675Y-76928343D01*
X166365466Y-76929343D01*
X166346626Y-76921469D01*
X166308180Y-76899578D01*
X166254330Y-76866267D01*
X166189276Y-76824131D01*
X166118940Y-76776943D01*
X166047555Y-76728810D01*
X165983908Y-76686928D01*
X165932041Y-76653871D01*
X165895995Y-76632218D01*
X165879867Y-76624543D01*
X165860189Y-76631037D01*
X165822875Y-76648150D01*
X165775621Y-76672326D01*
X165770612Y-76675013D01*
X165706977Y-76706927D01*
X165663341Y-76722579D01*
X165636202Y-76722745D01*
X165622057Y-76708204D01*
X165621975Y-76708000D01*
X165614905Y-76690779D01*
X165598042Y-76649899D01*
X165572695Y-76588525D01*
X165540171Y-76509819D01*
X165501778Y-76416947D01*
X165458822Y-76313072D01*
X165417222Y-76212502D01*
X165371504Y-76101516D01*
X165329526Y-75998703D01*
X165292548Y-75907215D01*
X165261827Y-75830201D01*
X165238622Y-75770815D01*
X165224190Y-75732209D01*
X165219743Y-75717800D01*
X165230896Y-75701272D01*
X165260069Y-75674930D01*
X165298971Y-75645887D01*
X165409757Y-75554039D01*
X165496351Y-75448759D01*
X165557716Y-75332266D01*
X165592815Y-75206776D01*
X165600608Y-75074507D01*
X165594943Y-75013457D01*
X165564078Y-74886795D01*
X165510920Y-74774941D01*
X165438767Y-74679001D01*
X165350917Y-74600076D01*
X165250665Y-74539270D01*
X165141310Y-74497687D01*
X165026147Y-74476428D01*
X164908475Y-74476599D01*
X164791590Y-74499301D01*
X164678789Y-74545638D01*
X164573369Y-74616713D01*
X164529368Y-74656911D01*
X164444979Y-74760129D01*
X164386222Y-74872925D01*
X164352704Y-74992010D01*
X164344035Y-75114095D01*
X164359823Y-75235893D01*
X164399678Y-75354116D01*
X164463207Y-75465475D01*
X164550021Y-75566684D01*
X164647029Y-75645887D01*
X164687437Y-75676162D01*
X164715982Y-75702219D01*
X164726257Y-75717825D01*
X164720877Y-75734843D01*
X164705575Y-75775500D01*
X164681612Y-75836642D01*
X164650244Y-75915119D01*
X164612732Y-76007780D01*
X164570333Y-76111472D01*
X164528663Y-76212526D01*
X164482690Y-76323607D01*
X164440107Y-76426541D01*
X164402221Y-76518165D01*
X164370340Y-76595316D01*
X164345771Y-76654831D01*
X164329820Y-76693544D01*
X164323910Y-76708000D01*
X164309948Y-76722685D01*
X164282940Y-76722642D01*
X164239413Y-76707099D01*
X164175890Y-76675284D01*
X164175388Y-76675013D01*
X164127560Y-76650323D01*
X164088897Y-76632338D01*
X164067095Y-76624614D01*
X164066133Y-76624543D01*
X164049721Y-76632378D01*
X164013487Y-76654165D01*
X163961474Y-76687328D01*
X163897725Y-76729291D01*
X163827060Y-76776943D01*
X163755116Y-76825191D01*
X163690274Y-76867151D01*
X163636735Y-76900227D01*
X163598697Y-76921821D01*
X163580533Y-76929343D01*
X163563808Y-76919457D01*
X163530180Y-76891826D01*
X163483010Y-76849495D01*
X163425658Y-76795505D01*
X163361484Y-76732899D01*
X163340497Y-76711983D01*
X163123499Y-76494623D01*
X163288668Y-76252220D01*
X163338864Y-76177781D01*
X163382919Y-76110972D01*
X163418362Y-76055665D01*
X163442719Y-76015729D01*
X163453522Y-75995036D01*
X163453838Y-75993563D01*
X163448143Y-75974058D01*
X163432826Y-75934822D01*
X163410537Y-75882430D01*
X163394893Y-75847355D01*
X163365641Y-75780201D01*
X163338094Y-75712358D01*
X163316737Y-75655034D01*
X163310935Y-75637572D01*
X163294452Y-75590938D01*
X163278340Y-75554905D01*
X163269490Y-75541287D01*
X163249960Y-75532952D01*
X163207334Y-75521137D01*
X163147145Y-75507181D01*
X163074922Y-75492422D01*
X163042600Y-75486355D01*
X162960522Y-75471273D01*
X162881795Y-75456669D01*
X162814109Y-75443980D01*
X162765160Y-75434642D01*
X162755943Y-75432839D01*
X162679743Y-75417799D01*
X162679743Y-75100492D01*
X162679914Y-74996154D01*
X162680616Y-74917213D01*
X162682134Y-74860038D01*
X162684749Y-74820999D01*
X162688746Y-74796465D01*
X162694409Y-74782805D01*
X162702020Y-74776389D01*
X162705143Y-74775199D01*
X162723978Y-74770980D01*
X162765588Y-74762562D01*
X162824630Y-74750961D01*
X162895757Y-74737195D01*
X162973625Y-74722280D01*
X163052887Y-74707232D01*
X163128198Y-74693069D01*
X163194213Y-74680806D01*
X163245587Y-74671461D01*
X163276975Y-74666050D01*
X163283959Y-74665114D01*
X163290285Y-74652596D01*
X163304290Y-74619246D01*
X163323355Y-74571377D01*
X163330634Y-74552629D01*
X163359996Y-74480195D01*
X163394571Y-74400170D01*
X163425537Y-74332728D01*
X163448323Y-74281159D01*
X163463482Y-74238785D01*
X163468542Y-74212834D01*
X163467736Y-74209356D01*
X163457041Y-74192936D01*
X163432620Y-74156417D01*
X163397095Y-74103687D01*
X163353087Y-74038635D01*
X163303217Y-73965151D01*
X163293356Y-73950645D01*
X163235492Y-73864704D01*
X163192956Y-73799261D01*
X163164054Y-73751304D01*
X163147090Y-73717820D01*
X163140367Y-73695795D01*
X163142190Y-73682217D01*
X163142236Y-73682131D01*
X163156586Y-73664297D01*
X163188323Y-73629817D01*
X163234010Y-73582268D01*
X163290204Y-73525222D01*
X163353468Y-73462255D01*
X163360602Y-73455227D01*
X163440330Y-73378020D01*
X163501857Y-73321330D01*
X163546421Y-73284110D01*
X163575257Y-73265315D01*
X163587958Y-73262889D01*
X163606494Y-73273471D01*
X163644961Y-73297916D01*
X163699386Y-73333612D01*
X163765798Y-73377947D01*
X163840225Y-73428311D01*
X163857601Y-73440160D01*
X164104297Y-73608626D01*
X164215706Y-73558062D01*
X164283457Y-73528595D01*
X164356183Y-73498959D01*
X164418703Y-73475330D01*
X164421457Y-73474358D01*
X164470360Y-73456457D01*
X164508057Y-73441320D01*
X164526425Y-73432210D01*
X164526456Y-73432184D01*
X164532285Y-73415717D01*
X164542192Y-73375219D01*
X164555195Y-73315242D01*
X164570309Y-73240340D01*
X164586552Y-73155064D01*
X164587881Y-73147875D01*
X164604175Y-73060014D01*
X164619133Y-72980260D01*
X164631791Y-72913681D01*
X164641186Y-72865347D01*
X164646354Y-72840325D01*
X164646444Y-72839943D01*
X164649589Y-72829299D01*
X164655704Y-72821262D01*
X164668453Y-72815467D01*
X164691500Y-72811547D01*
X164728509Y-72809135D01*
X164783144Y-72807865D01*
X164859067Y-72807371D01*
X164959944Y-72807286D01*
X164973000Y-72807286D01*
X165076910Y-72807348D01*
G37*
X165076910Y-72807348D02*
X165155454Y-72807778D01*
X165212298Y-72808942D01*
X165251105Y-72811207D01*
X165275538Y-72814940D01*
X165289262Y-72820506D01*
X165295940Y-72828273D01*
X165299236Y-72838605D01*
X165299556Y-72839943D01*
X165304562Y-72864079D01*
X165313829Y-72911701D01*
X165326392Y-72977741D01*
X165341287Y-73057128D01*
X165357551Y-73144796D01*
X165358119Y-73147875D01*
X165374410Y-73233789D01*
X165389652Y-73309696D01*
X165402861Y-73371045D01*
X165413054Y-73413282D01*
X165419248Y-73431855D01*
X165419543Y-73432184D01*
X165437788Y-73441253D01*
X165475405Y-73456367D01*
X165524271Y-73474262D01*
X165524543Y-73474358D01*
X165586093Y-73497493D01*
X165658657Y-73526965D01*
X165727057Y-73556597D01*
X165730294Y-73558062D01*
X165841702Y-73608626D01*
X166088399Y-73440160D01*
X166164077Y-73388803D01*
X166232631Y-73342889D01*
X166290088Y-73305030D01*
X166332476Y-73277837D01*
X166355825Y-73263921D01*
X166358042Y-73262889D01*
X166375010Y-73267484D01*
X166406701Y-73289655D01*
X166454352Y-73330447D01*
X166519198Y-73390905D01*
X166585397Y-73455227D01*
X166649214Y-73518612D01*
X166706329Y-73576451D01*
X166753305Y-73625175D01*
X166786703Y-73661210D01*
X166803085Y-73680984D01*
X166803694Y-73682002D01*
X166805505Y-73695572D01*
X166798683Y-73717733D01*
X166781540Y-73751478D01*
X166752393Y-73799800D01*
X166709555Y-73865692D01*
X166652448Y-73950517D01*
X166601766Y-74025177D01*
X166556461Y-74092140D01*
X166519150Y-74147516D01*
X166492452Y-74187420D01*
X166478985Y-74207962D01*
X166478137Y-74209356D01*
X166479781Y-74229038D01*
X166492245Y-74267293D01*
X166513048Y-74316889D01*
X166520462Y-74332728D01*
X166552814Y-74403290D01*
X166587328Y-74483353D01*
X166615365Y-74552629D01*
X166635568Y-74604045D01*
X166651615Y-74643119D01*
X166660888Y-74663541D01*
X166662041Y-74665114D01*
X166679096Y-74667721D01*
X166719298Y-74674863D01*
X166777302Y-74685523D01*
X166847763Y-74698685D01*
X166925335Y-74713333D01*
X167004672Y-74728449D01*
X167080431Y-74743018D01*
X167147264Y-74756022D01*
X167199828Y-74766445D01*
X167232776Y-74773270D01*
X167240857Y-74775199D01*
X167249205Y-74779962D01*
X167255506Y-74790718D01*
X167260045Y-74811098D01*
X167263104Y-74844734D01*
X167264967Y-74895255D01*
X167265918Y-74966292D01*
X167266240Y-75061476D01*
X167266257Y-75100492D01*
X167266257Y-75417799D01*
X167190057Y-75432839D01*
X167147663Y-75440995D01*
X167084400Y-75452899D01*
X167007962Y-75467116D01*
X166926043Y-75482210D01*
X166903400Y-75486355D01*
X166827806Y-75501053D01*
X166761953Y-75515505D01*
X166711366Y-75528375D01*
X166681574Y-75538322D01*
X166676612Y-75541287D01*
X166664426Y-75562283D01*
X166646953Y-75602967D01*
X166627577Y-75655322D01*
X166623734Y-75666600D01*
X166598339Y-75736523D01*
X166566817Y-75815418D01*
X166535969Y-75886266D01*
X166535817Y-75886595D01*
X166484447Y-75997733D01*
X166653399Y-76246253D01*
X166822352Y-76494772D01*
X166605429Y-76712058D01*
X166539819Y-76776726D01*
X166479979Y-76833733D01*
X166429267Y-76880033D01*
X166391046Y-76912584D01*
X166368675Y-76928343D01*
X166365466Y-76929343D01*
X166346626Y-76921469D01*
X166308180Y-76899578D01*
X166254330Y-76866267D01*
X166189276Y-76824131D01*
X166118940Y-76776943D01*
X166047555Y-76728810D01*
X165983908Y-76686928D01*
X165932041Y-76653871D01*
X165895995Y-76632218D01*
X165879867Y-76624543D01*
X165860189Y-76631037D01*
X165822875Y-76648150D01*
X165775621Y-76672326D01*
X165770612Y-76675013D01*
X165706977Y-76706927D01*
X165663341Y-76722579D01*
X165636202Y-76722745D01*
X165622057Y-76708204D01*
X165621975Y-76708000D01*
X165614905Y-76690779D01*
X165598042Y-76649899D01*
X165572695Y-76588525D01*
X165540171Y-76509819D01*
X165501778Y-76416947D01*
X165458822Y-76313072D01*
X165417222Y-76212502D01*
X165371504Y-76101516D01*
X165329526Y-75998703D01*
X165292548Y-75907215D01*
X165261827Y-75830201D01*
X165238622Y-75770815D01*
X165224190Y-75732209D01*
X165219743Y-75717800D01*
X165230896Y-75701272D01*
X165260069Y-75674930D01*
X165298971Y-75645887D01*
X165409757Y-75554039D01*
X165496351Y-75448759D01*
X165557716Y-75332266D01*
X165592815Y-75206776D01*
X165600608Y-75074507D01*
X165594943Y-75013457D01*
X165564078Y-74886795D01*
X165510920Y-74774941D01*
X165438767Y-74679001D01*
X165350917Y-74600076D01*
X165250665Y-74539270D01*
X165141310Y-74497687D01*
X165026147Y-74476428D01*
X164908475Y-74476599D01*
X164791590Y-74499301D01*
X164678789Y-74545638D01*
X164573369Y-74616713D01*
X164529368Y-74656911D01*
X164444979Y-74760129D01*
X164386222Y-74872925D01*
X164352704Y-74992010D01*
X164344035Y-75114095D01*
X164359823Y-75235893D01*
X164399678Y-75354116D01*
X164463207Y-75465475D01*
X164550021Y-75566684D01*
X164647029Y-75645887D01*
X164687437Y-75676162D01*
X164715982Y-75702219D01*
X164726257Y-75717825D01*
X164720877Y-75734843D01*
X164705575Y-75775500D01*
X164681612Y-75836642D01*
X164650244Y-75915119D01*
X164612732Y-76007780D01*
X164570333Y-76111472D01*
X164528663Y-76212526D01*
X164482690Y-76323607D01*
X164440107Y-76426541D01*
X164402221Y-76518165D01*
X164370340Y-76595316D01*
X164345771Y-76654831D01*
X164329820Y-76693544D01*
X164323910Y-76708000D01*
X164309948Y-76722685D01*
X164282940Y-76722642D01*
X164239413Y-76707099D01*
X164175890Y-76675284D01*
X164175388Y-76675013D01*
X164127560Y-76650323D01*
X164088897Y-76632338D01*
X164067095Y-76624614D01*
X164066133Y-76624543D01*
X164049721Y-76632378D01*
X164013487Y-76654165D01*
X163961474Y-76687328D01*
X163897725Y-76729291D01*
X163827060Y-76776943D01*
X163755116Y-76825191D01*
X163690274Y-76867151D01*
X163636735Y-76900227D01*
X163598697Y-76921821D01*
X163580533Y-76929343D01*
X163563808Y-76919457D01*
X163530180Y-76891826D01*
X163483010Y-76849495D01*
X163425658Y-76795505D01*
X163361484Y-76732899D01*
X163340497Y-76711983D01*
X163123499Y-76494623D01*
X163288668Y-76252220D01*
X163338864Y-76177781D01*
X163382919Y-76110972D01*
X163418362Y-76055665D01*
X163442719Y-76015729D01*
X163453522Y-75995036D01*
X163453838Y-75993563D01*
X163448143Y-75974058D01*
X163432826Y-75934822D01*
X163410537Y-75882430D01*
X163394893Y-75847355D01*
X163365641Y-75780201D01*
X163338094Y-75712358D01*
X163316737Y-75655034D01*
X163310935Y-75637572D01*
X163294452Y-75590938D01*
X163278340Y-75554905D01*
X163269490Y-75541287D01*
X163249960Y-75532952D01*
X163207334Y-75521137D01*
X163147145Y-75507181D01*
X163074922Y-75492422D01*
X163042600Y-75486355D01*
X162960522Y-75471273D01*
X162881795Y-75456669D01*
X162814109Y-75443980D01*
X162765160Y-75434642D01*
X162755943Y-75432839D01*
X162679743Y-75417799D01*
X162679743Y-75100492D01*
X162679914Y-74996154D01*
X162680616Y-74917213D01*
X162682134Y-74860038D01*
X162684749Y-74820999D01*
X162688746Y-74796465D01*
X162694409Y-74782805D01*
X162702020Y-74776389D01*
X162705143Y-74775199D01*
X162723978Y-74770980D01*
X162765588Y-74762562D01*
X162824630Y-74750961D01*
X162895757Y-74737195D01*
X162973625Y-74722280D01*
X163052887Y-74707232D01*
X163128198Y-74693069D01*
X163194213Y-74680806D01*
X163245587Y-74671461D01*
X163276975Y-74666050D01*
X163283959Y-74665114D01*
X163290285Y-74652596D01*
X163304290Y-74619246D01*
X163323355Y-74571377D01*
X163330634Y-74552629D01*
X163359996Y-74480195D01*
X163394571Y-74400170D01*
X163425537Y-74332728D01*
X163448323Y-74281159D01*
X163463482Y-74238785D01*
X163468542Y-74212834D01*
X163467736Y-74209356D01*
X163457041Y-74192936D01*
X163432620Y-74156417D01*
X163397095Y-74103687D01*
X163353087Y-74038635D01*
X163303217Y-73965151D01*
X163293356Y-73950645D01*
X163235492Y-73864704D01*
X163192956Y-73799261D01*
X163164054Y-73751304D01*
X163147090Y-73717820D01*
X163140367Y-73695795D01*
X163142190Y-73682217D01*
X163142236Y-73682131D01*
X163156586Y-73664297D01*
X163188323Y-73629817D01*
X163234010Y-73582268D01*
X163290204Y-73525222D01*
X163353468Y-73462255D01*
X163360602Y-73455227D01*
X163440330Y-73378020D01*
X163501857Y-73321330D01*
X163546421Y-73284110D01*
X163575257Y-73265315D01*
X163587958Y-73262889D01*
X163606494Y-73273471D01*
X163644961Y-73297916D01*
X163699386Y-73333612D01*
X163765798Y-73377947D01*
X163840225Y-73428311D01*
X163857601Y-73440160D01*
X164104297Y-73608626D01*
X164215706Y-73558062D01*
X164283457Y-73528595D01*
X164356183Y-73498959D01*
X164418703Y-73475330D01*
X164421457Y-73474358D01*
X164470360Y-73456457D01*
X164508057Y-73441320D01*
X164526425Y-73432210D01*
X164526456Y-73432184D01*
X164532285Y-73415717D01*
X164542192Y-73375219D01*
X164555195Y-73315242D01*
X164570309Y-73240340D01*
X164586552Y-73155064D01*
X164587881Y-73147875D01*
X164604175Y-73060014D01*
X164619133Y-72980260D01*
X164631791Y-72913681D01*
X164641186Y-72865347D01*
X164646354Y-72840325D01*
X164646444Y-72839943D01*
X164649589Y-72829299D01*
X164655704Y-72821262D01*
X164668453Y-72815467D01*
X164691500Y-72811547D01*
X164728509Y-72809135D01*
X164783144Y-72807865D01*
X164859067Y-72807371D01*
X164959944Y-72807286D01*
X164973000Y-72807286D01*
X165076910Y-72807348D01*
D13*
X160193000Y-75478000D02*
X158668000Y-75478000D01*
X158318000Y-66668000D02*
X158318000Y-75318000D01*
X155118000Y-66668000D02*
X158318000Y-66668000D01*
X155118000Y-75318000D02*
X155118000Y-66668000D01*
X158318000Y-75318000D02*
X155118000Y-75318000D01*
X174701000Y-72278000D02*
X174701000Y-72278000D01*
X174601000Y-72278000D02*
X174601000Y-72278000D01*
D14*
X169201000Y-71253000D02*
X169201000Y-69453000D01*
X170026000Y-71253000D02*
X169201000Y-71253000D01*
X169201000Y-66303000D02*
X169201000Y-67453000D01*
X177001000Y-66303000D02*
X169201000Y-66303000D01*
X177001000Y-67453000D02*
X177001000Y-66303000D01*
X177001000Y-71253000D02*
X177001000Y-69453000D01*
X176526000Y-71253000D02*
X177001000Y-71253000D01*
D13*
X174701000Y-72278000D02*
G75*
G02*
X174601000Y-72278000I-50000J0D01*
G01*
X174601000Y-72278000D02*
G75*
G02*
X174701000Y-72278000I50000J0D01*
G01*
X129580000Y-66702000D02*
X129580000Y-68072000D01*
X147480000Y-66702000D02*
X129580000Y-66702000D01*
X129580000Y-117702000D02*
X147480000Y-117702000D01*
X132501000Y-117702000D02*
X150401000Y-117702000D01*
X150401000Y-66702000D02*
X132501000Y-66702000D01*
X132501000Y-66702000D02*
X132501000Y-68072000D01*
D15*
X162500000Y-66742000D02*
X163830000Y-66742000D01*
X162500000Y-68072000D02*
X162500000Y-66742000D01*
X162500000Y-69342000D02*
X165160000Y-69342000D01*
X165160000Y-69342000D02*
X165160000Y-69402000D01*
X162500000Y-69342000D02*
X162500000Y-69402000D01*
X162500000Y-69402000D02*
X165160000Y-69402000D01*
D13*
X170744000Y-109599000D02*
X170744000Y-109599000D01*
X170744000Y-109699000D02*
X170744000Y-109699000D01*
X170744000Y-109599000D02*
X170744000Y-109599000D01*
X181494000Y-112299000D02*
X178744000Y-112299000D01*
X181494000Y-113299000D02*
X181494000Y-112299000D01*
X181494000Y-125699000D02*
X181494000Y-117499000D01*
X166994000Y-125699000D02*
X181494000Y-125699000D01*
X166994000Y-117499000D02*
X166994000Y-125699000D01*
X166994000Y-112299000D02*
X166994000Y-113299000D01*
X166994000Y-112299000D02*
X166994000Y-112299000D01*
X169744000Y-112299000D02*
X166994000Y-112299000D01*
X170744000Y-109699000D02*
G75*
G02*
X170744000Y-109599000I0J50000D01*
G01*
X170744000Y-109599000D02*
G75*
G02*
X170744000Y-109699000I0J-50000D01*
G01*
X170744000Y-109699000D02*
G75*
G02*
X170744000Y-109599000I0J50000D01*
G01*
D15*
X175447000Y-75124000D02*
X175447000Y-76454000D01*
X174117000Y-75124000D02*
X175447000Y-75124000D01*
X172847000Y-75124000D02*
X172847000Y-77784000D01*
X172847000Y-77784000D02*
X170247000Y-77784000D01*
X172847000Y-75124000D02*
X170247000Y-75124000D01*
X170247000Y-75124000D02*
X170247000Y-77784000D01*
X154235000Y-82918000D02*
X154535000Y-83218000D01*
X154835000Y-82918000D02*
X154535000Y-83218000D01*
X175835000Y-82018000D02*
X176135000Y-81718000D01*
X175835000Y-82018000D02*
X176135000Y-82318000D01*
X176935000Y-103618000D02*
X177235000Y-103918000D01*
X176935000Y-103618000D02*
X176635000Y-103918000D01*
X155235000Y-104718000D02*
X155535000Y-104418000D01*
X155235000Y-104118000D02*
X155535000Y-104418000D01*
D10*
X178335000Y-103218000D02*
X178335000Y-105818000D01*
X178335000Y-105818000D02*
X175735000Y-105818000D01*
X153135000Y-105818000D02*
X153135000Y-103218000D01*
X175735000Y-80618000D02*
X176835000Y-80618000D01*
X153135000Y-80618000D02*
X155735000Y-80618000D01*
X153135000Y-83218000D02*
X153135000Y-80618000D01*
X175735000Y-80618000D02*
X175735000Y-79918000D01*
X155735000Y-105818000D02*
X153135000Y-105818000D01*
X178335000Y-82118000D02*
X178335000Y-83218000D01*
X176835000Y-80618000D02*
G75*
G02*
X178335000Y-82118000I-116790J-1616790D01*
G01*
D15*
X163509000Y-112438000D02*
X153229000Y-112438000D01*
X153229000Y-112438000D02*
X153229000Y-115098000D01*
X153229000Y-115098000D02*
X163509000Y-115098000D01*
X163509000Y-115098000D02*
X163509000Y-112438000D01*
X162559000Y-115098000D02*
X162559000Y-121098000D01*
X162559000Y-121098000D02*
X161799000Y-121098000D01*
X161799000Y-121098000D02*
X161799000Y-115098000D01*
X162499000Y-115098000D02*
X162499000Y-121098000D01*
X162379000Y-115098000D02*
X162379000Y-121098000D01*
X162259000Y-115098000D02*
X162259000Y-121098000D01*
X162139000Y-115098000D02*
X162139000Y-121098000D01*
X162019000Y-115098000D02*
X162019000Y-121098000D01*
X161899000Y-115098000D02*
X161899000Y-121098000D01*
X162559000Y-112108000D02*
X162559000Y-112438000D01*
X161799000Y-112108000D02*
X161799000Y-112438000D01*
X160909000Y-112438000D02*
X160909000Y-115098000D01*
X160019000Y-115098000D02*
X160019000Y-121098000D01*
X160019000Y-121098000D02*
X159259000Y-121098000D01*
X159259000Y-121098000D02*
X159259000Y-115098000D01*
X160019000Y-112040929D02*
X160019000Y-112438000D01*
X159259000Y-112040929D02*
X159259000Y-112438000D01*
X158369000Y-112438000D02*
X158369000Y-115098000D01*
X157479000Y-115098000D02*
X157479000Y-121098000D01*
X157479000Y-121098000D02*
X156719000Y-121098000D01*
X156719000Y-121098000D02*
X156719000Y-115098000D01*
X157479000Y-112040929D02*
X157479000Y-112438000D01*
X156719000Y-112040929D02*
X156719000Y-112438000D01*
X155829000Y-112438000D02*
X155829000Y-115098000D01*
X154939000Y-115098000D02*
X154939000Y-121098000D01*
X154939000Y-121098000D02*
X154179000Y-121098000D01*
X154179000Y-121098000D02*
X154179000Y-115098000D01*
X154939000Y-112040929D02*
X154939000Y-112438000D01*
X154179000Y-112040929D02*
X154179000Y-112438000D01*
X162179000Y-109728000D02*
X163449000Y-109728000D01*
X163449000Y-109728000D02*
X163449000Y-110998000D01*
D10*
X155741809Y-76398380D02*
X155741809Y-75398380D01*
X156789428Y-76303142D02*
X156741809Y-76350761D01*
X156598952Y-76398380D01*
X156503714Y-76398380D01*
X156360857Y-76350761D01*
X156265619Y-76255523D01*
X156218000Y-76160285D01*
X156170380Y-75969809D01*
X156170380Y-75826952D01*
X156218000Y-75636476D01*
X156265619Y-75541238D01*
X156360857Y-75446000D01*
X156503714Y-75398380D01*
X156598952Y-75398380D01*
X156741809Y-75446000D01*
X156789428Y-75493619D01*
X157741809Y-76398380D02*
X157170380Y-76398380D01*
X157456095Y-76398380D02*
X157456095Y-75398380D01*
X157360857Y-75541238D01*
X157265619Y-75636476D01*
X157170380Y-75684095D01*
D16*
X172677666Y-68357523D02*
X172677666Y-69264666D01*
X172617190Y-69446095D01*
X172496238Y-69567047D01*
X172314809Y-69627523D01*
X172193857Y-69627523D01*
X173947666Y-69627523D02*
X173221952Y-69627523D01*
X173584809Y-69627523D02*
X173584809Y-68357523D01*
X173463857Y-68538952D01*
X173342904Y-68659904D01*
X173221952Y-68720380D01*
X137879666Y-67122523D02*
X137879666Y-68029666D01*
X137819190Y-68211095D01*
X137698238Y-68332047D01*
X137516809Y-68392523D01*
X137395857Y-68392523D01*
X138363476Y-67122523D02*
X139149666Y-67122523D01*
X138726333Y-67606333D01*
X138907761Y-67606333D01*
X139028714Y-67666809D01*
X139089190Y-67727285D01*
X139149666Y-67848238D01*
X139149666Y-68150619D01*
X139089190Y-68271571D01*
X139028714Y-68332047D01*
X138907761Y-68392523D01*
X138544904Y-68392523D01*
X138423952Y-68332047D01*
X138363476Y-68271571D01*
X141308666Y-67249523D02*
X141308666Y-68156666D01*
X141248190Y-68338095D01*
X141127238Y-68459047D01*
X140945809Y-68519523D01*
X140824857Y-68519523D01*
X142457714Y-67672857D02*
X142457714Y-68519523D01*
X142155333Y-67189047D02*
X141852952Y-68096190D01*
X142639142Y-68096190D01*
X173820666Y-117263523D02*
X173820666Y-118170666D01*
X173760190Y-118352095D01*
X173639238Y-118473047D01*
X173457809Y-118533523D01*
X173336857Y-118533523D01*
X174606857Y-117807809D02*
X174485904Y-117747333D01*
X174425428Y-117686857D01*
X174364952Y-117565904D01*
X174364952Y-117505428D01*
X174425428Y-117384476D01*
X174485904Y-117324000D01*
X174606857Y-117263523D01*
X174848761Y-117263523D01*
X174969714Y-117324000D01*
X175030190Y-117384476D01*
X175090666Y-117505428D01*
X175090666Y-117565904D01*
X175030190Y-117686857D01*
X174969714Y-117747333D01*
X174848761Y-117807809D01*
X174606857Y-117807809D01*
X174485904Y-117868285D01*
X174425428Y-117928761D01*
X174364952Y-118049714D01*
X174364952Y-118291619D01*
X174425428Y-118412571D01*
X174485904Y-118473047D01*
X174606857Y-118533523D01*
X174848761Y-118533523D01*
X174969714Y-118473047D01*
X175030190Y-118412571D01*
X175090666Y-118291619D01*
X175090666Y-118049714D01*
X175030190Y-117928761D01*
X174969714Y-117868285D01*
X174848761Y-117807809D01*
D10*
X152882619Y-104456095D02*
X152073095Y-104456095D01*
X151977857Y-104503714D01*
X151930238Y-104551333D01*
X151882619Y-104646571D01*
X151882619Y-104837047D01*
X151930238Y-104932285D01*
X151977857Y-104979904D01*
X152073095Y-105027523D01*
X152882619Y-105027523D01*
X151882619Y-106027523D02*
X151882619Y-105456095D01*
X151882619Y-105741809D02*
X152882619Y-105741809D01*
X152739761Y-105646571D01*
X152644523Y-105551333D01*
X152596904Y-105456095D01*
D15*
X154942142Y-81989428D02*
X154942142Y-82503714D01*
X154942142Y-82246571D02*
X154042142Y-82246571D01*
X154170714Y-82332285D01*
X154256428Y-82418000D01*
X154299285Y-82503714D01*
X154042142Y-81432285D02*
X154042142Y-81346571D01*
X154085000Y-81260857D01*
X154127857Y-81218000D01*
X154213571Y-81175142D01*
X154385000Y-81132285D01*
X154599285Y-81132285D01*
X154770714Y-81175142D01*
X154856428Y-81218000D01*
X154899285Y-81260857D01*
X154942142Y-81346571D01*
X154942142Y-81432285D01*
X154899285Y-81518000D01*
X154856428Y-81560857D01*
X154770714Y-81603714D01*
X154599285Y-81646571D01*
X154385000Y-81646571D01*
X154213571Y-81603714D01*
X154127857Y-81560857D01*
X154085000Y-81518000D01*
X154042142Y-81432285D01*
X176442142Y-82060857D02*
X176442142Y-81975142D01*
X176485000Y-81889428D01*
X176527857Y-81846571D01*
X176613571Y-81803714D01*
X176785000Y-81760857D01*
X176999285Y-81760857D01*
X177170714Y-81803714D01*
X177256428Y-81846571D01*
X177299285Y-81889428D01*
X177342142Y-81975142D01*
X177342142Y-82060857D01*
X177299285Y-82146571D01*
X177256428Y-82189428D01*
X177170714Y-82232285D01*
X176999285Y-82275142D01*
X176785000Y-82275142D01*
X176613571Y-82232285D01*
X176527857Y-82189428D01*
X176485000Y-82146571D01*
X176442142Y-82060857D01*
X153927857Y-105103714D02*
X153885000Y-105060857D01*
X153842142Y-104975142D01*
X153842142Y-104760857D01*
X153885000Y-104675142D01*
X153927857Y-104632285D01*
X154013571Y-104589428D01*
X154099285Y-104589428D01*
X154227857Y-104632285D01*
X154742142Y-105146571D01*
X154742142Y-104589428D01*
X153842142Y-104032285D02*
X153842142Y-103946571D01*
X153885000Y-103860857D01*
X153927857Y-103818000D01*
X154013571Y-103775142D01*
X154185000Y-103732285D01*
X154399285Y-103732285D01*
X154570714Y-103775142D01*
X154656428Y-103818000D01*
X154699285Y-103860857D01*
X154742142Y-103946571D01*
X154742142Y-104032285D01*
X154699285Y-104118000D01*
X154656428Y-104160857D01*
X154570714Y-104203714D01*
X154399285Y-104246571D01*
X154185000Y-104246571D01*
X154013571Y-104203714D01*
X153927857Y-104160857D01*
X153885000Y-104118000D01*
X153842142Y-104032285D01*
X176485000Y-104382285D02*
X176442142Y-104468000D01*
X176442142Y-104596571D01*
X176485000Y-104725142D01*
X176570714Y-104810857D01*
X176656428Y-104853714D01*
X176827857Y-104896571D01*
X176956428Y-104896571D01*
X177127857Y-104853714D01*
X177213571Y-104810857D01*
X177299285Y-104725142D01*
X177342142Y-104596571D01*
X177342142Y-104510857D01*
X177299285Y-104382285D01*
X177256428Y-104339428D01*
X176956428Y-104339428D01*
X176956428Y-104510857D01*
D10*
X158162666Y-113498380D02*
X158162666Y-114212666D01*
X158115047Y-114355523D01*
X158019809Y-114450761D01*
X157876952Y-114498380D01*
X157781714Y-114498380D01*
X158591238Y-113593619D02*
X158638857Y-113546000D01*
X158734095Y-113498380D01*
X158972190Y-113498380D01*
X159067428Y-113546000D01*
X159115047Y-113593619D01*
X159162666Y-113688857D01*
X159162666Y-113784095D01*
X159115047Y-113926952D01*
X158543619Y-114498380D01*
X159162666Y-114498380D01*
%LPC*%
D17*
X159430000Y-74803000D03*
X159430000Y-73533000D03*
X159430000Y-72263000D03*
X159430000Y-70993000D03*
X159430000Y-69723000D03*
X159430000Y-68453000D03*
X159430000Y-67183000D03*
X154006000Y-67183000D03*
X154006000Y-68453000D03*
X154006000Y-69723000D03*
X154006000Y-70993000D03*
X154006000Y-72263000D03*
X154006000Y-73533000D03*
X154006000Y-74803000D03*
D18*
X174401000Y-71103000D03*
X173751000Y-71103000D03*
X173101000Y-71103000D03*
X172451000Y-71103000D03*
X171801000Y-71103000D03*
D19*
X176676000Y-68453000D03*
X169526000Y-68453000D03*
D20*
X174226000Y-68453000D03*
X171976000Y-68453000D03*
D21*
X175421000Y-70683000D03*
X170781000Y-70683000D03*
D22*
X130810000Y-68072000D03*
D23*
X130810000Y-70612000D03*
X130810000Y-73152000D03*
X130810000Y-75692000D03*
X130810000Y-78232000D03*
X130810000Y-80772000D03*
X130810000Y-83312000D03*
X130810000Y-85852000D03*
X130810000Y-88392000D03*
X130810000Y-90932000D03*
X130810000Y-93472000D03*
X130810000Y-96012000D03*
X130810000Y-98552000D03*
X130810000Y-101092000D03*
X130810000Y-103632000D03*
X130810000Y-106172000D03*
X130810000Y-108712000D03*
X130810000Y-111252000D03*
X130810000Y-113792000D03*
X130810000Y-116332000D03*
X146250000Y-116332000D03*
X146250000Y-113792000D03*
X146250000Y-111252000D03*
X146250000Y-108712000D03*
X146250000Y-106172000D03*
X146250000Y-103632000D03*
X146250000Y-101092000D03*
X146250000Y-98552000D03*
X146250000Y-96012000D03*
X146250000Y-93472000D03*
X146250000Y-90932000D03*
X146250000Y-88392000D03*
X146250000Y-85852000D03*
X146250000Y-83312000D03*
X146250000Y-80772000D03*
X146250000Y-78232000D03*
X146250000Y-75692000D03*
X146250000Y-73152000D03*
X146250000Y-70612000D03*
X146250000Y-68072000D03*
X149171000Y-68072000D03*
X149171000Y-70612000D03*
X149171000Y-73152000D03*
X149171000Y-75692000D03*
X149171000Y-78232000D03*
X149171000Y-80772000D03*
X149171000Y-83312000D03*
X149171000Y-85852000D03*
X149171000Y-88392000D03*
X149171000Y-90932000D03*
X149171000Y-93472000D03*
X149171000Y-96012000D03*
X149171000Y-98552000D03*
X149171000Y-101092000D03*
X149171000Y-103632000D03*
X149171000Y-106172000D03*
X149171000Y-108712000D03*
X149171000Y-111252000D03*
X149171000Y-113792000D03*
X149171000Y-116332000D03*
X133731000Y-116332000D03*
X133731000Y-113792000D03*
X133731000Y-111252000D03*
X133731000Y-108712000D03*
X133731000Y-106172000D03*
X133731000Y-103632000D03*
X133731000Y-101092000D03*
X133731000Y-98552000D03*
X133731000Y-96012000D03*
X133731000Y-93472000D03*
X133731000Y-90932000D03*
X133731000Y-88392000D03*
X133731000Y-85852000D03*
X133731000Y-83312000D03*
X133731000Y-80772000D03*
X133731000Y-78232000D03*
X133731000Y-75692000D03*
X133731000Y-73152000D03*
X133731000Y-70612000D03*
D22*
X133731000Y-68072000D03*
D24*
X163830000Y-68072000D03*
D25*
X170744000Y-111719000D03*
X173244000Y-111719000D03*
X175244000Y-111719000D03*
X177744000Y-111719000D03*
D26*
X167844000Y-115419000D03*
X180644000Y-115419000D03*
D24*
X174117000Y-76454000D03*
D27*
X171577000Y-76454000D03*
D28*
X176735000Y-84218000D03*
D29*
X177385000Y-84218000D03*
X177385000Y-86218000D03*
D28*
X176735000Y-86218000D03*
X176735000Y-88218000D03*
D29*
X177385000Y-88218000D03*
X177385000Y-90218000D03*
D28*
X176735000Y-90218000D03*
X176735000Y-92218000D03*
D29*
X177385000Y-92218000D03*
D28*
X176735000Y-94218000D03*
D29*
X177385000Y-94218000D03*
X177385000Y-96218000D03*
D28*
X176735000Y-96218000D03*
D29*
X177385000Y-98218000D03*
D28*
X176735000Y-98218000D03*
X176735000Y-100218000D03*
D29*
X177385000Y-100218000D03*
D28*
X176735000Y-102218000D03*
D29*
X177385000Y-102218000D03*
D30*
X174735000Y-104868000D03*
D28*
X174735000Y-104218000D03*
D30*
X172735000Y-104868000D03*
D28*
X172735000Y-104218000D03*
D30*
X170735000Y-104868000D03*
D28*
X170735000Y-104218000D03*
D30*
X168735000Y-104868000D03*
D28*
X168735000Y-104218000D03*
X166735000Y-104218000D03*
D30*
X166735000Y-104868000D03*
X164735000Y-104868000D03*
D28*
X164735000Y-104218000D03*
X162735000Y-104218000D03*
D30*
X162735000Y-104868000D03*
X160735000Y-104868000D03*
D28*
X160735000Y-104218000D03*
D30*
X158735000Y-104868000D03*
D28*
X158735000Y-104218000D03*
D30*
X156735000Y-104868000D03*
D28*
X156735000Y-104218000D03*
X154735000Y-102218000D03*
D29*
X154085000Y-102218000D03*
D28*
X154735000Y-100218000D03*
D29*
X154085000Y-100218000D03*
X154085000Y-98218000D03*
D28*
X154735000Y-98218000D03*
D29*
X154085000Y-96218000D03*
D28*
X154735000Y-96218000D03*
X154735000Y-94218000D03*
D29*
X154085000Y-94218000D03*
X154085000Y-92218000D03*
D28*
X154735000Y-92218000D03*
D29*
X154085000Y-90218000D03*
D28*
X154735000Y-90218000D03*
D29*
X154085000Y-88218000D03*
D28*
X154735000Y-88218000D03*
D29*
X154085000Y-86218000D03*
D28*
X154735000Y-86218000D03*
X154735000Y-84218000D03*
D29*
X154085000Y-84218000D03*
D30*
X156735000Y-81568000D03*
D28*
X156735000Y-82218000D03*
D30*
X158735000Y-81568000D03*
D28*
X158735000Y-82218000D03*
D30*
X160735000Y-81568000D03*
D28*
X160735000Y-82218000D03*
X162735000Y-82218000D03*
D30*
X162735000Y-81568000D03*
X164735000Y-81568000D03*
D28*
X164735000Y-82218000D03*
X166735000Y-82218000D03*
D30*
X166735000Y-81568000D03*
X168735000Y-81568000D03*
D28*
X168735000Y-82218000D03*
X170735000Y-82218000D03*
D30*
X170735000Y-81568000D03*
D28*
X172735000Y-82218000D03*
D30*
X172735000Y-81568000D03*
X174735000Y-81568000D03*
D31*
X174735000Y-82218000D03*
D24*
X162179000Y-110998000D03*
D27*
X159639000Y-110998000D03*
X157099000Y-110998000D03*
X154559000Y-110998000D03*
M02*
