G04 #@! TF.GenerationSoftware,KiCad,Pcbnew,(5.1.6)-1*
G04 #@! TF.CreationDate,2024-01-17T07:30:29-05:00*
G04 #@! TF.ProjectId,amiga-2000-usb-kb-stamp,616d6967-612d-4323-9030-302d7573622d,rev?*
G04 #@! TF.SameCoordinates,Original*
G04 #@! TF.FileFunction,Soldermask,Top*
G04 #@! TF.FilePolarity,Negative*
%FSLAX46Y46*%
G04 Gerber Fmt 4.6, Leading zero omitted, Abs format (unit mm)*
G04 Created by KiCad (PCBNEW (5.1.6)-1) date 2024-01-17 07:30:29*
%MOMM*%
%LPD*%
G01*
G04 APERTURE LIST*
%ADD10R,1.625000X0.750000*%
%ADD11R,0.500000X1.500000*%
%ADD12C,1.950000*%
%ADD13R,1.850000X2.000000*%
%ADD14R,1.250000X1.550000*%
%ADD15R,1.900000X1.900000*%
%ADD16C,1.900000*%
%ADD17R,1.800000X1.800000*%
%ADD18R,1.400000X3.100000*%
%ADD19C,3.670000*%
%ADD20O,1.800000X1.800000*%
%ADD21O,1.450000X1.450000*%
%ADD22R,2.900000X1.600000*%
%ADD23R,1.600000X2.900000*%
%ADD24C,1.450000*%
G04 APERTURE END LIST*
D10*
X159430000Y-74803000D03*
X159430000Y-73533000D03*
X159430000Y-72263000D03*
X159430000Y-70993000D03*
X159430000Y-69723000D03*
X159430000Y-68453000D03*
X159430000Y-67183000D03*
X154006000Y-67183000D03*
X154006000Y-68453000D03*
X154006000Y-69723000D03*
X154006000Y-70993000D03*
X154006000Y-72263000D03*
X154006000Y-73533000D03*
X154006000Y-74803000D03*
D11*
X174401000Y-71103000D03*
X173751000Y-71103000D03*
X173101000Y-71103000D03*
X172451000Y-71103000D03*
X171801000Y-71103000D03*
D12*
X176676000Y-68453000D03*
X169526000Y-68453000D03*
D13*
X174226000Y-68453000D03*
X171976000Y-68453000D03*
D14*
X175421000Y-70683000D03*
X170781000Y-70683000D03*
D15*
X130810000Y-68072000D03*
D16*
X130810000Y-70612000D03*
X130810000Y-73152000D03*
X130810000Y-75692000D03*
X130810000Y-78232000D03*
X130810000Y-80772000D03*
X130810000Y-83312000D03*
X130810000Y-85852000D03*
X130810000Y-88392000D03*
X130810000Y-90932000D03*
X130810000Y-93472000D03*
X130810000Y-96012000D03*
X130810000Y-98552000D03*
X130810000Y-101092000D03*
X130810000Y-103632000D03*
X130810000Y-106172000D03*
X130810000Y-108712000D03*
X130810000Y-111252000D03*
X130810000Y-113792000D03*
X130810000Y-116332000D03*
X146250000Y-116332000D03*
X146250000Y-113792000D03*
X146250000Y-111252000D03*
X146250000Y-108712000D03*
X146250000Y-106172000D03*
X146250000Y-103632000D03*
X146250000Y-101092000D03*
X146250000Y-98552000D03*
X146250000Y-96012000D03*
X146250000Y-93472000D03*
X146250000Y-90932000D03*
X146250000Y-88392000D03*
X146250000Y-85852000D03*
X146250000Y-83312000D03*
X146250000Y-80772000D03*
X146250000Y-78232000D03*
X146250000Y-75692000D03*
X146250000Y-73152000D03*
X146250000Y-70612000D03*
X146250000Y-68072000D03*
X149171000Y-68072000D03*
X149171000Y-70612000D03*
X149171000Y-73152000D03*
X149171000Y-75692000D03*
X149171000Y-78232000D03*
X149171000Y-80772000D03*
X149171000Y-83312000D03*
X149171000Y-85852000D03*
X149171000Y-88392000D03*
X149171000Y-90932000D03*
X149171000Y-93472000D03*
X149171000Y-96012000D03*
X149171000Y-98552000D03*
X149171000Y-101092000D03*
X149171000Y-103632000D03*
X149171000Y-106172000D03*
X149171000Y-108712000D03*
X149171000Y-111252000D03*
X149171000Y-113792000D03*
X149171000Y-116332000D03*
X133731000Y-116332000D03*
X133731000Y-113792000D03*
X133731000Y-111252000D03*
X133731000Y-108712000D03*
X133731000Y-106172000D03*
X133731000Y-103632000D03*
X133731000Y-101092000D03*
X133731000Y-98552000D03*
X133731000Y-96012000D03*
X133731000Y-93472000D03*
X133731000Y-90932000D03*
X133731000Y-88392000D03*
X133731000Y-85852000D03*
X133731000Y-83312000D03*
X133731000Y-80772000D03*
X133731000Y-78232000D03*
X133731000Y-75692000D03*
X133731000Y-73152000D03*
X133731000Y-70612000D03*
D15*
X133731000Y-68072000D03*
D17*
X163830000Y-68072000D03*
D18*
X170744000Y-111719000D03*
X173244000Y-111719000D03*
X175244000Y-111719000D03*
X177744000Y-111719000D03*
D19*
X167844000Y-115419000D03*
X180644000Y-115419000D03*
D17*
X174117000Y-76454000D03*
D20*
X171577000Y-76454000D03*
D21*
X176735000Y-84218000D03*
D22*
X177385000Y-84218000D03*
X177385000Y-86218000D03*
D21*
X176735000Y-86218000D03*
X176735000Y-88218000D03*
D22*
X177385000Y-88218000D03*
X177385000Y-90218000D03*
D21*
X176735000Y-90218000D03*
X176735000Y-92218000D03*
D22*
X177385000Y-92218000D03*
D21*
X176735000Y-94218000D03*
D22*
X177385000Y-94218000D03*
X177385000Y-96218000D03*
D21*
X176735000Y-96218000D03*
D22*
X177385000Y-98218000D03*
D21*
X176735000Y-98218000D03*
X176735000Y-100218000D03*
D22*
X177385000Y-100218000D03*
D21*
X176735000Y-102218000D03*
D22*
X177385000Y-102218000D03*
D23*
X174735000Y-104868000D03*
D21*
X174735000Y-104218000D03*
D23*
X172735000Y-104868000D03*
D21*
X172735000Y-104218000D03*
D23*
X170735000Y-104868000D03*
D21*
X170735000Y-104218000D03*
D23*
X168735000Y-104868000D03*
D21*
X168735000Y-104218000D03*
X166735000Y-104218000D03*
D23*
X166735000Y-104868000D03*
X164735000Y-104868000D03*
D21*
X164735000Y-104218000D03*
X162735000Y-104218000D03*
D23*
X162735000Y-104868000D03*
X160735000Y-104868000D03*
D21*
X160735000Y-104218000D03*
D23*
X158735000Y-104868000D03*
D21*
X158735000Y-104218000D03*
D23*
X156735000Y-104868000D03*
D21*
X156735000Y-104218000D03*
X154735000Y-102218000D03*
D22*
X154085000Y-102218000D03*
D21*
X154735000Y-100218000D03*
D22*
X154085000Y-100218000D03*
X154085000Y-98218000D03*
D21*
X154735000Y-98218000D03*
D22*
X154085000Y-96218000D03*
D21*
X154735000Y-96218000D03*
X154735000Y-94218000D03*
D22*
X154085000Y-94218000D03*
X154085000Y-92218000D03*
D21*
X154735000Y-92218000D03*
D22*
X154085000Y-90218000D03*
D21*
X154735000Y-90218000D03*
D22*
X154085000Y-88218000D03*
D21*
X154735000Y-88218000D03*
D22*
X154085000Y-86218000D03*
D21*
X154735000Y-86218000D03*
X154735000Y-84218000D03*
D22*
X154085000Y-84218000D03*
D23*
X156735000Y-81568000D03*
D21*
X156735000Y-82218000D03*
D23*
X158735000Y-81568000D03*
D21*
X158735000Y-82218000D03*
D23*
X160735000Y-81568000D03*
D21*
X160735000Y-82218000D03*
X162735000Y-82218000D03*
D23*
X162735000Y-81568000D03*
X164735000Y-81568000D03*
D21*
X164735000Y-82218000D03*
X166735000Y-82218000D03*
D23*
X166735000Y-81568000D03*
X168735000Y-81568000D03*
D21*
X168735000Y-82218000D03*
X170735000Y-82218000D03*
D23*
X170735000Y-81568000D03*
D21*
X172735000Y-82218000D03*
D23*
X172735000Y-81568000D03*
X174735000Y-81568000D03*
D24*
X174735000Y-82218000D03*
D17*
X162179000Y-110998000D03*
D20*
X159639000Y-110998000D03*
X157099000Y-110998000D03*
X154559000Y-110998000D03*
M02*
