%FSLAX45Y45*%
G04 Gerber Fmt 4.5, Leading zero omitted, Abs format (unit mm)*
G04 Created by KiCad (PCBNEW (5.1.6)-1) date 2024-01-17 07:30:32*
%MOMM*%
%LPD*%
G01*
G04 APERTURE LIST*
%TA.AperFunction,Profile*%
%ADD10C,0.050000*%
%TD*%
%ADD11C,0.200000*%
%ADD12C,0.300000*%
G04 APERTURE END LIST*
D10*
X12827000Y-11899900D02*
X12877800Y-11899900D01*
X12827000Y-6604000D02*
X12827000Y-11899900D01*
X18351500Y-6604000D02*
X12827000Y-6604000D01*
X18351500Y-11899900D02*
X18351500Y-6604000D01*
X12877800Y-11899900D02*
X18351500Y-11899900D01*
D11*
D12*
X13110928Y-12368114D02*
X13110928Y-12068114D01*
X13182357Y-12068114D01*
X13225214Y-12082400D01*
X13253786Y-12110971D01*
X13268071Y-12139543D01*
X13282357Y-12196686D01*
X13282357Y-12239543D01*
X13268071Y-12296686D01*
X13253786Y-12325257D01*
X13225214Y-12353829D01*
X13182357Y-12368114D01*
X13110928Y-12368114D01*
X13410928Y-12368114D02*
X13410928Y-12168114D01*
X13410928Y-12225257D02*
X13425214Y-12196686D01*
X13439500Y-12182400D01*
X13468071Y-12168114D01*
X13496643Y-12168114D01*
X13596643Y-12368114D02*
X13596643Y-12168114D01*
X13596643Y-12068114D02*
X13582357Y-12082400D01*
X13596643Y-12096686D01*
X13610928Y-12082400D01*
X13596643Y-12068114D01*
X13596643Y-12096686D01*
X13782357Y-12368114D02*
X13753786Y-12353829D01*
X13739500Y-12325257D01*
X13739500Y-12068114D01*
X13939500Y-12368114D02*
X13910928Y-12353829D01*
X13896643Y-12325257D01*
X13896643Y-12068114D01*
X14282357Y-12368114D02*
X14282357Y-12068114D01*
X14382357Y-12282400D01*
X14482357Y-12068114D01*
X14482357Y-12368114D01*
X14753786Y-12368114D02*
X14753786Y-12210971D01*
X14739500Y-12182400D01*
X14710928Y-12168114D01*
X14653786Y-12168114D01*
X14625214Y-12182400D01*
X14753786Y-12353829D02*
X14725214Y-12368114D01*
X14653786Y-12368114D01*
X14625214Y-12353829D01*
X14610928Y-12325257D01*
X14610928Y-12296686D01*
X14625214Y-12268114D01*
X14653786Y-12253829D01*
X14725214Y-12253829D01*
X14753786Y-12239543D01*
X14896643Y-12168114D02*
X14896643Y-12468114D01*
X14896643Y-12182400D02*
X14925214Y-12168114D01*
X14982357Y-12168114D01*
X15010928Y-12182400D01*
X15025214Y-12196686D01*
X15039500Y-12225257D01*
X15039500Y-12310971D01*
X15025214Y-12339543D01*
X15010928Y-12353829D01*
X14982357Y-12368114D01*
X14925214Y-12368114D01*
X14896643Y-12353829D01*
X15168071Y-12339543D02*
X15182357Y-12353829D01*
X15168071Y-12368114D01*
X15153786Y-12353829D01*
X15168071Y-12339543D01*
X15168071Y-12368114D01*
X15168071Y-12182400D02*
X15182357Y-12196686D01*
X15168071Y-12210971D01*
X15153786Y-12196686D01*
X15168071Y-12182400D01*
X15168071Y-12210971D01*
M02*
