M48
; DRILL file {KiCad (5.1.6)-1} date 01/17/24 07:30:31
; FORMAT={-:-/ absolute / metric / decimal}
; #@! TF.CreationDate,2024-01-17T07:30:31-05:00
; #@! TF.GenerationSoftware,Kicad,Pcbnew,(5.1.6)-1
; #@! TF.FileFunction,Plated,1,2,PTH
FMAT,2
METRIC
T1C0.400
T2C0.800
T3C1.000
T4C1.200
T5C1.329
T6C2.380
%
G90
G05
T1
X152.146Y-67.183
X152.273Y-74.803
X155.702Y-70.993
X161.163Y-74.803
X161.671Y-114.173
X162.687Y-72.263
X165.735Y-77.216
X173.482Y-114.681
X177.673Y-105.156
X179.959Y-95.758
X180.975Y-97.917
X182.15Y-94.107
X182.88Y-92.202
T2
X154.735Y-84.218
X154.735Y-86.218
X154.735Y-88.218
X154.735Y-90.218
X154.735Y-92.218
X154.735Y-94.218
X154.735Y-96.218
X154.735Y-98.218
X154.735Y-100.218
X154.735Y-102.218
X156.735Y-82.218
X156.735Y-104.218
X158.735Y-82.218
X158.735Y-104.218
X160.735Y-82.218
X160.735Y-104.218
X162.735Y-82.218
X162.735Y-104.218
X164.735Y-82.218
X164.735Y-104.218
X166.735Y-82.218
X166.735Y-104.218
X168.735Y-82.218
X168.735Y-104.218
X170.735Y-82.218
X170.735Y-104.218
X172.735Y-82.218
X172.735Y-104.218
X174.735Y-82.218
X174.735Y-104.218
X176.735Y-84.218
X176.735Y-86.218
X176.735Y-88.218
X176.735Y-90.218
X176.735Y-92.218
X176.735Y-94.218
X176.735Y-96.218
X176.735Y-98.218
X176.735Y-100.218
X176.735Y-102.218
T3
X171.577Y-76.454
X174.117Y-76.454
X154.559Y-110.998
X157.099Y-110.998
X159.639Y-110.998
X162.179Y-110.998
X163.83Y-68.072
T4
X130.81Y-68.072
X130.81Y-70.612
X130.81Y-73.152
X130.81Y-75.692
X130.81Y-78.232
X130.81Y-80.772
X130.81Y-83.312
X130.81Y-85.852
X130.81Y-88.392
X130.81Y-90.932
X130.81Y-93.472
X130.81Y-96.012
X130.81Y-98.552
X130.81Y-101.092
X130.81Y-103.632
X130.81Y-106.172
X130.81Y-108.712
X130.81Y-111.252
X130.81Y-113.792
X130.81Y-116.332
X146.25Y-68.072
X146.25Y-70.612
X146.25Y-73.152
X146.25Y-75.692
X146.25Y-78.232
X146.25Y-80.772
X146.25Y-83.312
X146.25Y-85.852
X146.25Y-88.392
X146.25Y-90.932
X146.25Y-93.472
X146.25Y-96.012
X146.25Y-98.552
X146.25Y-101.092
X146.25Y-103.632
X146.25Y-106.172
X146.25Y-108.712
X146.25Y-111.252
X146.25Y-113.792
X146.25Y-116.332
X133.731Y-68.072
X133.731Y-70.612
X133.731Y-73.152
X133.731Y-75.692
X133.731Y-78.232
X133.731Y-80.772
X133.731Y-83.312
X133.731Y-85.852
X133.731Y-88.392
X133.731Y-90.932
X133.731Y-93.472
X133.731Y-96.012
X133.731Y-98.552
X133.731Y-101.092
X133.731Y-103.632
X133.731Y-106.172
X133.731Y-108.712
X133.731Y-111.252
X133.731Y-113.792
X133.731Y-116.332
X149.171Y-68.072
X149.171Y-70.612
X149.171Y-73.152
X149.171Y-75.692
X149.171Y-78.232
X149.171Y-80.772
X149.171Y-83.312
X149.171Y-85.852
X149.171Y-88.392
X149.171Y-90.932
X149.171Y-93.472
X149.171Y-96.012
X149.171Y-98.552
X149.171Y-101.092
X149.171Y-103.632
X149.171Y-106.172
X149.171Y-108.712
X149.171Y-111.252
X149.171Y-113.792
X149.171Y-116.332
T5
X169.526Y-68.453
X176.676Y-68.453
T6
X167.844Y-115.419
X180.644Y-115.419
T0
M30
