%FSLAX45Y45*%
G04 Gerber Fmt 4.5, Leading zero omitted, Abs format (unit mm)*
G04 Created by KiCad (PCBNEW (5.1.6)-1) date 2024-01-17 07:30:32*
%MOMM*%
%LPD*%
G01*
G04 APERTURE LIST*
%TA.AperFunction,Profile*%
%ADD10C,0.050000*%
%TD*%
%ADD11C,0.200000*%
%ADD12C,0.300000*%
G04 APERTURE END LIST*
D10*
X12827000Y-11899900D02*
X12877800Y-11899900D01*
X12827000Y-6604000D02*
X12827000Y-11899900D01*
X18351500Y-6604000D02*
X12827000Y-6604000D01*
X18351500Y-11899900D02*
X18351500Y-6604000D01*
X12877800Y-11899900D02*
X18351500Y-11899900D01*
D11*
X15194600Y-6698300D02*
X15234600Y-6738300D01*
X15234600Y-6698300D02*
X15194600Y-6738300D01*
X15207300Y-7460300D02*
X15247300Y-7500300D01*
X15247300Y-7460300D02*
X15207300Y-7500300D01*
X15550200Y-7079300D02*
X15590200Y-7119300D01*
X15590200Y-7079300D02*
X15550200Y-7119300D01*
X16096300Y-7460300D02*
X16136300Y-7500300D01*
X16136300Y-7460300D02*
X16096300Y-7500300D01*
X16147100Y-11397300D02*
X16187100Y-11437300D01*
X16187100Y-11397300D02*
X16147100Y-11437300D01*
X16248700Y-7206300D02*
X16288700Y-7246300D01*
X16288700Y-7206300D02*
X16248700Y-7246300D01*
X16553500Y-7701600D02*
X16593500Y-7741600D01*
X16593500Y-7701600D02*
X16553500Y-7741600D01*
X17328200Y-11448100D02*
X17368200Y-11488100D01*
X17368200Y-11448100D02*
X17328200Y-11488100D01*
X17747300Y-10495600D02*
X17787300Y-10535600D01*
X17787300Y-10495600D02*
X17747300Y-10535600D01*
X17975900Y-9555800D02*
X18015900Y-9595800D01*
X18015900Y-9555800D02*
X17975900Y-9595800D01*
X18077500Y-9771700D02*
X18117500Y-9811700D01*
X18117500Y-9771700D02*
X18077500Y-9811700D01*
X18195001Y-9390700D02*
X18235001Y-9430700D01*
X18235001Y-9390700D02*
X18195001Y-9430700D01*
X18268000Y-9200200D02*
X18308000Y-9240200D01*
X18308000Y-9200200D02*
X18268000Y-9240200D01*
X15513500Y-8421800D02*
G75*
G03*
X15513500Y-8421800I-40000J0D01*
G01*
X15513500Y-8621800D02*
G75*
G03*
X15513500Y-8621800I-40000J0D01*
G01*
X15513500Y-8821800D02*
G75*
G03*
X15513500Y-8821800I-40000J0D01*
G01*
X15513500Y-9021800D02*
G75*
G03*
X15513500Y-9021800I-40000J0D01*
G01*
X15513500Y-9221800D02*
G75*
G03*
X15513500Y-9221800I-40000J0D01*
G01*
X15513500Y-9421800D02*
G75*
G03*
X15513500Y-9421800I-40000J0D01*
G01*
X15513500Y-9621800D02*
G75*
G03*
X15513500Y-9621800I-40000J0D01*
G01*
X15513500Y-9821800D02*
G75*
G03*
X15513500Y-9821800I-40000J0D01*
G01*
X15513500Y-10021800D02*
G75*
G03*
X15513500Y-10021800I-40000J0D01*
G01*
X15513500Y-10221800D02*
G75*
G03*
X15513500Y-10221800I-40000J0D01*
G01*
X15713500Y-8221800D02*
G75*
G03*
X15713500Y-8221800I-40000J0D01*
G01*
X15713500Y-10421800D02*
G75*
G03*
X15713500Y-10421800I-40000J0D01*
G01*
X15913500Y-8221800D02*
G75*
G03*
X15913500Y-8221800I-40000J0D01*
G01*
X15913500Y-10421800D02*
G75*
G03*
X15913500Y-10421800I-40000J0D01*
G01*
X16113500Y-8221800D02*
G75*
G03*
X16113500Y-8221800I-40000J0D01*
G01*
X16113500Y-10421800D02*
G75*
G03*
X16113500Y-10421800I-40000J0D01*
G01*
X16313500Y-8221800D02*
G75*
G03*
X16313500Y-8221800I-40000J0D01*
G01*
X16313500Y-10421800D02*
G75*
G03*
X16313500Y-10421800I-40000J0D01*
G01*
X16513500Y-8221800D02*
G75*
G03*
X16513500Y-8221800I-40000J0D01*
G01*
X16513500Y-10421800D02*
G75*
G03*
X16513500Y-10421800I-40000J0D01*
G01*
X16713500Y-8221800D02*
G75*
G03*
X16713500Y-8221800I-40000J0D01*
G01*
X16713500Y-10421800D02*
G75*
G03*
X16713500Y-10421800I-40000J0D01*
G01*
X16913500Y-8221800D02*
G75*
G03*
X16913500Y-8221800I-40000J0D01*
G01*
X16913500Y-10421800D02*
G75*
G03*
X16913500Y-10421800I-40000J0D01*
G01*
X17113500Y-8221800D02*
G75*
G03*
X17113500Y-8221800I-40000J0D01*
G01*
X17113500Y-10421800D02*
G75*
G03*
X17113500Y-10421800I-40000J0D01*
G01*
X17313500Y-8221800D02*
G75*
G03*
X17313500Y-8221800I-40000J0D01*
G01*
X17313500Y-10421800D02*
G75*
G03*
X17313500Y-10421800I-40000J0D01*
G01*
X17513500Y-8221800D02*
G75*
G03*
X17513500Y-8221800I-40000J0D01*
G01*
X17513500Y-10421800D02*
G75*
G03*
X17513500Y-10421800I-40000J0D01*
G01*
X17713500Y-8421800D02*
G75*
G03*
X17713500Y-8421800I-40000J0D01*
G01*
X17713500Y-8621800D02*
G75*
G03*
X17713500Y-8621800I-40000J0D01*
G01*
X17713500Y-8821800D02*
G75*
G03*
X17713500Y-8821800I-40000J0D01*
G01*
X17713500Y-9021800D02*
G75*
G03*
X17713500Y-9021800I-40000J0D01*
G01*
X17713500Y-9221800D02*
G75*
G03*
X17713500Y-9221800I-40000J0D01*
G01*
X17713500Y-9421800D02*
G75*
G03*
X17713500Y-9421800I-40000J0D01*
G01*
X17713500Y-9621800D02*
G75*
G03*
X17713500Y-9621800I-40000J0D01*
G01*
X17713500Y-9821800D02*
G75*
G03*
X17713500Y-9821800I-40000J0D01*
G01*
X17713500Y-10021800D02*
G75*
G03*
X17713500Y-10021800I-40000J0D01*
G01*
X17713500Y-10221800D02*
G75*
G03*
X17713500Y-10221800I-40000J0D01*
G01*
X17157700Y-7595400D02*
X17157700Y-7695400D01*
X17107700Y-7645400D02*
X17207700Y-7645400D01*
X17411700Y-7595400D02*
X17411700Y-7695400D01*
X17361700Y-7645400D02*
X17461700Y-7645400D01*
X15455900Y-11049800D02*
X15455900Y-11149800D01*
X15405900Y-11099800D02*
X15505900Y-11099800D01*
X15709900Y-11049800D02*
X15709900Y-11149800D01*
X15659900Y-11099800D02*
X15759900Y-11099800D01*
X15963900Y-11049800D02*
X15963900Y-11149800D01*
X15913900Y-11099800D02*
X16013900Y-11099800D01*
X16217900Y-11049800D02*
X16217900Y-11149800D01*
X16167900Y-11099800D02*
X16267900Y-11099800D01*
X16383000Y-6757200D02*
X16383000Y-6857200D01*
X16333000Y-6807200D02*
X16433000Y-6807200D01*
X13123427Y-6849627D02*
X13123427Y-6764773D01*
X13038573Y-6764773D01*
X13038573Y-6849627D01*
X13123427Y-6849627D01*
X13123427Y-7103627D02*
X13123427Y-7018773D01*
X13038573Y-7018773D01*
X13038573Y-7103627D01*
X13123427Y-7103627D01*
X13123427Y-7357627D02*
X13123427Y-7272773D01*
X13038573Y-7272773D01*
X13038573Y-7357627D01*
X13123427Y-7357627D01*
X13123427Y-7611627D02*
X13123427Y-7526773D01*
X13038573Y-7526773D01*
X13038573Y-7611627D01*
X13123427Y-7611627D01*
X13123427Y-7865627D02*
X13123427Y-7780773D01*
X13038573Y-7780773D01*
X13038573Y-7865627D01*
X13123427Y-7865627D01*
X13123427Y-8119627D02*
X13123427Y-8034773D01*
X13038573Y-8034773D01*
X13038573Y-8119627D01*
X13123427Y-8119627D01*
X13123427Y-8373627D02*
X13123427Y-8288773D01*
X13038573Y-8288773D01*
X13038573Y-8373627D01*
X13123427Y-8373627D01*
X13123427Y-8627627D02*
X13123427Y-8542773D01*
X13038573Y-8542773D01*
X13038573Y-8627627D01*
X13123427Y-8627627D01*
X13123427Y-8881627D02*
X13123427Y-8796773D01*
X13038573Y-8796773D01*
X13038573Y-8881627D01*
X13123427Y-8881627D01*
X13123427Y-9135627D02*
X13123427Y-9050773D01*
X13038573Y-9050773D01*
X13038573Y-9135627D01*
X13123427Y-9135627D01*
X13123427Y-9389627D02*
X13123427Y-9304773D01*
X13038573Y-9304773D01*
X13038573Y-9389627D01*
X13123427Y-9389627D01*
X13123427Y-9643627D02*
X13123427Y-9558773D01*
X13038573Y-9558773D01*
X13038573Y-9643627D01*
X13123427Y-9643627D01*
X13123427Y-9897627D02*
X13123427Y-9812773D01*
X13038573Y-9812773D01*
X13038573Y-9897627D01*
X13123427Y-9897627D01*
X13123427Y-10151627D02*
X13123427Y-10066773D01*
X13038573Y-10066773D01*
X13038573Y-10151627D01*
X13123427Y-10151627D01*
X13123427Y-10405627D02*
X13123427Y-10320773D01*
X13038573Y-10320773D01*
X13038573Y-10405627D01*
X13123427Y-10405627D01*
X13123427Y-10659627D02*
X13123427Y-10574773D01*
X13038573Y-10574773D01*
X13038573Y-10659627D01*
X13123427Y-10659627D01*
X13123427Y-10913627D02*
X13123427Y-10828773D01*
X13038573Y-10828773D01*
X13038573Y-10913627D01*
X13123427Y-10913627D01*
X13123427Y-11167627D02*
X13123427Y-11082773D01*
X13038573Y-11082773D01*
X13038573Y-11167627D01*
X13123427Y-11167627D01*
X13123427Y-11421627D02*
X13123427Y-11336773D01*
X13038573Y-11336773D01*
X13038573Y-11421627D01*
X13123427Y-11421627D01*
X13123427Y-11675627D02*
X13123427Y-11590773D01*
X13038573Y-11590773D01*
X13038573Y-11675627D01*
X13123427Y-11675627D01*
X14667427Y-6849627D02*
X14667427Y-6764773D01*
X14582573Y-6764773D01*
X14582573Y-6849627D01*
X14667427Y-6849627D01*
X14667427Y-7103627D02*
X14667427Y-7018773D01*
X14582573Y-7018773D01*
X14582573Y-7103627D01*
X14667427Y-7103627D01*
X14667427Y-7357627D02*
X14667427Y-7272773D01*
X14582573Y-7272773D01*
X14582573Y-7357627D01*
X14667427Y-7357627D01*
X14667427Y-7611627D02*
X14667427Y-7526773D01*
X14582573Y-7526773D01*
X14582573Y-7611627D01*
X14667427Y-7611627D01*
X14667427Y-7865627D02*
X14667427Y-7780773D01*
X14582573Y-7780773D01*
X14582573Y-7865627D01*
X14667427Y-7865627D01*
X14667427Y-8119627D02*
X14667427Y-8034773D01*
X14582573Y-8034773D01*
X14582573Y-8119627D01*
X14667427Y-8119627D01*
X14667427Y-8373627D02*
X14667427Y-8288773D01*
X14582573Y-8288773D01*
X14582573Y-8373627D01*
X14667427Y-8373627D01*
X14667427Y-8627627D02*
X14667427Y-8542773D01*
X14582573Y-8542773D01*
X14582573Y-8627627D01*
X14667427Y-8627627D01*
X14667427Y-8881627D02*
X14667427Y-8796773D01*
X14582573Y-8796773D01*
X14582573Y-8881627D01*
X14667427Y-8881627D01*
X14667427Y-9135627D02*
X14667427Y-9050773D01*
X14582573Y-9050773D01*
X14582573Y-9135627D01*
X14667427Y-9135627D01*
X14667427Y-9389627D02*
X14667427Y-9304773D01*
X14582573Y-9304773D01*
X14582573Y-9389627D01*
X14667427Y-9389627D01*
X14667427Y-9643627D02*
X14667427Y-9558773D01*
X14582573Y-9558773D01*
X14582573Y-9643627D01*
X14667427Y-9643627D01*
X14667427Y-9897627D02*
X14667427Y-9812773D01*
X14582573Y-9812773D01*
X14582573Y-9897627D01*
X14667427Y-9897627D01*
X14667427Y-10151627D02*
X14667427Y-10066773D01*
X14582573Y-10066773D01*
X14582573Y-10151627D01*
X14667427Y-10151627D01*
X14667427Y-10405627D02*
X14667427Y-10320773D01*
X14582573Y-10320773D01*
X14582573Y-10405627D01*
X14667427Y-10405627D01*
X14667427Y-10659627D02*
X14667427Y-10574773D01*
X14582573Y-10574773D01*
X14582573Y-10659627D01*
X14667427Y-10659627D01*
X14667427Y-10913627D02*
X14667427Y-10828773D01*
X14582573Y-10828773D01*
X14582573Y-10913627D01*
X14667427Y-10913627D01*
X14667427Y-11167627D02*
X14667427Y-11082773D01*
X14582573Y-11082773D01*
X14582573Y-11167627D01*
X14667427Y-11167627D01*
X14667427Y-11421627D02*
X14667427Y-11336773D01*
X14582573Y-11336773D01*
X14582573Y-11421627D01*
X14667427Y-11421627D01*
X14667427Y-11675627D02*
X14667427Y-11590773D01*
X14582573Y-11590773D01*
X14582573Y-11675627D01*
X14667427Y-11675627D01*
X13415527Y-6849627D02*
X13415527Y-6764773D01*
X13330673Y-6764773D01*
X13330673Y-6849627D01*
X13415527Y-6849627D01*
X13415527Y-7103627D02*
X13415527Y-7018773D01*
X13330673Y-7018773D01*
X13330673Y-7103627D01*
X13415527Y-7103627D01*
X13415527Y-7357627D02*
X13415527Y-7272773D01*
X13330673Y-7272773D01*
X13330673Y-7357627D01*
X13415527Y-7357627D01*
X13415527Y-7611627D02*
X13415527Y-7526773D01*
X13330673Y-7526773D01*
X13330673Y-7611627D01*
X13415527Y-7611627D01*
X13415527Y-7865627D02*
X13415527Y-7780773D01*
X13330673Y-7780773D01*
X13330673Y-7865627D01*
X13415527Y-7865627D01*
X13415527Y-8119627D02*
X13415527Y-8034773D01*
X13330673Y-8034773D01*
X13330673Y-8119627D01*
X13415527Y-8119627D01*
X13415527Y-8373627D02*
X13415527Y-8288773D01*
X13330673Y-8288773D01*
X13330673Y-8373627D01*
X13415527Y-8373627D01*
X13415527Y-8627627D02*
X13415527Y-8542773D01*
X13330673Y-8542773D01*
X13330673Y-8627627D01*
X13415527Y-8627627D01*
X13415527Y-8881627D02*
X13415527Y-8796773D01*
X13330673Y-8796773D01*
X13330673Y-8881627D01*
X13415527Y-8881627D01*
X13415527Y-9135627D02*
X13415527Y-9050773D01*
X13330673Y-9050773D01*
X13330673Y-9135627D01*
X13415527Y-9135627D01*
X13415527Y-9389627D02*
X13415527Y-9304773D01*
X13330673Y-9304773D01*
X13330673Y-9389627D01*
X13415527Y-9389627D01*
X13415527Y-9643627D02*
X13415527Y-9558773D01*
X13330673Y-9558773D01*
X13330673Y-9643627D01*
X13415527Y-9643627D01*
X13415527Y-9897627D02*
X13415527Y-9812773D01*
X13330673Y-9812773D01*
X13330673Y-9897627D01*
X13415527Y-9897627D01*
X13415527Y-10151627D02*
X13415527Y-10066773D01*
X13330673Y-10066773D01*
X13330673Y-10151627D01*
X13415527Y-10151627D01*
X13415527Y-10405627D02*
X13415527Y-10320773D01*
X13330673Y-10320773D01*
X13330673Y-10405627D01*
X13415527Y-10405627D01*
X13415527Y-10659627D02*
X13415527Y-10574773D01*
X13330673Y-10574773D01*
X13330673Y-10659627D01*
X13415527Y-10659627D01*
X13415527Y-10913627D02*
X13415527Y-10828773D01*
X13330673Y-10828773D01*
X13330673Y-10913627D01*
X13415527Y-10913627D01*
X13415527Y-11167627D02*
X13415527Y-11082773D01*
X13330673Y-11082773D01*
X13330673Y-11167627D01*
X13415527Y-11167627D01*
X13415527Y-11421627D02*
X13415527Y-11336773D01*
X13330673Y-11336773D01*
X13330673Y-11421627D01*
X13415527Y-11421627D01*
X13415527Y-11675627D02*
X13415527Y-11590773D01*
X13330673Y-11590773D01*
X13330673Y-11675627D01*
X13415527Y-11675627D01*
X14959527Y-6849627D02*
X14959527Y-6764773D01*
X14874673Y-6764773D01*
X14874673Y-6849627D01*
X14959527Y-6849627D01*
X14959527Y-7103627D02*
X14959527Y-7018773D01*
X14874673Y-7018773D01*
X14874673Y-7103627D01*
X14959527Y-7103627D01*
X14959527Y-7357627D02*
X14959527Y-7272773D01*
X14874673Y-7272773D01*
X14874673Y-7357627D01*
X14959527Y-7357627D01*
X14959527Y-7611627D02*
X14959527Y-7526773D01*
X14874673Y-7526773D01*
X14874673Y-7611627D01*
X14959527Y-7611627D01*
X14959527Y-7865627D02*
X14959527Y-7780773D01*
X14874673Y-7780773D01*
X14874673Y-7865627D01*
X14959527Y-7865627D01*
X14959527Y-8119627D02*
X14959527Y-8034773D01*
X14874673Y-8034773D01*
X14874673Y-8119627D01*
X14959527Y-8119627D01*
X14959527Y-8373627D02*
X14959527Y-8288773D01*
X14874673Y-8288773D01*
X14874673Y-8373627D01*
X14959527Y-8373627D01*
X14959527Y-8627627D02*
X14959527Y-8542773D01*
X14874673Y-8542773D01*
X14874673Y-8627627D01*
X14959527Y-8627627D01*
X14959527Y-8881627D02*
X14959527Y-8796773D01*
X14874673Y-8796773D01*
X14874673Y-8881627D01*
X14959527Y-8881627D01*
X14959527Y-9135627D02*
X14959527Y-9050773D01*
X14874673Y-9050773D01*
X14874673Y-9135627D01*
X14959527Y-9135627D01*
X14959527Y-9389627D02*
X14959527Y-9304773D01*
X14874673Y-9304773D01*
X14874673Y-9389627D01*
X14959527Y-9389627D01*
X14959527Y-9643627D02*
X14959527Y-9558773D01*
X14874673Y-9558773D01*
X14874673Y-9643627D01*
X14959527Y-9643627D01*
X14959527Y-9897627D02*
X14959527Y-9812773D01*
X14874673Y-9812773D01*
X14874673Y-9897627D01*
X14959527Y-9897627D01*
X14959527Y-10151627D02*
X14959527Y-10066773D01*
X14874673Y-10066773D01*
X14874673Y-10151627D01*
X14959527Y-10151627D01*
X14959527Y-10405627D02*
X14959527Y-10320773D01*
X14874673Y-10320773D01*
X14874673Y-10405627D01*
X14959527Y-10405627D01*
X14959527Y-10659627D02*
X14959527Y-10574773D01*
X14874673Y-10574773D01*
X14874673Y-10659627D01*
X14959527Y-10659627D01*
X14959527Y-10913627D02*
X14959527Y-10828773D01*
X14874673Y-10828773D01*
X14874673Y-10913627D01*
X14959527Y-10913627D01*
X14959527Y-11167627D02*
X14959527Y-11082773D01*
X14874673Y-11082773D01*
X14874673Y-11167627D01*
X14959527Y-11167627D01*
X14959527Y-11421627D02*
X14959527Y-11336773D01*
X14874673Y-11336773D01*
X14874673Y-11421627D01*
X14959527Y-11421627D01*
X14959527Y-11675627D02*
X14959527Y-11590773D01*
X14874673Y-11590773D01*
X14874673Y-11675627D01*
X14959527Y-11675627D01*
X16952600Y-6911725D02*
X17019025Y-6845300D01*
X16952600Y-6778875D01*
X16886175Y-6845300D01*
X16952600Y-6911725D01*
X17667600Y-6911725D02*
X17734025Y-6845300D01*
X17667600Y-6778875D01*
X17601175Y-6845300D01*
X17667600Y-6911725D01*
X16665400Y-11422900D02*
X16903400Y-11660900D01*
X16903400Y-11422900D02*
X16665400Y-11660900D01*
X16903400Y-11541900D02*
G75*
G03*
X16903400Y-11541900I-119000J0D01*
G01*
X17945400Y-11422900D02*
X18183400Y-11660900D01*
X18183400Y-11422900D02*
X17945400Y-11660900D01*
X18183400Y-11541900D02*
G75*
G03*
X18183400Y-11541900I-119000J0D01*
G01*
D12*
X13110928Y-12368114D02*
X13110928Y-12068114D01*
X13182357Y-12068114D01*
X13225214Y-12082400D01*
X13253786Y-12110971D01*
X13268071Y-12139543D01*
X13282357Y-12196686D01*
X13282357Y-12239543D01*
X13268071Y-12296686D01*
X13253786Y-12325257D01*
X13225214Y-12353829D01*
X13182357Y-12368114D01*
X13110928Y-12368114D01*
X13410928Y-12368114D02*
X13410928Y-12168114D01*
X13410928Y-12225257D02*
X13425214Y-12196686D01*
X13439500Y-12182400D01*
X13468071Y-12168114D01*
X13496643Y-12168114D01*
X13596643Y-12368114D02*
X13596643Y-12168114D01*
X13596643Y-12068114D02*
X13582357Y-12082400D01*
X13596643Y-12096686D01*
X13610928Y-12082400D01*
X13596643Y-12068114D01*
X13596643Y-12096686D01*
X13782357Y-12368114D02*
X13753786Y-12353829D01*
X13739500Y-12325257D01*
X13739500Y-12068114D01*
X13939500Y-12368114D02*
X13910928Y-12353829D01*
X13896643Y-12325257D01*
X13896643Y-12068114D01*
X14282357Y-12368114D02*
X14282357Y-12068114D01*
X14382357Y-12282400D01*
X14482357Y-12068114D01*
X14482357Y-12368114D01*
X14753786Y-12368114D02*
X14753786Y-12210971D01*
X14739500Y-12182400D01*
X14710928Y-12168114D01*
X14653786Y-12168114D01*
X14625214Y-12182400D01*
X14753786Y-12353829D02*
X14725214Y-12368114D01*
X14653786Y-12368114D01*
X14625214Y-12353829D01*
X14610928Y-12325257D01*
X14610928Y-12296686D01*
X14625214Y-12268114D01*
X14653786Y-12253829D01*
X14725214Y-12253829D01*
X14753786Y-12239543D01*
X14896643Y-12168114D02*
X14896643Y-12468114D01*
X14896643Y-12182400D02*
X14925214Y-12168114D01*
X14982357Y-12168114D01*
X15010928Y-12182400D01*
X15025214Y-12196686D01*
X15039500Y-12225257D01*
X15039500Y-12310971D01*
X15025214Y-12339543D01*
X15010928Y-12353829D01*
X14982357Y-12368114D01*
X14925214Y-12368114D01*
X14896643Y-12353829D01*
X15168071Y-12339543D02*
X15182357Y-12353829D01*
X15168071Y-12368114D01*
X15153786Y-12353829D01*
X15168071Y-12339543D01*
X15168071Y-12368114D01*
X15168071Y-12182400D02*
X15182357Y-12196686D01*
X15168071Y-12210971D01*
X15153786Y-12196686D01*
X15168071Y-12182400D01*
X15168071Y-12210971D01*
X12784500Y-12842400D02*
X12824500Y-12882400D01*
X12824500Y-12842400D02*
X12784500Y-12882400D01*
X13168071Y-12698114D02*
X13196643Y-12698114D01*
X13225214Y-12712400D01*
X13239500Y-12726686D01*
X13253786Y-12755257D01*
X13268071Y-12812400D01*
X13268071Y-12883829D01*
X13253786Y-12940971D01*
X13239500Y-12969543D01*
X13225214Y-12983829D01*
X13196643Y-12998114D01*
X13168071Y-12998114D01*
X13139500Y-12983829D01*
X13125214Y-12969543D01*
X13110928Y-12940971D01*
X13096643Y-12883829D01*
X13096643Y-12812400D01*
X13110928Y-12755257D01*
X13125214Y-12726686D01*
X13139500Y-12712400D01*
X13168071Y-12698114D01*
X13396643Y-12969543D02*
X13410928Y-12983829D01*
X13396643Y-12998114D01*
X13382357Y-12983829D01*
X13396643Y-12969543D01*
X13396643Y-12998114D01*
X13668071Y-12798114D02*
X13668071Y-12998114D01*
X13596643Y-12683829D02*
X13525214Y-12898114D01*
X13710928Y-12898114D01*
X13882357Y-12698114D02*
X13910928Y-12698114D01*
X13939500Y-12712400D01*
X13953786Y-12726686D01*
X13968071Y-12755257D01*
X13982357Y-12812400D01*
X13982357Y-12883829D01*
X13968071Y-12940971D01*
X13953786Y-12969543D01*
X13939500Y-12983829D01*
X13910928Y-12998114D01*
X13882357Y-12998114D01*
X13853786Y-12983829D01*
X13839500Y-12969543D01*
X13825214Y-12940971D01*
X13810928Y-12883829D01*
X13810928Y-12812400D01*
X13825214Y-12755257D01*
X13839500Y-12726686D01*
X13853786Y-12712400D01*
X13882357Y-12698114D01*
X14110928Y-12998114D02*
X14110928Y-12798114D01*
X14110928Y-12826686D02*
X14125214Y-12812400D01*
X14153786Y-12798114D01*
X14196643Y-12798114D01*
X14225214Y-12812400D01*
X14239500Y-12840971D01*
X14239500Y-12998114D01*
X14239500Y-12840971D02*
X14253786Y-12812400D01*
X14282357Y-12798114D01*
X14325214Y-12798114D01*
X14353786Y-12812400D01*
X14368071Y-12840971D01*
X14368071Y-12998114D01*
X14510928Y-12998114D02*
X14510928Y-12798114D01*
X14510928Y-12826686D02*
X14525214Y-12812400D01*
X14553786Y-12798114D01*
X14596643Y-12798114D01*
X14625214Y-12812400D01*
X14639500Y-12840971D01*
X14639500Y-12998114D01*
X14639500Y-12840971D02*
X14653786Y-12812400D01*
X14682357Y-12798114D01*
X14725214Y-12798114D01*
X14753786Y-12812400D01*
X14768071Y-12840971D01*
X14768071Y-12998114D01*
X15353786Y-12683829D02*
X15096643Y-13069543D01*
X15739500Y-12698114D02*
X15768071Y-12698114D01*
X15796643Y-12712400D01*
X15810928Y-12726686D01*
X15825214Y-12755257D01*
X15839500Y-12812400D01*
X15839500Y-12883829D01*
X15825214Y-12940971D01*
X15810928Y-12969543D01*
X15796643Y-12983829D01*
X15768071Y-12998114D01*
X15739500Y-12998114D01*
X15710928Y-12983829D01*
X15696643Y-12969543D01*
X15682357Y-12940971D01*
X15668071Y-12883829D01*
X15668071Y-12812400D01*
X15682357Y-12755257D01*
X15696643Y-12726686D01*
X15710928Y-12712400D01*
X15739500Y-12698114D01*
X15968071Y-12969543D02*
X15982357Y-12983829D01*
X15968071Y-12998114D01*
X15953786Y-12983829D01*
X15968071Y-12969543D01*
X15968071Y-12998114D01*
X16168071Y-12698114D02*
X16196643Y-12698114D01*
X16225214Y-12712400D01*
X16239500Y-12726686D01*
X16253786Y-12755257D01*
X16268071Y-12812400D01*
X16268071Y-12883829D01*
X16253786Y-12940971D01*
X16239500Y-12969543D01*
X16225214Y-12983829D01*
X16196643Y-12998114D01*
X16168071Y-12998114D01*
X16139500Y-12983829D01*
X16125214Y-12969543D01*
X16110928Y-12940971D01*
X16096643Y-12883829D01*
X16096643Y-12812400D01*
X16110928Y-12755257D01*
X16125214Y-12726686D01*
X16139500Y-12712400D01*
X16168071Y-12698114D01*
X16553786Y-12998114D02*
X16382357Y-12998114D01*
X16468071Y-12998114D02*
X16468071Y-12698114D01*
X16439500Y-12740971D01*
X16410928Y-12769543D01*
X16382357Y-12783829D01*
X16810928Y-12698114D02*
X16753786Y-12698114D01*
X16725214Y-12712400D01*
X16710928Y-12726686D01*
X16682357Y-12769543D01*
X16668071Y-12826686D01*
X16668071Y-12940971D01*
X16682357Y-12969543D01*
X16696643Y-12983829D01*
X16725214Y-12998114D01*
X16782357Y-12998114D01*
X16810928Y-12983829D01*
X16825214Y-12969543D01*
X16839500Y-12940971D01*
X16839500Y-12869543D01*
X16825214Y-12840971D01*
X16810928Y-12826686D01*
X16782357Y-12812400D01*
X16725214Y-12812400D01*
X16696643Y-12826686D01*
X16682357Y-12840971D01*
X16668071Y-12869543D01*
X16953786Y-12698114D02*
X16953786Y-12755257D01*
X17068071Y-12698114D02*
X17068071Y-12755257D01*
X17510928Y-13112400D02*
X17496643Y-13098114D01*
X17468071Y-13055257D01*
X17453786Y-13026686D01*
X17439500Y-12983829D01*
X17425214Y-12912400D01*
X17425214Y-12855257D01*
X17439500Y-12783829D01*
X17453786Y-12740971D01*
X17468071Y-12712400D01*
X17496643Y-12669543D01*
X17510928Y-12655257D01*
X17782357Y-12998114D02*
X17610928Y-12998114D01*
X17696643Y-12998114D02*
X17696643Y-12698114D01*
X17668071Y-12740971D01*
X17639500Y-12769543D01*
X17610928Y-12783829D01*
X17882357Y-12698114D02*
X18068071Y-12698114D01*
X17968071Y-12812400D01*
X18010928Y-12812400D01*
X18039500Y-12826686D01*
X18053786Y-12840971D01*
X18068071Y-12869543D01*
X18068071Y-12940971D01*
X18053786Y-12969543D01*
X18039500Y-12983829D01*
X18010928Y-12998114D01*
X17925214Y-12998114D01*
X17896643Y-12983829D01*
X17882357Y-12969543D01*
X18425214Y-12998114D02*
X18425214Y-12698114D01*
X18553786Y-12998114D02*
X18553786Y-12840971D01*
X18539500Y-12812400D01*
X18510928Y-12798114D01*
X18468071Y-12798114D01*
X18439500Y-12812400D01*
X18425214Y-12826686D01*
X18739500Y-12998114D02*
X18710928Y-12983829D01*
X18696643Y-12969543D01*
X18682357Y-12940971D01*
X18682357Y-12855257D01*
X18696643Y-12826686D01*
X18710928Y-12812400D01*
X18739500Y-12798114D01*
X18782357Y-12798114D01*
X18810928Y-12812400D01*
X18825214Y-12826686D01*
X18839500Y-12855257D01*
X18839500Y-12940971D01*
X18825214Y-12969543D01*
X18810928Y-12983829D01*
X18782357Y-12998114D01*
X18739500Y-12998114D01*
X19010928Y-12998114D02*
X18982357Y-12983829D01*
X18968071Y-12955257D01*
X18968071Y-12698114D01*
X19239500Y-12983829D02*
X19210928Y-12998114D01*
X19153786Y-12998114D01*
X19125214Y-12983829D01*
X19110928Y-12955257D01*
X19110928Y-12840971D01*
X19125214Y-12812400D01*
X19153786Y-12798114D01*
X19210928Y-12798114D01*
X19239500Y-12812400D01*
X19253786Y-12840971D01*
X19253786Y-12869543D01*
X19110928Y-12898114D01*
X19368071Y-12983829D02*
X19396643Y-12998114D01*
X19453786Y-12998114D01*
X19482357Y-12983829D01*
X19496643Y-12955257D01*
X19496643Y-12940971D01*
X19482357Y-12912400D01*
X19453786Y-12898114D01*
X19410928Y-12898114D01*
X19382357Y-12883829D01*
X19368071Y-12855257D01*
X19368071Y-12840971D01*
X19382357Y-12812400D01*
X19410928Y-12798114D01*
X19453786Y-12798114D01*
X19482357Y-12812400D01*
X19596643Y-13112400D02*
X19610928Y-13098114D01*
X19639500Y-13055257D01*
X19653786Y-13026686D01*
X19668071Y-12983829D01*
X19682357Y-12912400D01*
X19682357Y-12855257D01*
X19668071Y-12783829D01*
X19653786Y-12740971D01*
X19639500Y-12712400D01*
X19610928Y-12669543D01*
X19596643Y-12655257D01*
X12824500Y-13258400D02*
G75*
G03*
X12824500Y-13258400I-40000J0D01*
G01*
X13168071Y-13094114D02*
X13196643Y-13094114D01*
X13225214Y-13108400D01*
X13239500Y-13122686D01*
X13253786Y-13151257D01*
X13268071Y-13208400D01*
X13268071Y-13279829D01*
X13253786Y-13336971D01*
X13239500Y-13365543D01*
X13225214Y-13379829D01*
X13196643Y-13394114D01*
X13168071Y-13394114D01*
X13139500Y-13379829D01*
X13125214Y-13365543D01*
X13110928Y-13336971D01*
X13096643Y-13279829D01*
X13096643Y-13208400D01*
X13110928Y-13151257D01*
X13125214Y-13122686D01*
X13139500Y-13108400D01*
X13168071Y-13094114D01*
X13396643Y-13365543D02*
X13410928Y-13379829D01*
X13396643Y-13394114D01*
X13382357Y-13379829D01*
X13396643Y-13365543D01*
X13396643Y-13394114D01*
X13582357Y-13222686D02*
X13553786Y-13208400D01*
X13539500Y-13194114D01*
X13525214Y-13165543D01*
X13525214Y-13151257D01*
X13539500Y-13122686D01*
X13553786Y-13108400D01*
X13582357Y-13094114D01*
X13639500Y-13094114D01*
X13668071Y-13108400D01*
X13682357Y-13122686D01*
X13696643Y-13151257D01*
X13696643Y-13165543D01*
X13682357Y-13194114D01*
X13668071Y-13208400D01*
X13639500Y-13222686D01*
X13582357Y-13222686D01*
X13553786Y-13236971D01*
X13539500Y-13251257D01*
X13525214Y-13279829D01*
X13525214Y-13336971D01*
X13539500Y-13365543D01*
X13553786Y-13379829D01*
X13582357Y-13394114D01*
X13639500Y-13394114D01*
X13668071Y-13379829D01*
X13682357Y-13365543D01*
X13696643Y-13336971D01*
X13696643Y-13279829D01*
X13682357Y-13251257D01*
X13668071Y-13236971D01*
X13639500Y-13222686D01*
X13882357Y-13094114D02*
X13910928Y-13094114D01*
X13939500Y-13108400D01*
X13953786Y-13122686D01*
X13968071Y-13151257D01*
X13982357Y-13208400D01*
X13982357Y-13279829D01*
X13968071Y-13336971D01*
X13953786Y-13365543D01*
X13939500Y-13379829D01*
X13910928Y-13394114D01*
X13882357Y-13394114D01*
X13853786Y-13379829D01*
X13839500Y-13365543D01*
X13825214Y-13336971D01*
X13810928Y-13279829D01*
X13810928Y-13208400D01*
X13825214Y-13151257D01*
X13839500Y-13122686D01*
X13853786Y-13108400D01*
X13882357Y-13094114D01*
X14110928Y-13394114D02*
X14110928Y-13194114D01*
X14110928Y-13222686D02*
X14125214Y-13208400D01*
X14153786Y-13194114D01*
X14196643Y-13194114D01*
X14225214Y-13208400D01*
X14239500Y-13236971D01*
X14239500Y-13394114D01*
X14239500Y-13236971D02*
X14253786Y-13208400D01*
X14282357Y-13194114D01*
X14325214Y-13194114D01*
X14353786Y-13208400D01*
X14368071Y-13236971D01*
X14368071Y-13394114D01*
X14510928Y-13394114D02*
X14510928Y-13194114D01*
X14510928Y-13222686D02*
X14525214Y-13208400D01*
X14553786Y-13194114D01*
X14596643Y-13194114D01*
X14625214Y-13208400D01*
X14639500Y-13236971D01*
X14639500Y-13394114D01*
X14639500Y-13236971D02*
X14653786Y-13208400D01*
X14682357Y-13194114D01*
X14725214Y-13194114D01*
X14753786Y-13208400D01*
X14768071Y-13236971D01*
X14768071Y-13394114D01*
X15353786Y-13079829D02*
X15096643Y-13465543D01*
X15739500Y-13094114D02*
X15768071Y-13094114D01*
X15796643Y-13108400D01*
X15810928Y-13122686D01*
X15825214Y-13151257D01*
X15839500Y-13208400D01*
X15839500Y-13279829D01*
X15825214Y-13336971D01*
X15810928Y-13365543D01*
X15796643Y-13379829D01*
X15768071Y-13394114D01*
X15739500Y-13394114D01*
X15710928Y-13379829D01*
X15696643Y-13365543D01*
X15682357Y-13336971D01*
X15668071Y-13279829D01*
X15668071Y-13208400D01*
X15682357Y-13151257D01*
X15696643Y-13122686D01*
X15710928Y-13108400D01*
X15739500Y-13094114D01*
X15968071Y-13365543D02*
X15982357Y-13379829D01*
X15968071Y-13394114D01*
X15953786Y-13379829D01*
X15968071Y-13365543D01*
X15968071Y-13394114D01*
X16168071Y-13094114D02*
X16196643Y-13094114D01*
X16225214Y-13108400D01*
X16239500Y-13122686D01*
X16253786Y-13151257D01*
X16268071Y-13208400D01*
X16268071Y-13279829D01*
X16253786Y-13336971D01*
X16239500Y-13365543D01*
X16225214Y-13379829D01*
X16196643Y-13394114D01*
X16168071Y-13394114D01*
X16139500Y-13379829D01*
X16125214Y-13365543D01*
X16110928Y-13336971D01*
X16096643Y-13279829D01*
X16096643Y-13208400D01*
X16110928Y-13151257D01*
X16125214Y-13122686D01*
X16139500Y-13108400D01*
X16168071Y-13094114D01*
X16368071Y-13094114D02*
X16553786Y-13094114D01*
X16453786Y-13208400D01*
X16496643Y-13208400D01*
X16525214Y-13222686D01*
X16539500Y-13236971D01*
X16553786Y-13265543D01*
X16553786Y-13336971D01*
X16539500Y-13365543D01*
X16525214Y-13379829D01*
X16496643Y-13394114D01*
X16410928Y-13394114D01*
X16382357Y-13379829D01*
X16368071Y-13365543D01*
X16839500Y-13394114D02*
X16668071Y-13394114D01*
X16753786Y-13394114D02*
X16753786Y-13094114D01*
X16725214Y-13136971D01*
X16696643Y-13165543D01*
X16668071Y-13179829D01*
X16953786Y-13094114D02*
X16953786Y-13151257D01*
X17068071Y-13094114D02*
X17068071Y-13151257D01*
X17510928Y-13508400D02*
X17496643Y-13494114D01*
X17468071Y-13451257D01*
X17453786Y-13422686D01*
X17439500Y-13379829D01*
X17425214Y-13308400D01*
X17425214Y-13251257D01*
X17439500Y-13179829D01*
X17453786Y-13136971D01*
X17468071Y-13108400D01*
X17496643Y-13065543D01*
X17510928Y-13051257D01*
X17753786Y-13194114D02*
X17753786Y-13394114D01*
X17682357Y-13079829D02*
X17610928Y-13294114D01*
X17796643Y-13294114D01*
X17968071Y-13094114D02*
X17996643Y-13094114D01*
X18025214Y-13108400D01*
X18039500Y-13122686D01*
X18053786Y-13151257D01*
X18068071Y-13208400D01*
X18068071Y-13279829D01*
X18053786Y-13336971D01*
X18039500Y-13365543D01*
X18025214Y-13379829D01*
X17996643Y-13394114D01*
X17968071Y-13394114D01*
X17939500Y-13379829D01*
X17925214Y-13365543D01*
X17910928Y-13336971D01*
X17896643Y-13279829D01*
X17896643Y-13208400D01*
X17910928Y-13151257D01*
X17925214Y-13122686D01*
X17939500Y-13108400D01*
X17968071Y-13094114D01*
X18425214Y-13394114D02*
X18425214Y-13094114D01*
X18553786Y-13394114D02*
X18553786Y-13236971D01*
X18539500Y-13208400D01*
X18510928Y-13194114D01*
X18468071Y-13194114D01*
X18439500Y-13208400D01*
X18425214Y-13222686D01*
X18739500Y-13394114D02*
X18710928Y-13379829D01*
X18696643Y-13365543D01*
X18682357Y-13336971D01*
X18682357Y-13251257D01*
X18696643Y-13222686D01*
X18710928Y-13208400D01*
X18739500Y-13194114D01*
X18782357Y-13194114D01*
X18810928Y-13208400D01*
X18825214Y-13222686D01*
X18839500Y-13251257D01*
X18839500Y-13336971D01*
X18825214Y-13365543D01*
X18810928Y-13379829D01*
X18782357Y-13394114D01*
X18739500Y-13394114D01*
X19010928Y-13394114D02*
X18982357Y-13379829D01*
X18968071Y-13351257D01*
X18968071Y-13094114D01*
X19239500Y-13379829D02*
X19210928Y-13394114D01*
X19153786Y-13394114D01*
X19125214Y-13379829D01*
X19110928Y-13351257D01*
X19110928Y-13236971D01*
X19125214Y-13208400D01*
X19153786Y-13194114D01*
X19210928Y-13194114D01*
X19239500Y-13208400D01*
X19253786Y-13236971D01*
X19253786Y-13265543D01*
X19110928Y-13294114D01*
X19368071Y-13379829D02*
X19396643Y-13394114D01*
X19453786Y-13394114D01*
X19482357Y-13379829D01*
X19496643Y-13351257D01*
X19496643Y-13336971D01*
X19482357Y-13308400D01*
X19453786Y-13294114D01*
X19410928Y-13294114D01*
X19382357Y-13279829D01*
X19368071Y-13251257D01*
X19368071Y-13236971D01*
X19382357Y-13208400D01*
X19410928Y-13194114D01*
X19453786Y-13194114D01*
X19482357Y-13208400D01*
X19596643Y-13508400D02*
X19610928Y-13494114D01*
X19639500Y-13451257D01*
X19653786Y-13422686D01*
X19668071Y-13379829D01*
X19682357Y-13308400D01*
X19682357Y-13251257D01*
X19668071Y-13179829D01*
X19653786Y-13136971D01*
X19639500Y-13108400D01*
X19610928Y-13065543D01*
X19596643Y-13051257D01*
X12774500Y-13604400D02*
X12774500Y-13704400D01*
X12724500Y-13654400D02*
X12824500Y-13654400D01*
X13268071Y-13790114D02*
X13096643Y-13790114D01*
X13182357Y-13790114D02*
X13182357Y-13490114D01*
X13153786Y-13532971D01*
X13125214Y-13561543D01*
X13096643Y-13575829D01*
X13396643Y-13761543D02*
X13410928Y-13775829D01*
X13396643Y-13790114D01*
X13382357Y-13775829D01*
X13396643Y-13761543D01*
X13396643Y-13790114D01*
X13596643Y-13490114D02*
X13625214Y-13490114D01*
X13653786Y-13504400D01*
X13668071Y-13518686D01*
X13682357Y-13547257D01*
X13696643Y-13604400D01*
X13696643Y-13675829D01*
X13682357Y-13732971D01*
X13668071Y-13761543D01*
X13653786Y-13775829D01*
X13625214Y-13790114D01*
X13596643Y-13790114D01*
X13568071Y-13775829D01*
X13553786Y-13761543D01*
X13539500Y-13732971D01*
X13525214Y-13675829D01*
X13525214Y-13604400D01*
X13539500Y-13547257D01*
X13553786Y-13518686D01*
X13568071Y-13504400D01*
X13596643Y-13490114D01*
X13882357Y-13490114D02*
X13910928Y-13490114D01*
X13939500Y-13504400D01*
X13953786Y-13518686D01*
X13968071Y-13547257D01*
X13982357Y-13604400D01*
X13982357Y-13675829D01*
X13968071Y-13732971D01*
X13953786Y-13761543D01*
X13939500Y-13775829D01*
X13910928Y-13790114D01*
X13882357Y-13790114D01*
X13853786Y-13775829D01*
X13839500Y-13761543D01*
X13825214Y-13732971D01*
X13810928Y-13675829D01*
X13810928Y-13604400D01*
X13825214Y-13547257D01*
X13839500Y-13518686D01*
X13853786Y-13504400D01*
X13882357Y-13490114D01*
X14110928Y-13790114D02*
X14110928Y-13590114D01*
X14110928Y-13618686D02*
X14125214Y-13604400D01*
X14153786Y-13590114D01*
X14196643Y-13590114D01*
X14225214Y-13604400D01*
X14239500Y-13632971D01*
X14239500Y-13790114D01*
X14239500Y-13632971D02*
X14253786Y-13604400D01*
X14282357Y-13590114D01*
X14325214Y-13590114D01*
X14353786Y-13604400D01*
X14368071Y-13632971D01*
X14368071Y-13790114D01*
X14510928Y-13790114D02*
X14510928Y-13590114D01*
X14510928Y-13618686D02*
X14525214Y-13604400D01*
X14553786Y-13590114D01*
X14596643Y-13590114D01*
X14625214Y-13604400D01*
X14639500Y-13632971D01*
X14639500Y-13790114D01*
X14639500Y-13632971D02*
X14653786Y-13604400D01*
X14682357Y-13590114D01*
X14725214Y-13590114D01*
X14753786Y-13604400D01*
X14768071Y-13632971D01*
X14768071Y-13790114D01*
X15353786Y-13475829D02*
X15096643Y-13861543D01*
X15739500Y-13490114D02*
X15768071Y-13490114D01*
X15796643Y-13504400D01*
X15810928Y-13518686D01*
X15825214Y-13547257D01*
X15839500Y-13604400D01*
X15839500Y-13675829D01*
X15825214Y-13732971D01*
X15810928Y-13761543D01*
X15796643Y-13775829D01*
X15768071Y-13790114D01*
X15739500Y-13790114D01*
X15710928Y-13775829D01*
X15696643Y-13761543D01*
X15682357Y-13732971D01*
X15668071Y-13675829D01*
X15668071Y-13604400D01*
X15682357Y-13547257D01*
X15696643Y-13518686D01*
X15710928Y-13504400D01*
X15739500Y-13490114D01*
X15968071Y-13761543D02*
X15982357Y-13775829D01*
X15968071Y-13790114D01*
X15953786Y-13775829D01*
X15968071Y-13761543D01*
X15968071Y-13790114D01*
X16168071Y-13490114D02*
X16196643Y-13490114D01*
X16225214Y-13504400D01*
X16239500Y-13518686D01*
X16253786Y-13547257D01*
X16268071Y-13604400D01*
X16268071Y-13675829D01*
X16253786Y-13732971D01*
X16239500Y-13761543D01*
X16225214Y-13775829D01*
X16196643Y-13790114D01*
X16168071Y-13790114D01*
X16139500Y-13775829D01*
X16125214Y-13761543D01*
X16110928Y-13732971D01*
X16096643Y-13675829D01*
X16096643Y-13604400D01*
X16110928Y-13547257D01*
X16125214Y-13518686D01*
X16139500Y-13504400D01*
X16168071Y-13490114D01*
X16368071Y-13490114D02*
X16553786Y-13490114D01*
X16453786Y-13604400D01*
X16496643Y-13604400D01*
X16525214Y-13618686D01*
X16539500Y-13632971D01*
X16553786Y-13661543D01*
X16553786Y-13732971D01*
X16539500Y-13761543D01*
X16525214Y-13775829D01*
X16496643Y-13790114D01*
X16410928Y-13790114D01*
X16382357Y-13775829D01*
X16368071Y-13761543D01*
X16696643Y-13790114D02*
X16753786Y-13790114D01*
X16782357Y-13775829D01*
X16796643Y-13761543D01*
X16825214Y-13718686D01*
X16839500Y-13661543D01*
X16839500Y-13547257D01*
X16825214Y-13518686D01*
X16810928Y-13504400D01*
X16782357Y-13490114D01*
X16725214Y-13490114D01*
X16696643Y-13504400D01*
X16682357Y-13518686D01*
X16668071Y-13547257D01*
X16668071Y-13618686D01*
X16682357Y-13647257D01*
X16696643Y-13661543D01*
X16725214Y-13675829D01*
X16782357Y-13675829D01*
X16810928Y-13661543D01*
X16825214Y-13647257D01*
X16839500Y-13618686D01*
X16953786Y-13490114D02*
X16953786Y-13547257D01*
X17068071Y-13490114D02*
X17068071Y-13547257D01*
X17510928Y-13904400D02*
X17496643Y-13890114D01*
X17468071Y-13847257D01*
X17453786Y-13818686D01*
X17439500Y-13775829D01*
X17425214Y-13704400D01*
X17425214Y-13647257D01*
X17439500Y-13575829D01*
X17453786Y-13532971D01*
X17468071Y-13504400D01*
X17496643Y-13461543D01*
X17510928Y-13447257D01*
X17596643Y-13490114D02*
X17796643Y-13490114D01*
X17668071Y-13790114D01*
X18139500Y-13790114D02*
X18139500Y-13490114D01*
X18268071Y-13790114D02*
X18268071Y-13632971D01*
X18253786Y-13604400D01*
X18225214Y-13590114D01*
X18182357Y-13590114D01*
X18153786Y-13604400D01*
X18139500Y-13618686D01*
X18453786Y-13790114D02*
X18425214Y-13775829D01*
X18410928Y-13761543D01*
X18396643Y-13732971D01*
X18396643Y-13647257D01*
X18410928Y-13618686D01*
X18425214Y-13604400D01*
X18453786Y-13590114D01*
X18496643Y-13590114D01*
X18525214Y-13604400D01*
X18539500Y-13618686D01*
X18553786Y-13647257D01*
X18553786Y-13732971D01*
X18539500Y-13761543D01*
X18525214Y-13775829D01*
X18496643Y-13790114D01*
X18453786Y-13790114D01*
X18725214Y-13790114D02*
X18696643Y-13775829D01*
X18682357Y-13747257D01*
X18682357Y-13490114D01*
X18953786Y-13775829D02*
X18925214Y-13790114D01*
X18868071Y-13790114D01*
X18839500Y-13775829D01*
X18825214Y-13747257D01*
X18825214Y-13632971D01*
X18839500Y-13604400D01*
X18868071Y-13590114D01*
X18925214Y-13590114D01*
X18953786Y-13604400D01*
X18968071Y-13632971D01*
X18968071Y-13661543D01*
X18825214Y-13690114D01*
X19082357Y-13775829D02*
X19110928Y-13790114D01*
X19168071Y-13790114D01*
X19196643Y-13775829D01*
X19210928Y-13747257D01*
X19210928Y-13732971D01*
X19196643Y-13704400D01*
X19168071Y-13690114D01*
X19125214Y-13690114D01*
X19096643Y-13675829D01*
X19082357Y-13647257D01*
X19082357Y-13632971D01*
X19096643Y-13604400D01*
X19125214Y-13590114D01*
X19168071Y-13590114D01*
X19196643Y-13604400D01*
X19310928Y-13904400D02*
X19325214Y-13890114D01*
X19353786Y-13847257D01*
X19368071Y-13818686D01*
X19382357Y-13775829D01*
X19396643Y-13704400D01*
X19396643Y-13647257D01*
X19382357Y-13575829D01*
X19368071Y-13532971D01*
X19353786Y-13504400D01*
X19325214Y-13461543D01*
X19310928Y-13447257D01*
X12806927Y-14092827D02*
X12806927Y-14007973D01*
X12722073Y-14007973D01*
X12722073Y-14092827D01*
X12806927Y-14092827D01*
X13268071Y-14186114D02*
X13096643Y-14186114D01*
X13182357Y-14186114D02*
X13182357Y-13886114D01*
X13153786Y-13928971D01*
X13125214Y-13957543D01*
X13096643Y-13971829D01*
X13396643Y-14157543D02*
X13410928Y-14171829D01*
X13396643Y-14186114D01*
X13382357Y-14171829D01*
X13396643Y-14157543D01*
X13396643Y-14186114D01*
X13525214Y-13914686D02*
X13539500Y-13900400D01*
X13568071Y-13886114D01*
X13639500Y-13886114D01*
X13668071Y-13900400D01*
X13682357Y-13914686D01*
X13696643Y-13943257D01*
X13696643Y-13971829D01*
X13682357Y-14014686D01*
X13510928Y-14186114D01*
X13696643Y-14186114D01*
X13882357Y-13886114D02*
X13910928Y-13886114D01*
X13939500Y-13900400D01*
X13953786Y-13914686D01*
X13968071Y-13943257D01*
X13982357Y-14000400D01*
X13982357Y-14071829D01*
X13968071Y-14128971D01*
X13953786Y-14157543D01*
X13939500Y-14171829D01*
X13910928Y-14186114D01*
X13882357Y-14186114D01*
X13853786Y-14171829D01*
X13839500Y-14157543D01*
X13825214Y-14128971D01*
X13810928Y-14071829D01*
X13810928Y-14000400D01*
X13825214Y-13943257D01*
X13839500Y-13914686D01*
X13853786Y-13900400D01*
X13882357Y-13886114D01*
X14110928Y-14186114D02*
X14110928Y-13986114D01*
X14110928Y-14014686D02*
X14125214Y-14000400D01*
X14153786Y-13986114D01*
X14196643Y-13986114D01*
X14225214Y-14000400D01*
X14239500Y-14028971D01*
X14239500Y-14186114D01*
X14239500Y-14028971D02*
X14253786Y-14000400D01*
X14282357Y-13986114D01*
X14325214Y-13986114D01*
X14353786Y-14000400D01*
X14368071Y-14028971D01*
X14368071Y-14186114D01*
X14510928Y-14186114D02*
X14510928Y-13986114D01*
X14510928Y-14014686D02*
X14525214Y-14000400D01*
X14553786Y-13986114D01*
X14596643Y-13986114D01*
X14625214Y-14000400D01*
X14639500Y-14028971D01*
X14639500Y-14186114D01*
X14639500Y-14028971D02*
X14653786Y-14000400D01*
X14682357Y-13986114D01*
X14725214Y-13986114D01*
X14753786Y-14000400D01*
X14768071Y-14028971D01*
X14768071Y-14186114D01*
X15353786Y-13871829D02*
X15096643Y-14257543D01*
X15739500Y-13886114D02*
X15768071Y-13886114D01*
X15796643Y-13900400D01*
X15810928Y-13914686D01*
X15825214Y-13943257D01*
X15839500Y-14000400D01*
X15839500Y-14071829D01*
X15825214Y-14128971D01*
X15810928Y-14157543D01*
X15796643Y-14171829D01*
X15768071Y-14186114D01*
X15739500Y-14186114D01*
X15710928Y-14171829D01*
X15696643Y-14157543D01*
X15682357Y-14128971D01*
X15668071Y-14071829D01*
X15668071Y-14000400D01*
X15682357Y-13943257D01*
X15696643Y-13914686D01*
X15710928Y-13900400D01*
X15739500Y-13886114D01*
X15968071Y-14157543D02*
X15982357Y-14171829D01*
X15968071Y-14186114D01*
X15953786Y-14171829D01*
X15968071Y-14157543D01*
X15968071Y-14186114D01*
X16168071Y-13886114D02*
X16196643Y-13886114D01*
X16225214Y-13900400D01*
X16239500Y-13914686D01*
X16253786Y-13943257D01*
X16268071Y-14000400D01*
X16268071Y-14071829D01*
X16253786Y-14128971D01*
X16239500Y-14157543D01*
X16225214Y-14171829D01*
X16196643Y-14186114D01*
X16168071Y-14186114D01*
X16139500Y-14171829D01*
X16125214Y-14157543D01*
X16110928Y-14128971D01*
X16096643Y-14071829D01*
X16096643Y-14000400D01*
X16110928Y-13943257D01*
X16125214Y-13914686D01*
X16139500Y-13900400D01*
X16168071Y-13886114D01*
X16525214Y-13986114D02*
X16525214Y-14186114D01*
X16453786Y-13871829D02*
X16382357Y-14086114D01*
X16568071Y-14086114D01*
X16653786Y-13886114D02*
X16853786Y-13886114D01*
X16725214Y-14186114D01*
X16953786Y-13886114D02*
X16953786Y-13943257D01*
X17068071Y-13886114D02*
X17068071Y-13943257D01*
X17510928Y-14300400D02*
X17496643Y-14286114D01*
X17468071Y-14243257D01*
X17453786Y-14214686D01*
X17439500Y-14171829D01*
X17425214Y-14100400D01*
X17425214Y-14043257D01*
X17439500Y-13971829D01*
X17453786Y-13928971D01*
X17468071Y-13900400D01*
X17496643Y-13857543D01*
X17510928Y-13843257D01*
X17668071Y-14014686D02*
X17639500Y-14000400D01*
X17625214Y-13986114D01*
X17610928Y-13957543D01*
X17610928Y-13943257D01*
X17625214Y-13914686D01*
X17639500Y-13900400D01*
X17668071Y-13886114D01*
X17725214Y-13886114D01*
X17753786Y-13900400D01*
X17768071Y-13914686D01*
X17782357Y-13943257D01*
X17782357Y-13957543D01*
X17768071Y-13986114D01*
X17753786Y-14000400D01*
X17725214Y-14014686D01*
X17668071Y-14014686D01*
X17639500Y-14028971D01*
X17625214Y-14043257D01*
X17610928Y-14071829D01*
X17610928Y-14128971D01*
X17625214Y-14157543D01*
X17639500Y-14171829D01*
X17668071Y-14186114D01*
X17725214Y-14186114D01*
X17753786Y-14171829D01*
X17768071Y-14157543D01*
X17782357Y-14128971D01*
X17782357Y-14071829D01*
X17768071Y-14043257D01*
X17753786Y-14028971D01*
X17725214Y-14014686D01*
X17968071Y-13886114D02*
X17996643Y-13886114D01*
X18025214Y-13900400D01*
X18039500Y-13914686D01*
X18053786Y-13943257D01*
X18068071Y-14000400D01*
X18068071Y-14071829D01*
X18053786Y-14128971D01*
X18039500Y-14157543D01*
X18025214Y-14171829D01*
X17996643Y-14186114D01*
X17968071Y-14186114D01*
X17939500Y-14171829D01*
X17925214Y-14157543D01*
X17910928Y-14128971D01*
X17896643Y-14071829D01*
X17896643Y-14000400D01*
X17910928Y-13943257D01*
X17925214Y-13914686D01*
X17939500Y-13900400D01*
X17968071Y-13886114D01*
X18425214Y-14186114D02*
X18425214Y-13886114D01*
X18553786Y-14186114D02*
X18553786Y-14028971D01*
X18539500Y-14000400D01*
X18510928Y-13986114D01*
X18468071Y-13986114D01*
X18439500Y-14000400D01*
X18425214Y-14014686D01*
X18739500Y-14186114D02*
X18710928Y-14171829D01*
X18696643Y-14157543D01*
X18682357Y-14128971D01*
X18682357Y-14043257D01*
X18696643Y-14014686D01*
X18710928Y-14000400D01*
X18739500Y-13986114D01*
X18782357Y-13986114D01*
X18810928Y-14000400D01*
X18825214Y-14014686D01*
X18839500Y-14043257D01*
X18839500Y-14128971D01*
X18825214Y-14157543D01*
X18810928Y-14171829D01*
X18782357Y-14186114D01*
X18739500Y-14186114D01*
X19010928Y-14186114D02*
X18982357Y-14171829D01*
X18968071Y-14143257D01*
X18968071Y-13886114D01*
X19239500Y-14171829D02*
X19210928Y-14186114D01*
X19153786Y-14186114D01*
X19125214Y-14171829D01*
X19110928Y-14143257D01*
X19110928Y-14028971D01*
X19125214Y-14000400D01*
X19153786Y-13986114D01*
X19210928Y-13986114D01*
X19239500Y-14000400D01*
X19253786Y-14028971D01*
X19253786Y-14057543D01*
X19110928Y-14086114D01*
X19368071Y-14171829D02*
X19396643Y-14186114D01*
X19453786Y-14186114D01*
X19482357Y-14171829D01*
X19496643Y-14143257D01*
X19496643Y-14128971D01*
X19482357Y-14100400D01*
X19453786Y-14086114D01*
X19410928Y-14086114D01*
X19382357Y-14071829D01*
X19368071Y-14043257D01*
X19368071Y-14028971D01*
X19382357Y-14000400D01*
X19410928Y-13986114D01*
X19453786Y-13986114D01*
X19482357Y-14000400D01*
X19596643Y-14300400D02*
X19610928Y-14286114D01*
X19639500Y-14243257D01*
X19653786Y-14214686D01*
X19668071Y-14171829D01*
X19682357Y-14100400D01*
X19682357Y-14043257D01*
X19668071Y-13971829D01*
X19653786Y-13928971D01*
X19639500Y-13900400D01*
X19610928Y-13857543D01*
X19596643Y-13843257D01*
X12758075Y-14512825D02*
X12824500Y-14446400D01*
X12758075Y-14379975D01*
X12691650Y-14446400D01*
X12758075Y-14512825D01*
X13268071Y-14582114D02*
X13096643Y-14582114D01*
X13182357Y-14582114D02*
X13182357Y-14282114D01*
X13153786Y-14324971D01*
X13125214Y-14353543D01*
X13096643Y-14367829D01*
X13396643Y-14553543D02*
X13410928Y-14567829D01*
X13396643Y-14582114D01*
X13382357Y-14567829D01*
X13396643Y-14553543D01*
X13396643Y-14582114D01*
X13510928Y-14282114D02*
X13696643Y-14282114D01*
X13596643Y-14396400D01*
X13639500Y-14396400D01*
X13668071Y-14410686D01*
X13682357Y-14424971D01*
X13696643Y-14453543D01*
X13696643Y-14524971D01*
X13682357Y-14553543D01*
X13668071Y-14567829D01*
X13639500Y-14582114D01*
X13553786Y-14582114D01*
X13525214Y-14567829D01*
X13510928Y-14553543D01*
X13796643Y-14282114D02*
X13982357Y-14282114D01*
X13882357Y-14396400D01*
X13925214Y-14396400D01*
X13953786Y-14410686D01*
X13968071Y-14424971D01*
X13982357Y-14453543D01*
X13982357Y-14524971D01*
X13968071Y-14553543D01*
X13953786Y-14567829D01*
X13925214Y-14582114D01*
X13839500Y-14582114D01*
X13810928Y-14567829D01*
X13796643Y-14553543D01*
X14110928Y-14582114D02*
X14110928Y-14382114D01*
X14110928Y-14410686D02*
X14125214Y-14396400D01*
X14153786Y-14382114D01*
X14196643Y-14382114D01*
X14225214Y-14396400D01*
X14239500Y-14424971D01*
X14239500Y-14582114D01*
X14239500Y-14424971D02*
X14253786Y-14396400D01*
X14282357Y-14382114D01*
X14325214Y-14382114D01*
X14353786Y-14396400D01*
X14368071Y-14424971D01*
X14368071Y-14582114D01*
X14510928Y-14582114D02*
X14510928Y-14382114D01*
X14510928Y-14410686D02*
X14525214Y-14396400D01*
X14553786Y-14382114D01*
X14596643Y-14382114D01*
X14625214Y-14396400D01*
X14639500Y-14424971D01*
X14639500Y-14582114D01*
X14639500Y-14424971D02*
X14653786Y-14396400D01*
X14682357Y-14382114D01*
X14725214Y-14382114D01*
X14753786Y-14396400D01*
X14768071Y-14424971D01*
X14768071Y-14582114D01*
X15353786Y-14267829D02*
X15096643Y-14653543D01*
X15739500Y-14282114D02*
X15768071Y-14282114D01*
X15796643Y-14296400D01*
X15810928Y-14310686D01*
X15825214Y-14339257D01*
X15839500Y-14396400D01*
X15839500Y-14467829D01*
X15825214Y-14524971D01*
X15810928Y-14553543D01*
X15796643Y-14567829D01*
X15768071Y-14582114D01*
X15739500Y-14582114D01*
X15710928Y-14567829D01*
X15696643Y-14553543D01*
X15682357Y-14524971D01*
X15668071Y-14467829D01*
X15668071Y-14396400D01*
X15682357Y-14339257D01*
X15696643Y-14310686D01*
X15710928Y-14296400D01*
X15739500Y-14282114D01*
X15968071Y-14553543D02*
X15982357Y-14567829D01*
X15968071Y-14582114D01*
X15953786Y-14567829D01*
X15968071Y-14553543D01*
X15968071Y-14582114D01*
X16168071Y-14282114D02*
X16196643Y-14282114D01*
X16225214Y-14296400D01*
X16239500Y-14310686D01*
X16253786Y-14339257D01*
X16268071Y-14396400D01*
X16268071Y-14467829D01*
X16253786Y-14524971D01*
X16239500Y-14553543D01*
X16225214Y-14567829D01*
X16196643Y-14582114D01*
X16168071Y-14582114D01*
X16139500Y-14567829D01*
X16125214Y-14553543D01*
X16110928Y-14524971D01*
X16096643Y-14467829D01*
X16096643Y-14396400D01*
X16110928Y-14339257D01*
X16125214Y-14310686D01*
X16139500Y-14296400D01*
X16168071Y-14282114D01*
X16539500Y-14282114D02*
X16396643Y-14282114D01*
X16382357Y-14424971D01*
X16396643Y-14410686D01*
X16425214Y-14396400D01*
X16496643Y-14396400D01*
X16525214Y-14410686D01*
X16539500Y-14424971D01*
X16553786Y-14453543D01*
X16553786Y-14524971D01*
X16539500Y-14553543D01*
X16525214Y-14567829D01*
X16496643Y-14582114D01*
X16425214Y-14582114D01*
X16396643Y-14567829D01*
X16382357Y-14553543D01*
X16668071Y-14310686D02*
X16682357Y-14296400D01*
X16710928Y-14282114D01*
X16782357Y-14282114D01*
X16810928Y-14296400D01*
X16825214Y-14310686D01*
X16839500Y-14339257D01*
X16839500Y-14367829D01*
X16825214Y-14410686D01*
X16653786Y-14582114D01*
X16839500Y-14582114D01*
X16953786Y-14282114D02*
X16953786Y-14339257D01*
X17068071Y-14282114D02*
X17068071Y-14339257D01*
X17510928Y-14696400D02*
X17496643Y-14682114D01*
X17468071Y-14639257D01*
X17453786Y-14610686D01*
X17439500Y-14567829D01*
X17425214Y-14496400D01*
X17425214Y-14439257D01*
X17439500Y-14367829D01*
X17453786Y-14324971D01*
X17468071Y-14296400D01*
X17496643Y-14253543D01*
X17510928Y-14239257D01*
X17610928Y-14310686D02*
X17625214Y-14296400D01*
X17653786Y-14282114D01*
X17725214Y-14282114D01*
X17753786Y-14296400D01*
X17768071Y-14310686D01*
X17782357Y-14339257D01*
X17782357Y-14367829D01*
X17768071Y-14410686D01*
X17596643Y-14582114D01*
X17782357Y-14582114D01*
X18139500Y-14582114D02*
X18139500Y-14282114D01*
X18268071Y-14582114D02*
X18268071Y-14424971D01*
X18253786Y-14396400D01*
X18225214Y-14382114D01*
X18182357Y-14382114D01*
X18153786Y-14396400D01*
X18139500Y-14410686D01*
X18453786Y-14582114D02*
X18425214Y-14567829D01*
X18410928Y-14553543D01*
X18396643Y-14524971D01*
X18396643Y-14439257D01*
X18410928Y-14410686D01*
X18425214Y-14396400D01*
X18453786Y-14382114D01*
X18496643Y-14382114D01*
X18525214Y-14396400D01*
X18539500Y-14410686D01*
X18553786Y-14439257D01*
X18553786Y-14524971D01*
X18539500Y-14553543D01*
X18525214Y-14567829D01*
X18496643Y-14582114D01*
X18453786Y-14582114D01*
X18725214Y-14582114D02*
X18696643Y-14567829D01*
X18682357Y-14539257D01*
X18682357Y-14282114D01*
X18953786Y-14567829D02*
X18925214Y-14582114D01*
X18868071Y-14582114D01*
X18839500Y-14567829D01*
X18825214Y-14539257D01*
X18825214Y-14424971D01*
X18839500Y-14396400D01*
X18868071Y-14382114D01*
X18925214Y-14382114D01*
X18953786Y-14396400D01*
X18968071Y-14424971D01*
X18968071Y-14453543D01*
X18825214Y-14482114D01*
X19082357Y-14567829D02*
X19110928Y-14582114D01*
X19168071Y-14582114D01*
X19196643Y-14567829D01*
X19210928Y-14539257D01*
X19210928Y-14524971D01*
X19196643Y-14496400D01*
X19168071Y-14482114D01*
X19125214Y-14482114D01*
X19096643Y-14467829D01*
X19082357Y-14439257D01*
X19082357Y-14424971D01*
X19096643Y-14396400D01*
X19125214Y-14382114D01*
X19168071Y-14382114D01*
X19196643Y-14396400D01*
X19310928Y-14696400D02*
X19325214Y-14682114D01*
X19353786Y-14639257D01*
X19368071Y-14610686D01*
X19382357Y-14567829D01*
X19396643Y-14496400D01*
X19396643Y-14439257D01*
X19382357Y-14367829D01*
X19368071Y-14324971D01*
X19353786Y-14296400D01*
X19325214Y-14253543D01*
X19310928Y-14239257D01*
X12586500Y-14723400D02*
X12824500Y-14961400D01*
X12824500Y-14723400D02*
X12586500Y-14961400D01*
X12824500Y-14842400D02*
G75*
G03*
X12824500Y-14842400I-119000J0D01*
G01*
X13096643Y-14706686D02*
X13110928Y-14692400D01*
X13139500Y-14678114D01*
X13210928Y-14678114D01*
X13239500Y-14692400D01*
X13253786Y-14706686D01*
X13268071Y-14735257D01*
X13268071Y-14763829D01*
X13253786Y-14806686D01*
X13082357Y-14978114D01*
X13268071Y-14978114D01*
X13396643Y-14949543D02*
X13410928Y-14963829D01*
X13396643Y-14978114D01*
X13382357Y-14963829D01*
X13396643Y-14949543D01*
X13396643Y-14978114D01*
X13510928Y-14678114D02*
X13696643Y-14678114D01*
X13596643Y-14792400D01*
X13639500Y-14792400D01*
X13668071Y-14806686D01*
X13682357Y-14820971D01*
X13696643Y-14849543D01*
X13696643Y-14920971D01*
X13682357Y-14949543D01*
X13668071Y-14963829D01*
X13639500Y-14978114D01*
X13553786Y-14978114D01*
X13525214Y-14963829D01*
X13510928Y-14949543D01*
X13868071Y-14806686D02*
X13839500Y-14792400D01*
X13825214Y-14778114D01*
X13810928Y-14749543D01*
X13810928Y-14735257D01*
X13825214Y-14706686D01*
X13839500Y-14692400D01*
X13868071Y-14678114D01*
X13925214Y-14678114D01*
X13953786Y-14692400D01*
X13968071Y-14706686D01*
X13982357Y-14735257D01*
X13982357Y-14749543D01*
X13968071Y-14778114D01*
X13953786Y-14792400D01*
X13925214Y-14806686D01*
X13868071Y-14806686D01*
X13839500Y-14820971D01*
X13825214Y-14835257D01*
X13810928Y-14863829D01*
X13810928Y-14920971D01*
X13825214Y-14949543D01*
X13839500Y-14963829D01*
X13868071Y-14978114D01*
X13925214Y-14978114D01*
X13953786Y-14963829D01*
X13968071Y-14949543D01*
X13982357Y-14920971D01*
X13982357Y-14863829D01*
X13968071Y-14835257D01*
X13953786Y-14820971D01*
X13925214Y-14806686D01*
X14110928Y-14978114D02*
X14110928Y-14778114D01*
X14110928Y-14806686D02*
X14125214Y-14792400D01*
X14153786Y-14778114D01*
X14196643Y-14778114D01*
X14225214Y-14792400D01*
X14239500Y-14820971D01*
X14239500Y-14978114D01*
X14239500Y-14820971D02*
X14253786Y-14792400D01*
X14282357Y-14778114D01*
X14325214Y-14778114D01*
X14353786Y-14792400D01*
X14368071Y-14820971D01*
X14368071Y-14978114D01*
X14510928Y-14978114D02*
X14510928Y-14778114D01*
X14510928Y-14806686D02*
X14525214Y-14792400D01*
X14553786Y-14778114D01*
X14596643Y-14778114D01*
X14625214Y-14792400D01*
X14639500Y-14820971D01*
X14639500Y-14978114D01*
X14639500Y-14820971D02*
X14653786Y-14792400D01*
X14682357Y-14778114D01*
X14725214Y-14778114D01*
X14753786Y-14792400D01*
X14768071Y-14820971D01*
X14768071Y-14978114D01*
X15353786Y-14663829D02*
X15096643Y-15049543D01*
X15739500Y-14678114D02*
X15768071Y-14678114D01*
X15796643Y-14692400D01*
X15810928Y-14706686D01*
X15825214Y-14735257D01*
X15839500Y-14792400D01*
X15839500Y-14863829D01*
X15825214Y-14920971D01*
X15810928Y-14949543D01*
X15796643Y-14963829D01*
X15768071Y-14978114D01*
X15739500Y-14978114D01*
X15710928Y-14963829D01*
X15696643Y-14949543D01*
X15682357Y-14920971D01*
X15668071Y-14863829D01*
X15668071Y-14792400D01*
X15682357Y-14735257D01*
X15696643Y-14706686D01*
X15710928Y-14692400D01*
X15739500Y-14678114D01*
X15968071Y-14949543D02*
X15982357Y-14963829D01*
X15968071Y-14978114D01*
X15953786Y-14963829D01*
X15968071Y-14949543D01*
X15968071Y-14978114D01*
X16168071Y-14678114D02*
X16196643Y-14678114D01*
X16225214Y-14692400D01*
X16239500Y-14706686D01*
X16253786Y-14735257D01*
X16268071Y-14792400D01*
X16268071Y-14863829D01*
X16253786Y-14920971D01*
X16239500Y-14949543D01*
X16225214Y-14963829D01*
X16196643Y-14978114D01*
X16168071Y-14978114D01*
X16139500Y-14963829D01*
X16125214Y-14949543D01*
X16110928Y-14920971D01*
X16096643Y-14863829D01*
X16096643Y-14792400D01*
X16110928Y-14735257D01*
X16125214Y-14706686D01*
X16139500Y-14692400D01*
X16168071Y-14678114D01*
X16410928Y-14978114D02*
X16468071Y-14978114D01*
X16496643Y-14963829D01*
X16510928Y-14949543D01*
X16539500Y-14906686D01*
X16553786Y-14849543D01*
X16553786Y-14735257D01*
X16539500Y-14706686D01*
X16525214Y-14692400D01*
X16496643Y-14678114D01*
X16439500Y-14678114D01*
X16410928Y-14692400D01*
X16396643Y-14706686D01*
X16382357Y-14735257D01*
X16382357Y-14806686D01*
X16396643Y-14835257D01*
X16410928Y-14849543D01*
X16439500Y-14863829D01*
X16496643Y-14863829D01*
X16525214Y-14849543D01*
X16539500Y-14835257D01*
X16553786Y-14806686D01*
X16810928Y-14778114D02*
X16810928Y-14978114D01*
X16739500Y-14663829D02*
X16668071Y-14878114D01*
X16853786Y-14878114D01*
X16953786Y-14678114D02*
X16953786Y-14735257D01*
X17068071Y-14678114D02*
X17068071Y-14735257D01*
X17510928Y-15092400D02*
X17496643Y-15078114D01*
X17468071Y-15035257D01*
X17453786Y-15006686D01*
X17439500Y-14963829D01*
X17425214Y-14892400D01*
X17425214Y-14835257D01*
X17439500Y-14763829D01*
X17453786Y-14720971D01*
X17468071Y-14692400D01*
X17496643Y-14649543D01*
X17510928Y-14635257D01*
X17610928Y-14706686D02*
X17625214Y-14692400D01*
X17653786Y-14678114D01*
X17725214Y-14678114D01*
X17753786Y-14692400D01*
X17768071Y-14706686D01*
X17782357Y-14735257D01*
X17782357Y-14763829D01*
X17768071Y-14806686D01*
X17596643Y-14978114D01*
X17782357Y-14978114D01*
X18139500Y-14978114D02*
X18139500Y-14678114D01*
X18268071Y-14978114D02*
X18268071Y-14820971D01*
X18253786Y-14792400D01*
X18225214Y-14778114D01*
X18182357Y-14778114D01*
X18153786Y-14792400D01*
X18139500Y-14806686D01*
X18453786Y-14978114D02*
X18425214Y-14963829D01*
X18410928Y-14949543D01*
X18396643Y-14920971D01*
X18396643Y-14835257D01*
X18410928Y-14806686D01*
X18425214Y-14792400D01*
X18453786Y-14778114D01*
X18496643Y-14778114D01*
X18525214Y-14792400D01*
X18539500Y-14806686D01*
X18553786Y-14835257D01*
X18553786Y-14920971D01*
X18539500Y-14949543D01*
X18525214Y-14963829D01*
X18496643Y-14978114D01*
X18453786Y-14978114D01*
X18725214Y-14978114D02*
X18696643Y-14963829D01*
X18682357Y-14935257D01*
X18682357Y-14678114D01*
X18953786Y-14963829D02*
X18925214Y-14978114D01*
X18868071Y-14978114D01*
X18839500Y-14963829D01*
X18825214Y-14935257D01*
X18825214Y-14820971D01*
X18839500Y-14792400D01*
X18868071Y-14778114D01*
X18925214Y-14778114D01*
X18953786Y-14792400D01*
X18968071Y-14820971D01*
X18968071Y-14849543D01*
X18825214Y-14878114D01*
X19082357Y-14963829D02*
X19110928Y-14978114D01*
X19168071Y-14978114D01*
X19196643Y-14963829D01*
X19210928Y-14935257D01*
X19210928Y-14920971D01*
X19196643Y-14892400D01*
X19168071Y-14878114D01*
X19125214Y-14878114D01*
X19096643Y-14863829D01*
X19082357Y-14835257D01*
X19082357Y-14820971D01*
X19096643Y-14792400D01*
X19125214Y-14778114D01*
X19168071Y-14778114D01*
X19196643Y-14792400D01*
X19310928Y-15092400D02*
X19325214Y-15078114D01*
X19353786Y-15035257D01*
X19368071Y-15006686D01*
X19382357Y-14963829D01*
X19396643Y-14892400D01*
X19396643Y-14835257D01*
X19382357Y-14763829D01*
X19368071Y-14720971D01*
X19353786Y-14692400D01*
X19325214Y-14649543D01*
X19310928Y-14635257D01*
M02*
