G04 #@! TF.GenerationSoftware,KiCad,Pcbnew,(5.1.6)-1*
G04 #@! TF.CreationDate,2022-08-20T08:16:05-04:00*
G04 #@! TF.ProjectId,amiga-2000-usb-kb-stamp,616d6967-612d-4323-9030-302d7573622d,rev?*
G04 #@! TF.SameCoordinates,Original*
G04 #@! TF.FileFunction,Legend,Bot*
G04 #@! TF.FilePolarity,Positive*
%FSLAX46Y46*%
G04 Gerber Fmt 4.6, Leading zero omitted, Abs format (unit mm)*
G04 Created by KiCad (PCBNEW (5.1.6)-1) date 2022-08-20 08:16:05*
%MOMM*%
%LPD*%
G01*
G04 APERTURE LIST*
%ADD10C,0.150000*%
%ADD11C,0.120000*%
%ADD12C,1.950000*%
%ADD13R,1.900000X1.900000*%
%ADD14C,1.900000*%
%ADD15R,1.800000X1.800000*%
%ADD16C,3.670000*%
%ADD17O,1.800000X1.800000*%
%ADD18O,1.450000X1.450000*%
%ADD19C,1.450000*%
G04 APERTURE END LIST*
D10*
X138310333Y-117895714D02*
X138119857Y-118562380D01*
X137929380Y-118086190D01*
X137738904Y-118562380D01*
X137548428Y-117895714D01*
X137167476Y-118562380D02*
X137167476Y-117895714D01*
X137167476Y-117562380D02*
X137215095Y-117610000D01*
X137167476Y-117657619D01*
X137119857Y-117610000D01*
X137167476Y-117562380D01*
X137167476Y-117657619D01*
X136691285Y-118562380D02*
X136691285Y-117895714D01*
X136691285Y-118086190D02*
X136643666Y-117990952D01*
X136596047Y-117943333D01*
X136500809Y-117895714D01*
X136405571Y-117895714D01*
X135691285Y-118514761D02*
X135786523Y-118562380D01*
X135977000Y-118562380D01*
X136072238Y-118514761D01*
X136119857Y-118419523D01*
X136119857Y-118038571D01*
X136072238Y-117943333D01*
X135977000Y-117895714D01*
X135786523Y-117895714D01*
X135691285Y-117943333D01*
X135643666Y-118038571D01*
X135643666Y-118133809D01*
X136119857Y-118229047D01*
X135357952Y-117895714D02*
X134977000Y-117895714D01*
X135215095Y-117562380D02*
X135215095Y-118419523D01*
X135167476Y-118514761D01*
X135072238Y-118562380D01*
X134977000Y-118562380D01*
X134215095Y-118562380D02*
X134215095Y-118038571D01*
X134262714Y-117943333D01*
X134357952Y-117895714D01*
X134548428Y-117895714D01*
X134643666Y-117943333D01*
X134215095Y-118514761D02*
X134310333Y-118562380D01*
X134548428Y-118562380D01*
X134643666Y-118514761D01*
X134691285Y-118419523D01*
X134691285Y-118324285D01*
X134643666Y-118229047D01*
X134548428Y-118181428D01*
X134310333Y-118181428D01*
X134215095Y-118133809D01*
X133738904Y-117895714D02*
X133738904Y-118895714D01*
X133738904Y-117943333D02*
X133643666Y-117895714D01*
X133453190Y-117895714D01*
X133357952Y-117943333D01*
X133310333Y-117990952D01*
X133262714Y-118086190D01*
X133262714Y-118371904D01*
X133310333Y-118467142D01*
X133357952Y-118514761D01*
X133453190Y-118562380D01*
X133643666Y-118562380D01*
X133738904Y-118514761D01*
X132119857Y-117657619D02*
X132072238Y-117610000D01*
X131977000Y-117562380D01*
X131738904Y-117562380D01*
X131643666Y-117610000D01*
X131596047Y-117657619D01*
X131548428Y-117752857D01*
X131548428Y-117848095D01*
X131596047Y-117990952D01*
X132167476Y-118562380D01*
X131548428Y-118562380D01*
X130929380Y-117562380D02*
X130834142Y-117562380D01*
X130738904Y-117610000D01*
X130691285Y-117657619D01*
X130643666Y-117752857D01*
X130596047Y-117943333D01*
X130596047Y-118181428D01*
X130643666Y-118371904D01*
X130691285Y-118467142D01*
X130738904Y-118514761D01*
X130834142Y-118562380D01*
X130929380Y-118562380D01*
X131024619Y-118514761D01*
X131072238Y-118467142D01*
X131119857Y-118371904D01*
X131167476Y-118181428D01*
X131167476Y-117943333D01*
X131119857Y-117752857D01*
X131072238Y-117657619D01*
X131024619Y-117610000D01*
X130929380Y-117562380D01*
X130215095Y-117657619D02*
X130167476Y-117610000D01*
X130072238Y-117562380D01*
X129834142Y-117562380D01*
X129738904Y-117610000D01*
X129691285Y-117657619D01*
X129643666Y-117752857D01*
X129643666Y-117848095D01*
X129691285Y-117990952D01*
X130262714Y-118562380D01*
X129643666Y-118562380D01*
X129262714Y-117657619D02*
X129215095Y-117610000D01*
X129119857Y-117562380D01*
X128881761Y-117562380D01*
X128786523Y-117610000D01*
X128738904Y-117657619D01*
X128691285Y-117752857D01*
X128691285Y-117848095D01*
X128738904Y-117990952D01*
X129310333Y-118562380D01*
X128691285Y-118562380D01*
D11*
X158893252Y-77545000D02*
X158370748Y-77545000D01*
X158893252Y-76125000D02*
X158370748Y-76125000D01*
X155065252Y-76125000D02*
X154542748Y-76125000D01*
X155065252Y-77545000D02*
X154542748Y-77545000D01*
X157106252Y-68274000D02*
X156583748Y-68274000D01*
X157106252Y-66854000D02*
X156583748Y-66854000D01*
X173407000Y-90933748D02*
X173407000Y-91456252D01*
X174827000Y-90933748D02*
X174827000Y-91456252D01*
D10*
X158798666Y-75542142D02*
X158846285Y-75589761D01*
X158989142Y-75637380D01*
X159084380Y-75637380D01*
X159227238Y-75589761D01*
X159322476Y-75494523D01*
X159370095Y-75399285D01*
X159417714Y-75208809D01*
X159417714Y-75065952D01*
X159370095Y-74875476D01*
X159322476Y-74780238D01*
X159227238Y-74685000D01*
X159084380Y-74637380D01*
X158989142Y-74637380D01*
X158846285Y-74685000D01*
X158798666Y-74732619D01*
X157846285Y-75637380D02*
X158417714Y-75637380D01*
X158132000Y-75637380D02*
X158132000Y-74637380D01*
X158227238Y-74780238D01*
X158322476Y-74875476D01*
X158417714Y-74923095D01*
X154970666Y-75542142D02*
X155018285Y-75589761D01*
X155161142Y-75637380D01*
X155256380Y-75637380D01*
X155399238Y-75589761D01*
X155494476Y-75494523D01*
X155542095Y-75399285D01*
X155589714Y-75208809D01*
X155589714Y-75065952D01*
X155542095Y-74875476D01*
X155494476Y-74780238D01*
X155399238Y-74685000D01*
X155256380Y-74637380D01*
X155161142Y-74637380D01*
X155018285Y-74685000D01*
X154970666Y-74732619D01*
X154589714Y-74732619D02*
X154542095Y-74685000D01*
X154446857Y-74637380D01*
X154208761Y-74637380D01*
X154113523Y-74685000D01*
X154065904Y-74732619D01*
X154018285Y-74827857D01*
X154018285Y-74923095D01*
X154065904Y-75065952D01*
X154637333Y-75637380D01*
X154018285Y-75637380D01*
X156884666Y-69667380D02*
X157218000Y-69191190D01*
X157456095Y-69667380D02*
X157456095Y-68667380D01*
X157075142Y-68667380D01*
X156979904Y-68715000D01*
X156932285Y-68762619D01*
X156884666Y-68857857D01*
X156884666Y-69000714D01*
X156932285Y-69095952D01*
X156979904Y-69143571D01*
X157075142Y-69191190D01*
X157456095Y-69191190D01*
X155932285Y-69667380D02*
X156503714Y-69667380D01*
X156218000Y-69667380D02*
X156218000Y-68667380D01*
X156313238Y-68810238D01*
X156408476Y-68905476D01*
X156503714Y-68953095D01*
X172919380Y-91028333D02*
X172443190Y-90695000D01*
X172919380Y-90456904D02*
X171919380Y-90456904D01*
X171919380Y-90837857D01*
X171967000Y-90933095D01*
X172014619Y-90980714D01*
X172109857Y-91028333D01*
X172252714Y-91028333D01*
X172347952Y-90980714D01*
X172395571Y-90933095D01*
X172443190Y-90837857D01*
X172443190Y-90456904D01*
X172252714Y-91885476D02*
X172919380Y-91885476D01*
X171871761Y-91647380D02*
X172586047Y-91409285D01*
X172586047Y-92028333D01*
%LPC*%
G36*
G01*
X160282000Y-76356738D02*
X160282000Y-77313262D01*
G75*
G02*
X160010262Y-77585000I-271738J0D01*
G01*
X159303738Y-77585000D01*
G75*
G02*
X159032000Y-77313262I0J271738D01*
G01*
X159032000Y-76356738D01*
G75*
G02*
X159303738Y-76085000I271738J0D01*
G01*
X160010262Y-76085000D01*
G75*
G02*
X160282000Y-76356738I0J-271738D01*
G01*
G37*
G36*
G01*
X158232000Y-76356738D02*
X158232000Y-77313262D01*
G75*
G02*
X157960262Y-77585000I-271738J0D01*
G01*
X157253738Y-77585000D01*
G75*
G02*
X156982000Y-77313262I0J271738D01*
G01*
X156982000Y-76356738D01*
G75*
G02*
X157253738Y-76085000I271738J0D01*
G01*
X157960262Y-76085000D01*
G75*
G02*
X158232000Y-76356738I0J-271738D01*
G01*
G37*
G36*
G01*
X154404000Y-76356738D02*
X154404000Y-77313262D01*
G75*
G02*
X154132262Y-77585000I-271738J0D01*
G01*
X153425738Y-77585000D01*
G75*
G02*
X153154000Y-77313262I0J271738D01*
G01*
X153154000Y-76356738D01*
G75*
G02*
X153425738Y-76085000I271738J0D01*
G01*
X154132262Y-76085000D01*
G75*
G02*
X154404000Y-76356738I0J-271738D01*
G01*
G37*
G36*
G01*
X156454000Y-76356738D02*
X156454000Y-77313262D01*
G75*
G02*
X156182262Y-77585000I-271738J0D01*
G01*
X155475738Y-77585000D01*
G75*
G02*
X155204000Y-77313262I0J271738D01*
G01*
X155204000Y-76356738D01*
G75*
G02*
X155475738Y-76085000I271738J0D01*
G01*
X156182262Y-76085000D01*
G75*
G02*
X156454000Y-76356738I0J-271738D01*
G01*
G37*
D12*
X176676000Y-68453000D03*
X169526000Y-68453000D03*
D13*
X130810000Y-68072000D03*
D14*
X130810000Y-70612000D03*
X130810000Y-73152000D03*
X130810000Y-75692000D03*
X130810000Y-78232000D03*
X130810000Y-80772000D03*
X130810000Y-83312000D03*
X130810000Y-85852000D03*
X130810000Y-88392000D03*
X130810000Y-90932000D03*
X130810000Y-93472000D03*
X130810000Y-96012000D03*
X130810000Y-98552000D03*
X130810000Y-101092000D03*
X130810000Y-103632000D03*
X130810000Y-106172000D03*
X130810000Y-108712000D03*
X130810000Y-111252000D03*
X130810000Y-113792000D03*
X130810000Y-116332000D03*
X146250000Y-116332000D03*
X146250000Y-113792000D03*
X146250000Y-111252000D03*
X146250000Y-108712000D03*
X146250000Y-106172000D03*
X146250000Y-103632000D03*
X146250000Y-101092000D03*
X146250000Y-98552000D03*
X146250000Y-96012000D03*
X146250000Y-93472000D03*
X146250000Y-90932000D03*
X146250000Y-88392000D03*
X146250000Y-85852000D03*
X146250000Y-83312000D03*
X146250000Y-80772000D03*
X146250000Y-78232000D03*
X146250000Y-75692000D03*
X146250000Y-73152000D03*
X146250000Y-70612000D03*
X146250000Y-68072000D03*
X149171000Y-68072000D03*
X149171000Y-70612000D03*
X149171000Y-73152000D03*
X149171000Y-75692000D03*
X149171000Y-78232000D03*
X149171000Y-80772000D03*
X149171000Y-83312000D03*
X149171000Y-85852000D03*
X149171000Y-88392000D03*
X149171000Y-90932000D03*
X149171000Y-93472000D03*
X149171000Y-96012000D03*
X149171000Y-98552000D03*
X149171000Y-101092000D03*
X149171000Y-103632000D03*
X149171000Y-106172000D03*
X149171000Y-108712000D03*
X149171000Y-111252000D03*
X149171000Y-113792000D03*
X149171000Y-116332000D03*
X133731000Y-116332000D03*
X133731000Y-113792000D03*
X133731000Y-111252000D03*
X133731000Y-108712000D03*
X133731000Y-106172000D03*
X133731000Y-103632000D03*
X133731000Y-101092000D03*
X133731000Y-98552000D03*
X133731000Y-96012000D03*
X133731000Y-93472000D03*
X133731000Y-90932000D03*
X133731000Y-88392000D03*
X133731000Y-85852000D03*
X133731000Y-83312000D03*
X133731000Y-80772000D03*
X133731000Y-78232000D03*
X133731000Y-75692000D03*
X133731000Y-73152000D03*
X133731000Y-70612000D03*
D13*
X133731000Y-68072000D03*
D15*
X163830000Y-68072000D03*
D16*
X167844000Y-115419000D03*
X180644000Y-115419000D03*
D15*
X174117000Y-76454000D03*
D17*
X171577000Y-76454000D03*
G36*
G01*
X158495000Y-67085738D02*
X158495000Y-68042262D01*
G75*
G02*
X158223262Y-68314000I-271738J0D01*
G01*
X157516738Y-68314000D01*
G75*
G02*
X157245000Y-68042262I0J271738D01*
G01*
X157245000Y-67085738D01*
G75*
G02*
X157516738Y-66814000I271738J0D01*
G01*
X158223262Y-66814000D01*
G75*
G02*
X158495000Y-67085738I0J-271738D01*
G01*
G37*
G36*
G01*
X156445000Y-67085738D02*
X156445000Y-68042262D01*
G75*
G02*
X156173262Y-68314000I-271738J0D01*
G01*
X155466738Y-68314000D01*
G75*
G02*
X155195000Y-68042262I0J271738D01*
G01*
X155195000Y-67085738D01*
G75*
G02*
X155466738Y-66814000I271738J0D01*
G01*
X156173262Y-66814000D01*
G75*
G02*
X156445000Y-67085738I0J-271738D01*
G01*
G37*
G36*
G01*
X173638738Y-91595000D02*
X174595262Y-91595000D01*
G75*
G02*
X174867000Y-91866738I0J-271738D01*
G01*
X174867000Y-92573262D01*
G75*
G02*
X174595262Y-92845000I-271738J0D01*
G01*
X173638738Y-92845000D01*
G75*
G02*
X173367000Y-92573262I0J271738D01*
G01*
X173367000Y-91866738D01*
G75*
G02*
X173638738Y-91595000I271738J0D01*
G01*
G37*
G36*
G01*
X173638738Y-89545000D02*
X174595262Y-89545000D01*
G75*
G02*
X174867000Y-89816738I0J-271738D01*
G01*
X174867000Y-90523262D01*
G75*
G02*
X174595262Y-90795000I-271738J0D01*
G01*
X173638738Y-90795000D01*
G75*
G02*
X173367000Y-90523262I0J271738D01*
G01*
X173367000Y-89816738D01*
G75*
G02*
X173638738Y-89545000I271738J0D01*
G01*
G37*
D18*
X176735000Y-84218000D03*
X176735000Y-86218000D03*
X176735000Y-88218000D03*
X176735000Y-90218000D03*
X176735000Y-92218000D03*
X176735000Y-94218000D03*
X176735000Y-96218000D03*
X176735000Y-98218000D03*
X176735000Y-100218000D03*
X176735000Y-102218000D03*
X174735000Y-104218000D03*
X172735000Y-104218000D03*
X170735000Y-104218000D03*
X168735000Y-104218000D03*
X166735000Y-104218000D03*
X164735000Y-104218000D03*
X162735000Y-104218000D03*
X160735000Y-104218000D03*
X158735000Y-104218000D03*
X156735000Y-104218000D03*
X154735000Y-102218000D03*
X154735000Y-100218000D03*
X154735000Y-98218000D03*
X154735000Y-96218000D03*
X154735000Y-94218000D03*
X154735000Y-92218000D03*
X154735000Y-90218000D03*
X154735000Y-88218000D03*
X154735000Y-86218000D03*
X154735000Y-84218000D03*
X156735000Y-82218000D03*
X158735000Y-82218000D03*
X160735000Y-82218000D03*
X162735000Y-82218000D03*
X164735000Y-82218000D03*
X166735000Y-82218000D03*
X168735000Y-82218000D03*
X170735000Y-82218000D03*
X172735000Y-82218000D03*
D19*
X174735000Y-82218000D03*
D15*
X162179000Y-110998000D03*
D17*
X159639000Y-110998000D03*
X157099000Y-110998000D03*
X154559000Y-110998000D03*
M02*
