G04 #@! TF.GenerationSoftware,KiCad,Pcbnew,(5.1.6)-1*
G04 #@! TF.CreationDate,2024-01-17T07:30:29-05:00*
G04 #@! TF.ProjectId,amiga-2000-usb-kb-stamp,616d6967-612d-4323-9030-302d7573622d,rev?*
G04 #@! TF.SameCoordinates,Original*
G04 #@! TF.FileFunction,Paste,Top*
G04 #@! TF.FilePolarity,Positive*
%FSLAX46Y46*%
G04 Gerber Fmt 4.6, Leading zero omitted, Abs format (unit mm)*
G04 Created by KiCad (PCBNEW (5.1.6)-1) date 2024-01-17 07:30:29*
%MOMM*%
%LPD*%
G01*
G04 APERTURE LIST*
%ADD10R,1.525000X0.650000*%
%ADD11R,0.400000X1.400000*%
%ADD12R,1.750000X1.900000*%
%ADD13R,1.150000X1.450000*%
%ADD14R,1.300000X3.000000*%
%ADD15R,2.800000X1.500000*%
%ADD16R,1.500000X2.800000*%
G04 APERTURE END LIST*
D10*
X159430000Y-74803000D03*
X159430000Y-73533000D03*
X159430000Y-72263000D03*
X159430000Y-70993000D03*
X159430000Y-69723000D03*
X159430000Y-68453000D03*
X159430000Y-67183000D03*
X154006000Y-67183000D03*
X154006000Y-68453000D03*
X154006000Y-69723000D03*
X154006000Y-70993000D03*
X154006000Y-72263000D03*
X154006000Y-73533000D03*
X154006000Y-74803000D03*
D11*
X174401000Y-71103000D03*
X173751000Y-71103000D03*
X173101000Y-71103000D03*
X172451000Y-71103000D03*
X171801000Y-71103000D03*
D12*
X174226000Y-68453000D03*
X171976000Y-68453000D03*
D13*
X175421000Y-70683000D03*
X170781000Y-70683000D03*
D14*
X170744000Y-111719000D03*
X173244000Y-111719000D03*
X175244000Y-111719000D03*
X177744000Y-111719000D03*
D15*
X177385000Y-84218000D03*
X177385000Y-86218000D03*
X177385000Y-88218000D03*
X177385000Y-90218000D03*
X177385000Y-92218000D03*
X177385000Y-94218000D03*
X177385000Y-96218000D03*
X177385000Y-98218000D03*
X177385000Y-100218000D03*
X177385000Y-102218000D03*
D16*
X174735000Y-104868000D03*
X172735000Y-104868000D03*
X170735000Y-104868000D03*
X168735000Y-104868000D03*
X166735000Y-104868000D03*
X164735000Y-104868000D03*
X162735000Y-104868000D03*
X160735000Y-104868000D03*
X158735000Y-104868000D03*
X156735000Y-104868000D03*
D15*
X154085000Y-102218000D03*
X154085000Y-100218000D03*
X154085000Y-98218000D03*
X154085000Y-96218000D03*
X154085000Y-94218000D03*
X154085000Y-92218000D03*
X154085000Y-90218000D03*
X154085000Y-88218000D03*
X154085000Y-86218000D03*
X154085000Y-84218000D03*
D16*
X156735000Y-81568000D03*
X158735000Y-81568000D03*
X160735000Y-81568000D03*
X162735000Y-81568000D03*
X164735000Y-81568000D03*
X166735000Y-81568000D03*
X168735000Y-81568000D03*
X170735000Y-81568000D03*
X172735000Y-81568000D03*
X174735000Y-81568000D03*
M02*
