G04 #@! TF.GenerationSoftware,KiCad,Pcbnew,(5.1.6)-1*
G04 #@! TF.CreationDate,2022-08-20T08:16:05-04:00*
G04 #@! TF.ProjectId,amiga-2000-usb-kb-stamp,616d6967-612d-4323-9030-302d7573622d,rev?*
G04 #@! TF.SameCoordinates,Original*
G04 #@! TF.FileFunction,Paste,Bot*
G04 #@! TF.FilePolarity,Positive*
%FSLAX46Y46*%
G04 Gerber Fmt 4.6, Leading zero omitted, Abs format (unit mm)*
G04 Created by KiCad (PCBNEW (5.1.6)-1) date 2022-08-20 08:16:05*
%MOMM*%
%LPD*%
G01*
G04 APERTURE LIST*
G04 APERTURE END LIST*
G36*
G01*
X160232000Y-76384999D02*
X160232000Y-77285001D01*
G75*
G02*
X159982001Y-77535000I-249999J0D01*
G01*
X159331999Y-77535000D01*
G75*
G02*
X159082000Y-77285001I0J249999D01*
G01*
X159082000Y-76384999D01*
G75*
G02*
X159331999Y-76135000I249999J0D01*
G01*
X159982001Y-76135000D01*
G75*
G02*
X160232000Y-76384999I0J-249999D01*
G01*
G37*
G36*
G01*
X158182000Y-76384999D02*
X158182000Y-77285001D01*
G75*
G02*
X157932001Y-77535000I-249999J0D01*
G01*
X157281999Y-77535000D01*
G75*
G02*
X157032000Y-77285001I0J249999D01*
G01*
X157032000Y-76384999D01*
G75*
G02*
X157281999Y-76135000I249999J0D01*
G01*
X157932001Y-76135000D01*
G75*
G02*
X158182000Y-76384999I0J-249999D01*
G01*
G37*
G36*
G01*
X154354000Y-76384999D02*
X154354000Y-77285001D01*
G75*
G02*
X154104001Y-77535000I-249999J0D01*
G01*
X153453999Y-77535000D01*
G75*
G02*
X153204000Y-77285001I0J249999D01*
G01*
X153204000Y-76384999D01*
G75*
G02*
X153453999Y-76135000I249999J0D01*
G01*
X154104001Y-76135000D01*
G75*
G02*
X154354000Y-76384999I0J-249999D01*
G01*
G37*
G36*
G01*
X156404000Y-76384999D02*
X156404000Y-77285001D01*
G75*
G02*
X156154001Y-77535000I-249999J0D01*
G01*
X155503999Y-77535000D01*
G75*
G02*
X155254000Y-77285001I0J249999D01*
G01*
X155254000Y-76384999D01*
G75*
G02*
X155503999Y-76135000I249999J0D01*
G01*
X156154001Y-76135000D01*
G75*
G02*
X156404000Y-76384999I0J-249999D01*
G01*
G37*
G36*
G01*
X158445000Y-67113999D02*
X158445000Y-68014001D01*
G75*
G02*
X158195001Y-68264000I-249999J0D01*
G01*
X157544999Y-68264000D01*
G75*
G02*
X157295000Y-68014001I0J249999D01*
G01*
X157295000Y-67113999D01*
G75*
G02*
X157544999Y-66864000I249999J0D01*
G01*
X158195001Y-66864000D01*
G75*
G02*
X158445000Y-67113999I0J-249999D01*
G01*
G37*
G36*
G01*
X156395000Y-67113999D02*
X156395000Y-68014001D01*
G75*
G02*
X156145001Y-68264000I-249999J0D01*
G01*
X155494999Y-68264000D01*
G75*
G02*
X155245000Y-68014001I0J249999D01*
G01*
X155245000Y-67113999D01*
G75*
G02*
X155494999Y-66864000I249999J0D01*
G01*
X156145001Y-66864000D01*
G75*
G02*
X156395000Y-67113999I0J-249999D01*
G01*
G37*
G36*
G01*
X173666999Y-91645000D02*
X174567001Y-91645000D01*
G75*
G02*
X174817000Y-91894999I0J-249999D01*
G01*
X174817000Y-92545001D01*
G75*
G02*
X174567001Y-92795000I-249999J0D01*
G01*
X173666999Y-92795000D01*
G75*
G02*
X173417000Y-92545001I0J249999D01*
G01*
X173417000Y-91894999D01*
G75*
G02*
X173666999Y-91645000I249999J0D01*
G01*
G37*
G36*
G01*
X173666999Y-89595000D02*
X174567001Y-89595000D01*
G75*
G02*
X174817000Y-89844999I0J-249999D01*
G01*
X174817000Y-90495001D01*
G75*
G02*
X174567001Y-90745000I-249999J0D01*
G01*
X173666999Y-90745000D01*
G75*
G02*
X173417000Y-90495001I0J249999D01*
G01*
X173417000Y-89844999D01*
G75*
G02*
X173666999Y-89595000I249999J0D01*
G01*
G37*
M02*
